ply
format ascii 1.0
element vertex 826
property float x
property float y
property float z
element face 1648
property list uchar int vertex_indices
end_header
0.121492 -0.044828 -0.39199
0.0833863 0.233225 0.158523
0.0674657 -0.421082 0.0153271
0.356596 0.00749269 0.153702
0.341732 0.047502 0.106653
0.297581 0.0647824 0.113916
0.413409 0.0466916 0.0279135
0.181932 0.094955 0.163308
0.152698 0.0750894 0.195135
0.166237 0.257943 0.0403404
0.159437 0.320223 0.0301964
0.0194118 0.271369 0.305635
0.0180457 0.298946 0.240387
-0.416832 0.0408501 0.0142185
0.0906291 0.229932 0.206434
-0.164409 0.0840796 0.179053
-0.166481 0.129941 0.149594
-0.0732357 -0.290612 0.453825
0.259949 -0.0481908 0.278716
0.106384 0.14515 0.253377
-0.22115 0.0611456 0.174284
0.0998738 0.191718 0.298173
-0.0674285 -0.123738 -0.352676
0.415471 0.0271127 -0.173884
0.117831 -0.374355 -0.0657397
0.335803 -0.255464 0.286975
0.364214 -0.247734 0.228809
0.400667 -0.197088 0.210693
0.372404 -0.123887 -0.224614
0.0594472 -0.384405 -0.0706433
0.306799 -0.212084 -0.178361
0.224838 0.238603 -0.158478
-0.194471 0.157336 0.108388
0.231 0.294818 -0.179202
-0.0119205 -0.134321 -0.354254
-0.205818 0.266795 -0.0526493
0.335474 -0.123612 0.298668
0.350556 -0.168095 0.298877
0.00937231 0.284879 -0.343694
0.344619 0.101222 -0.171329
0.183435 0.38304 -0.0553809
0.189032 0.199876 -0.322233
0.191994 0.388507 -0.112762
-0.209157 0.104139 0.139077
0.439069 0.00606361 0.0538939
0.402724 0.0243123 0.0991699
0.0393334 -0.198503 -0.303596
0.421921 -0.139562 -0.0876493
0.446931 -0.0906415 -0.0598897
0.431322 -0.138203 -0.0225673
-0.0764449 -0.135281 0.461755
0.392303 0.03055 -0.245529
0.355316 0.0635444 -0.255849
0.234266 0.00563537 -0.382496
0.265854 0.113866 -0.32827
0.41479 -0.085023 -0.195277
0.385092 -0.0728764 -0.255007
0.0515319 0.267474 -0.339756
0.388802 -0.176129 -0.102726
0.36789 -0.204487 0.270161
0.313506 -0.165082 0.336939
0.269367 -0.161764 0.379703
0.291433 -0.211391 0.369722
0.285645 -0.121446 0.336088
-0.0945304 0.366234 -0.324373
0.0166784 -0.109342 0.444678
-0.0350876 0.273244 -0.340908
0.322367 0.102039 0.0865509
0.194738 0.034723 0.291187
0.124377 0.34699 -0.31802
0.221562 0.0968498 0.137218
0.264444 0.0647527 0.148862
0.0382848 0.319216 -0.338328
0.199105 0.338478 -0.149224
-0.121726 0.307642 -0.320504
0.176875 0.435218 -0.0786436
0.16501 0.428905 -0.0250786
0.172126 0.379773 0.00495462
0.14825 0.473226 -0.048457
0.138889 0.292248 -0.313436
0.167822 0.328933 -0.289973
0.103069 0.256314 0.113791
-0.194609 0.338729 -0.137107
0.139761 0.230287 0.080292
-0.148174 0.356042 -0.298372
-0.342974 -0.085595 -0.279008
0.0252763 0.549934 -0.132827
-0.186608 0.339214 -0.254714
0.186415 0.364607 -0.259003
-0.11752 -0.0238081 -0.404119
0.195781 0.395736 -0.169382
0.0505502 -0.0774036 0.40836
-0.170084 0.406816 -0.0280482
0.311388 -0.0407565 0.246115
-0.0753929 -0.204248 -0.291321
0.240298 0.278914 -0.312951
0.335313 -0.0215348 -0.32801
0.0180678 -0.447088 0.171316
0.205836 0.242833 -0.319526
0.0616863 -0.266839 -0.237265
0.0812207 -0.0498471 0.369708
-0.305645 0.0595212 -0.331762
0.26356 0.309579 -0.23072
0.167396 -0.127643 -0.3257
-0.182118 -0.0831718 0.355984
0.258866 -0.31229 -0.0686435
0.281778 0.2616 -0.273382
0.0879841 -0.357284 -0.112711
0.250102 0.195972 -0.190334
0.0347145 0.545046 -0.186279
0.308524 0.163175 -0.0591318
-0.147757 0.247067 -0.314223
0.0601193 -0.221107 0.47908
0.0226567 0.0551272 0.373532
0.375232 0.0826534 0.0620247
0.196398 0.277517 -0.00396643
0.178758 0.440863 -0.133039
0.172506 0.450042 -0.185239
-0.112081 0.00108239 0.353924
-0.308557 0.086477 0.0992
0.349465 -0.0837677 0.249417
-0.130386 -0.298063 0.424347
-0.229227 -0.0418022 0.288119
-0.283986 -0.0412873 0.261859
-0.371113 -0.245217 0.178705
-0.272201 0.041798 0.180389
-0.224735 -0.0417794 -0.362107
-0.062507 -0.340593 -0.142112
-0.241953 0.0489071 0.222254
-0.443341 -0.0890588 -0.063054
-0.426944 -0.137811 -0.0323275
-0.45285 -0.0411699 -0.0316855
-0.257395 0.0597542 -0.370458
-0.349145 0.0113803 -0.322204
-0.297096 0.00760625 -0.358826
0.0183216 0.36932 -0.337795
0.111658 0.160462 -0.378945
-0.0915118 0.26096 -0.335403
-0.115734 -0.321122 -0.153426
-0.383343 0.0702437 -0.137716
-0.413296 0.0307651 -0.157114
-0.379707 0.0594111 -0.195956
-0.341189 0.0814018 -0.236076
-0.374503 0.0477947 -0.242791
-0.180916 -0.124738 0.403359
-0.229805 -0.120661 0.358685
-0.265532 -0.170212 0.382895
-0.400678 0.013975 0.108593
-0.398042 0.055096 0.0600074
-0.43241 0.0104092 0.055468
-0.35584 0.0100998 0.148534
-0.151444 0.04898 0.229471
-0.308217 -0.129677 -0.265218
-0.203294 0.0472149 0.254365
-0.132854 0.49594 -0.073345
-0.0945566 0.502825 -0.0275798
-0.0847434 0.527614 -0.081835
-0.0403795 0.534135 -0.0435804
-0.254425 -0.123305 -0.296002
-0.0294093 0.354313 0.116673
-0.0219052 0.405725 0.102643
-0.00785319 0.457302 0.0816237
-0.0445192 0.472634 0.0490539
-0.170541 -0.26502 -0.204777
-0.142817 0.461326 -0.0247867
-0.139492 0.423783 0.0115991
-0.174129 -0.222299 -0.244228
-0.158736 -0.335566 -0.111528
0.203143 0.282008 -0.0636843
-0.182326 -0.372849 -0.0266589
-0.0365334 0.315412 0.149906
-0.369526 -0.232069 0.239723
-0.0781508 0.381585 0.0958362
-0.401292 -0.210999 0.134925
-0.0620631 0.277878 0.140591
-0.0980705 0.261388 0.113738
-0.0688206 -0.27464 -0.227685
-0.36687 -0.127624 -0.221362
-0.0808021 0.232636 0.169829
-0.216866 -0.0761716 0.324094
-0.0373296 0.37055 -0.334145
-0.156591 0.00621912 0.321944
-0.0339333 -0.429038 0.0242665
-0.261889 0.193803 0.015825
0.220352 0.159031 -0.326633
-0.184364 0.377076 -0.0807972
-0.0345036 0.275589 0.271387
-0.109965 0.212441 0.233294
-0.26671 0.1006 -0.338556
-0.185949 0.183169 -0.32668
-0.212512 0.120823 -0.369863
-0.0659221 0.317659 -0.334738
-0.211895 0.244604 -0.318874
-0.268815 0.221955 -0.32153
-0.0628836 0.420922 -0.321383
-0.208052 0.277534 -0.157342
-0.204814 0.285952 -0.104495
-0.167713 -0.299368 -0.157352
-0.226852 0.278612 -0.21399
0.0386168 -0.156858 0.47847
-0.00771505 -0.203172 0.486777
-0.198821 -0.346013 -0.066777
-0.105639 -0.359041 -0.101792
-0.254521 0.281855 -0.256175
-0.37626 -0.201952 -0.0657643
-0.342022 -0.232545 -0.0736552
-0.287614 0.191172 -0.270786
-0.268067 0.235612 -0.228161
0.277868 0.159973 -0.1627
-0.230545 0.232547 -0.100158
-0.231579 0.222917 -0.175389
-0.181345 -0.185521 -0.275133
-0.301146 -0.306158 0.251273
-0.266065 -0.280454 -0.110407
-0.232675 0.33459 -0.247718
-0.221115 -0.278254 -0.160875
-0.220761 0.298204 -0.287302
-0.400711 -0.0327208 -0.232005
-0.168255 0.293382 -0.287394
-0.268532 -0.245306 -0.159931
-0.027067 -0.326092 0.432733
0.320337 0.136318 -0.140199
-0.0328689 0.288504 0.226207
-0.0446088 -0.167252 -0.324241
-0.147847 0.37611 0.0170032
-0.173875 0.349341 -0.0256161
-0.163306 0.271872 0.0350751
-0.156901 0.323722 0.0260598
-0.200387 0.25107 0.0051545
-0.0122141 0.323179 -0.340726
-0.135304 0.24094 0.0773779
-0.170875 0.443667 -0.085091
-0.239598 -0.353017 -0.00977821
-0.153696 0.488793 -0.122535
-0.122994 0.511229 -0.15947
-0.159996 0.475816 -0.171057
-0.0507918 0.502985 -0.282362
0.123407 -0.40354 0.285464
-0.0866285 0.473129 -0.302852
-0.259359 0.0711754 0.132924
-0.357624 0.0972086 0.0601252
-0.292224 -0.130797 0.33741
-0.378445 -0.172492 0.253058
0.308808 0.0361563 0.153462
-0.346295 -0.211272 0.29525
-0.421942 -0.132703 -0.0914783
-0.27973 -0.339262 0.0346697
-0.387595 -0.170094 -0.107567
-0.411634 -0.0832739 -0.195309
-0.405036 0.0181205 -0.21423
-0.384984 -0.0767604 -0.247697
-0.025678 0.0106913 -0.435281
-0.0353154 -0.0852476 -0.382991
0.0262488 0.467801 -0.312068
-0.353231 -0.026182 0.194503
-0.384822 -0.0728839 0.203806
-0.0546384 -0.375112 -0.0907085
0.193096 -0.203198 0.432566
-0.265758 -0.167091 -0.254264
-0.297595 -0.332428 0.140783
-0.40053 -0.194034 0.195643
-0.337616 -0.277974 0.21774
-0.330131 -0.264974 0.275008
-0.0977136 -0.385682 -0.0492221
-0.0442467 -0.403331 -0.0335808
-0.1308 0.295735 0.0743365
-0.353214 0.0473162 0.100157
-0.288421 -0.295885 0.302711
-0.336095 -0.271342 0.00968323
-0.183901 -0.0432506 0.313807
-0.107432 0.203645 0.119021
-0.257057 -0.314785 -0.0605672
-0.421142 0.0446102 -0.100203
-0.389036 0.081676 -0.0754221
-0.309826 -0.270839 -0.0533723
0.27968 0.200049 -0.247112
0.252265 0.248125 -0.215321
-0.18114 -0.303489 0.392346
0.230342 0.238739 -0.0950676
0.336279 0.144325 -0.0870855
0.260539 0.153515 -0.219807
-0.337795 -0.0612196 0.238305
0.2094 0.123353 -0.371113
-0.00369567 0.510399 -0.283228
0.131303 0.200197 -0.337615
0.158634 0.241934 -0.314461
0.172348 0.413537 -0.264191
0.074006 0.248964 0.260183
0.0709168 0.0793205 0.347846
0.279178 0.151438 0.0577427
0.0325097 0.312637 0.181511
0.193603 0.334083 -0.0900512
0.185415 0.329463 -0.0300327
0.107277 0.494265 -0.018963
-0.133307 -0.341988 0.382082
0.0502986 -0.367697 0.385511
0.0626628 0.280614 0.144085
0.169271 0.180166 0.0999211
0.300708 0.165877 -0.00904805
0.206048 0.228 0.0203143
0.0190156 0.37475 0.12054
0.0573481 0.497663 0.0109303
0.0306839 -0.399962 0.337689
0.0648981 0.523048 -0.0412861
0.175543 0.0485461 0.240527
0.0638603 -0.414268 0.292694
0.11591 0.0599251 0.241342
0.315109 0.000769126 0.200651
0.217128 -0.162237 0.411034
0.241751 -0.208361 0.409353
0.180152 0.216033 0.0589563
0.232167 -0.126986 0.365287
0.251755 -0.300379 0.346814
0.160583 -0.0583334 0.340154
0.423229 0.0462677 -0.104722
0.232265 -0.384692 0.17204
0.207059 -0.404816 0.138486
0.0516251 0.415056 -0.325431
0.205602 -0.360791 0.306417
0.234158 0.0700986 -0.380819
0.357476 0.0355109 -0.302433
0.35225 -0.0607318 -0.295387
0.447198 -0.0402801 -0.0944344
0.456771 -0.0392766 -0.0302124
0.130966 -0.121949 0.427283
0.164251 -0.16513 0.440741
0.385914 -0.140255 0.251826
0.441398 -0.0316822 0.0971092
0.398226 -0.0831085 0.200731
0.234194 0.0419885 0.24837
0.167243 -0.172355 -0.291153
0.110139 -0.251671 -0.240741
0.212963 0.0571839 0.185627
0.135605 -0.2194 -0.262237
0.215835 -0.132908 -0.306854
0.280956 -0.128945 -0.281281
0.243936 0.156276 -0.275956
0.257424 -0.358341 0.212324
0.15816 -0.255822 -0.220541
0.231276 -0.360556 0.263467
0.187491 0.277577 -0.295036
0.171599 -0.293891 -0.164942
0.0314032 -0.431382 0.255751
0.432698 -0.0902119 -0.126911
0.0429033 -0.439718 0.210784
0.0525703 0.0899858 -0.435896
0.0541716 0.0405773 -0.435988
0.130073 -0.428678 0.178919
0.10523 -0.321319 -0.157352
0.183997 -0.123315 0.400907
0.274974 -0.0339522 -0.351056
0.0526385 -0.305302 -0.194874
0.446292 0.00938426 -0.00210717
0.460372 -0.036825 0.0351003
-0.00843427 -0.361976 -0.12942
0.411231 -0.184963 0.0122538
0.149566 0.0634887 0.291895
0.226754 0.146131 0.104334
0.140886 -0.420569 0.0762705
0.13636 0.424168 0.0214435
0.0453941 -0.340271 -0.148894
0.292623 -0.298377 0.298186
0.330178 -0.300276 0.0816831
0.296934 -0.326606 0.0326307
0.161783 -0.418959 0.130874
0.195367 -0.217567 -0.242123
0.292452 -0.176043 -0.231027
0.337549 -0.101436 -0.270421
0.401925 -0.182022 -0.0502453
0.152433 -0.333474 0.381968
-0.357618 -0.17135 -0.161858
-0.314967 -0.0962289 0.285302
-0.343992 0.0963295 -0.178085
0.336845 0.126731 0.0269886
-0.345346 0.0555691 -0.284857
-0.314644 -0.211115 -0.162432
0.0620216 0.202608 -0.34796
0.196233 -0.0923324 0.352019
-0.123912 0.351459 0.0662887
0.101473 -0.0862286 0.401261
0.122469 -0.0625169 0.36592
-0.100043 0.139846 -0.39945
-0.150708 0.101792 -0.401427
-0.118128 0.203709 -0.337096
0.361502 0.114424 -0.0654867
0.136855 0.15551 0.202257
0.11698 0.0456635 0.337019
0.154593 -0.409534 0.230368
-0.319327 0.154472 -0.0923601
0.251679 0.194362 -0.128083
0.209199 -0.0543903 0.309846
-0.12066 0.147239 0.228112
0.358097 -0.273472 0.125856
-0.189034 0.318127 -0.0705091
0.352829 -0.193978 -0.138229
-0.0581648 0.247261 0.228433
-0.301219 0.161545 0.00830675
-0.194026 0.190769 0.0670888
-0.0457652 0.501941 0.0085581
-0.11548 0.513965 -0.114352
-0.165514 0.0556137 0.287722
-0.315589 -0.0210542 0.222315
-0.219363 -0.158856 0.408209
0.169264 0.160355 -0.355107
-0.45676 -0.0418514 0.0362874
-0.443872 0.00681709 -0.00436457
0.145604 0.0727408 -0.415028
-0.443285 -0.0380499 -0.0960402
0.288852 0.122982 -0.257907
-0.436513 -0.0369174 0.103368
-0.195396 0.0528991 0.210022
0.302054 -0.322929 0.199239
-0.256696 0.168363 -0.206889
0.0452831 0.149435 -0.403612
-0.295794 0.102428 -0.285451
0.0397554 -0.444445 0.112298
0.119068 -0.139528 -0.332227
0.206316 0.285243 -0.124593
-0.176339 0.225674 0.0496041
0.15549 0.121906 -0.39357
0.102217 0.111467 -0.415821
0.160329 0.484876 -0.149412
0.122027 0.514499 -0.129393
0.159052 0.483814 -0.100557
0.331797 -0.211227 0.321487
0.40828 -0.0252885 -0.221253
0.358458 -0.0366338 0.203004
0.326834 -0.142117 -0.243467
0.0780864 -0.227382 -0.270181
0.390838 0.0843426 -0.079913
-0.0885749 -0.0958659 0.415046
0.0509348 -0.146683 -0.338482
0.295477 -0.257602 0.337464
0.26487 -0.249248 -0.161131
0.302469 0.126226 -0.196587
0.358548 0.110904 -0.11469
0.254101 0.210877 -0.316565
0.376544 0.0912511 -0.014102
0.253547 -0.217005 -0.213562
0.418372 0.0494901 -0.0392356
0.216938 0.307944 -0.263772
0.371702 0.0666519 -0.204024
0.193434 -0.0941219 -0.343003
0.0946852 0.310551 0.109695
-0.341198 -0.150237 0.301071
0.18685 0.0384432 -0.40146
0.169704 -0.061019 -0.368719
0.175983 -0.402184 0.0321243
0.127831 -0.0140824 0.348791
0.0709519 0.0130847 0.377588
0.119395 0.202485 0.236876
0.211232 -0.344578 -0.0636109
0.264986 -0.281545 -0.114333
0.0250918 0.0918429 0.336202
0.0540101 0.139005 0.29003
0.402757 -0.0315132 0.152409
0.421907 -0.139375 0.180144
0.434821 -0.0840504 0.14021
0.198005 -0.250704 0.422947
0.21007 -0.388736 0.22383
0.0892952 -0.390698 0.337304
0.0895936 -0.428382 0.23359
0.181361 -0.384888 0.275071
0.0812496 -0.285199 0.457207
0.10362 -0.166181 0.464526
0.437392 0.00268418 -0.120493
-0.138299 -0.375922 0.329765
0.229924 -0.282577 -0.152187
0.452971 -0.089392 0.00684106
0.438679 -0.139344 0.0430827
0.363 -0.215183 -0.0792026
0.0335047 -0.326591 0.431719
0.385668 -0.228848 0.0449055
0.298564 -0.300351 -0.0263595
0.344021 -0.282581 0.184649
0.245767 -0.333016 0.304013
0.279298 -0.331234 0.255008
0.117591 -0.415752 0.0219562
0.000425568 -0.390275 -0.0797575
-0.232499 0.172227 0.0607664
0.0260165 -0.435506 0.0441154
0.135948 0.0162822 -0.41417
0.0235483 -0.0948505 -0.379923
0.0294162 0.000307081 -0.433577
0.14274 -0.0958313 -0.356621
0.201351 -0.374075 -0.0139149
0.288978 -0.345451 0.0959226
0.197948 -0.406146 0.0897581
0.109575 -0.363133 0.37384
0.00115731 -0.355027 0.407783
-0.00977954 -0.38104 0.372713
0.0965889 -0.33237 0.414279
0.215286 -0.256998 -0.195888
0.218251 -0.313504 -0.11394
0.418264 -0.188194 0.0765232
0.44623 0.00781351 -0.0656655
0.0967506 0.0557721 -0.431292
0.186621 0.085797 -0.39487
0.216243 -0.0492674 -0.362026
0.306466 -0.0753647 -0.313886
0.248369 -0.0878299 -0.328874
0.235454 -0.176511 -0.263066
0.185203 -0.410402 0.180067
0.105828 -0.43594 0.121597
0.0719427 -0.440545 0.17077
0.203654 -0.335706 0.34599
0.255926 0.202164 0.00884955
0.155739 -0.341458 -0.106725
0.166811 -0.365375 -0.0539958
0.436703 -0.139597 0.110793
0.000620722 0.0988733 0.289534
0.253866 -0.341688 -0.0163421
-0.216874 0.210048 0.0294665
0.0544368 0.508556 -0.276928
0.0862717 0.461514 -0.308206
-0.0054433 0.420789 -0.329915
0.107754 0.403699 -0.318123
0.381824 -0.238542 0.166825
0.114779 0.508983 -0.0719607
0.413261 -0.190797 0.142443
0.00312394 0.493518 0.038549
0.00993833 0.52394 -0.0113993
0.102487 0.467633 0.0278552
0.00140667 0.355552 0.163964
0.155246 0.024294 0.318815
-0.0480266 0.279975 0.185336
0.00468772 0.15759 0.322041
0.182268 0.135924 0.141822
0.130746 0.156797 0.146412
0.337656 0.135084 -0.0341147
0.131556 0.503068 -0.194223
0.160629 0.456938 -0.238703
0.331158 0.0949429 -0.23019
-0.00145538 0.187533 -0.372819
-6.38966e-05 0.112018 -0.4351
0.222074 0.233748 -0.0335447
-0.156977 0.196533 0.0924806
-0.258658 0.276919 -0.327016
-0.273687 0.322213 -0.289632
0.266083 0.194714 -0.060386
-0.0264585 0.0267628 0.384789
0.243059 -0.38033 0.116868
-0.108852 0.0927214 0.210158
-0.228894 -0.212387 0.415454
-0.173317 -0.403822 0.220629
-0.122076 0.129556 0.170593
-0.28904 0.257369 -0.282705
-0.150934 -0.395953 0.27358
-0.122985 -0.243523 0.454215
-0.106795 -0.184963 0.467913
0.241629 -0.374814 0.0467894
-0.137108 0.160039 0.12969
-0.392039 -0.225115 0.0791809
-0.376273 -0.231119 0.0263441
-0.185821 0.297826 -0.013186
-0.0956973 -0.0555859 0.369312
0.0854585 -0.0967152 -0.368958
0.17797 -0.017883 -0.39102
-0.315481 -0.306347 0.0491385
-0.0628372 -0.0113902 0.368955
-0.139582 -0.0491872 0.341205
-0.3284 -0.299926 0.103756
-0.0945492 0.166987 0.283528
0.0829227 0.00133609 -0.424718
-0.0807572 0.235229 0.286679
-0.0330242 -0.444788 0.178187
0.106379 0.252362 -0.334766
-0.106354 0.06719 0.264624
-0.0600345 0.0862111 0.302786
-0.13008 -0.13203 0.436951
-0.112408 -0.243602 -0.246885
-0.0230669 0.0879983 0.355076
-0.0735084 0.0480029 0.358979
-0.00261758 -0.0439859 -0.411959
-0.041553 0.138802 0.291519
-0.0500471 0.190774 0.329533
-0.062939 -0.306243 -0.189525
-0.396101 -0.0311164 0.155112
-0.366265 -0.111781 0.253389
-0.22731 -0.267151 0.391767
-0.272518 -0.230039 0.375504
-0.26364 -0.282909 0.351203
-0.180336 -0.255307 0.427598
-0.080929 -0.335734 0.412947
-0.192309 -0.368316 0.302877
-0.0848573 -0.410903 0.291624
-0.186119 -0.341008 0.351251
-0.0569638 -0.180228 0.482647
-0.171353 -0.186271 0.441058
-0.0378084 -0.101794 0.434595
-0.44327 0.00630365 -0.0654436
-0.434039 0.00454065 -0.118025
-0.427933 -0.150571 0.0281228
-0.446992 -0.107359 0.0813597
-0.447869 -0.0951834 0.00334839
-0.424901 -0.0871242 0.153799
-0.4006 -0.190112 -0.0128318
-0.350507 -0.207553 -0.113921
-0.358362 -0.234149 -0.0276255
-0.385114 0.0131325 -0.270679
-0.31053 -0.243804 -0.112155
-0.266932 -0.344007 0.233291
-0.335708 -0.289759 0.160313
-0.259924 -0.359992 0.178828
0.0560418 -0.0469986 -0.402329
-0.0881654 -0.432204 0.0770542
-0.0925375 -0.414471 0.00924326
-0.0109533 -0.447676 0.134543
-0.134176 -0.195616 -0.283198
0.0191867 -0.240679 -0.270724
-0.121593 -0.115008 -0.348702
-0.203358 -0.402536 0.0849456
-0.195969 -0.391179 0.0198287
0.29645 0.169418 -0.106998
0.0827146 -0.431102 0.0638362
-0.00679332 -0.286742 -0.229931
0.0231305 -0.412337 -0.0204532
-0.0434915 -0.243223 -0.262289
-0.42736 -0.0261487 -0.165505
-0.240526 0.00170072 -0.379533
-0.0596029 -0.0329026 -0.409293
-0.205152 -0.11577 -0.322906
0.219235 0.186062 0.0572307
-0.290113 -0.339773 0.083815
-0.205056 -0.402832 0.159682
0.0160481 -0.419145 0.298468
-0.117031 -0.421598 0.229864
-0.00306404 -0.44238 0.220308
-0.0429198 0.070798 -0.442195
-0.0522278 0.12545 -0.420997
0.0156265 0.00320815 0.384755
0.144814 -0.389174 -0.0178533
-0.275866 0.184179 -0.0517013
-0.0915011 0.507677 -0.254601
-0.0406754 0.531313 -0.241803
-0.0807403 0.539456 -0.138649
-0.0507992 -0.0617723 0.391571
-0.0326341 0.552324 -0.105506
-0.00141007 -0.0701523 0.402903
0.0377998 -0.369348 -0.111546
-0.0647013 0.118419 0.24478
-0.0853121 0.531983 -0.199076
-0.13208 0.496439 -0.212866
0.0882361 -0.400301 -0.0243172
-0.171432 0.406745 -0.264865
-0.191616 0.386794 -0.199529
-0.139853 0.468988 -0.268579
-0.423209 -0.152452 0.144567
-0.406151 -0.195108 0.0416225
-0.139894 0.037506 -0.414724
-0.189757 0.406908 -0.135839
-0.0972407 0.0862357 -0.426321
-0.322255 -0.040681 -0.322142
0.0721758 0.360766 -0.329641
-0.0652661 0.435507 0.0754892
-0.100466 0.465861 0.0294147
-0.258523 0.130375 0.0980823
-0.12165 0.0587364 0.325864
-0.269642 -0.040838 -0.347347
-0.268204 -0.329147 0.27644
-0.19601 -0.383826 0.25892
-0.0868369 -0.43824 0.180468
-0.215367 -0.15785 -0.285571
-0.224107 -0.241795 -0.208142
-0.291809 -0.0867454 -0.312359
-0.0819571 0.0243078 -0.428015
-0.19993 0.0521044 -0.397438
-0.422703 -0.175865 0.0853678
-0.404259 -0.131537 0.205226
-0.3051 0.136032 -0.157093
-0.0153428 -0.0293977 0.359233
-0.0940853 0.176856 -0.367303
0.0112216 0.0545624 -0.445508
-0.117257 -0.287677 -0.199197
-0.00683647 -0.327341 -0.17715
-0.021677 -0.442412 0.0859657
-0.354532 -0.266554 0.0652314
-0.370833 -0.0378995 -0.285654
-0.367622 -0.258784 0.120758
-0.144052 0.156093 -0.368164
-0.0630518 -0.232174 0.476557
-0.269923 -0.208103 -0.208181
-0.0304048 0.469072 -0.310532
-0.035469 0.250598 0.323091
0.149787 -0.0900741 0.382895
-0.222623 -0.199301 -0.247446
-0.240435 0.186674 -0.300521
0.273767 -0.00010397 0.245732
-0.141103 -0.424111 0.173979
0.204436 0.340837 -0.210896
0.139098 0.440607 -0.287759
0.114685 0.493961 -0.261429
0.0514874 0.185308 0.326703
0.0116662 0.219265 0.357289
0.0178338 0.546837 -0.0693666
0.153538 0.384484 -0.293607
0.0165095 0.538095 -0.234659
-0.105953 -0.435177 0.135181
0.142956 0.118053 0.169432
-0.301702 -0.319779 0.197372
0.0564668 0.264402 0.197899
0.393123 -0.234034 0.105356
0.382056 -0.0196163 -0.283293
0.434119 -0.0345741 -0.158255
-0.219993 -0.305443 0.362545
-0.231214 -0.355763 0.269097
-0.237677 -0.326857 0.31818
-0.310001 0.130628 0.056922
0.251378 -0.258129 0.38553
0.098933 -0.185487 -0.301251
0.319105 -0.314123 0.140981
0.277839 -0.354479 0.156873
0.201283 -0.296609 0.386937
0.452948 -0.0874513 0.0740764
-0.27384 0.158781 0.0492809
0.0708094 0.0975434 0.252353
-0.0163227 0.318425 0.196963
-0.230419 0.221203 -0.0264378
0.0327231 -0.0401705 0.370235
0.133945 0.285534 0.0765737
0.0416883 0.328514 0.128582
0.322022 -0.290884 0.242877
-0.131293 0.187273 0.176875
0.272616 0.323335 -0.290041
-0.171439 0.450339 -0.137745
-0.176806 0.433929 -0.172662
0.110054 0.200639 0.121654
-0.053958 0.211245 -0.344426
-0.0526374 0.166206 -0.384816
-0.255226 0.14569 -0.260787
0.10499 0.10843 0.205279
-0.166802 0.447655 -0.216323
0.0662567 0.233798 0.325723
0.0965585 0.0755511 0.294984
0.247255 -0.0883027 0.321523
0.0484254 0.0876709 0.297066
0.0744513 -0.116351 0.443696
0.363755 -0.262629 0.0753675
0.111671 -0.285229 -0.205903
-4.63689e-05 -0.275999 0.473146
0.0749306 0.531378 -0.222271
0.0736685 0.539435 -0.0995108
0.0502597 0.464809 0.05856
0.0374896 0.418797 0.0935348
0.0963217 0.423916 0.0668138
0.0806003 0.542196 -0.161542
0.187995 0.405841 -0.222626
-0.319498 0.149918 -0.0363802
0.313432 -0.243381 -0.11411
0.272338 0.0378807 0.199333
0.374572 -0.224756 -0.0170755
0.294926 -0.280134 -0.0744376
-0.292906 -0.312519 -0.00526794
-0.150295 -0.365122 -0.0631748
-0.216146 -0.312782 -0.114134
-0.0214576 -0.144533 0.474439
-0.0232259 0.546063 -0.177245
-0.121888 0.418175 -0.305843
-0.0816909 0.320304 0.109729
0.341735 -0.272497 0.0201762
0.124093 0.204595 0.177673
-0.352491 0.118573 -0.0530755
-0.3389 0.124113 0.00594067
0.119605 0.371653 0.0398418
-0.0386725 -0.356383 0.399146
-0.0743366 -0.377289 0.362551
0.300141 -0.0823049 0.29067
-0.200593 0.322253 -0.204348
-0.0247434 -0.407548 0.325517
-0.112249 0.405984 0.0511484
0.0895097 0.306987 -0.332437
0.0773139 0.366764 0.0913464
-0.0583922 -0.432998 0.22986
0.00513551 0.238254 -0.348136
0.127779 0.336475 0.0784225
-0.0209816 -0.427335 0.271949
-0.223405 -0.377271 0.220778
-0.246445 -0.369746 0.055067
-0.25255 -0.370502 0.117576
-0.404213 -0.166866 -0.0613004
-0.165095 -0.105064 -0.343664
0.224389 -0.00772672 0.278945
-0.240154 -0.0808995 -0.334418
-0.0127567 0.151871 -0.406576
-0.144666 -0.0681826 -0.370788
0.342999 -0.167586 -0.196867
-0.181226 -0.0178264 -0.389029
-0.193226 -0.0717297 -0.354771
0.330547 -0.255439 -0.0480001
0.383646 0.0724265 -0.141414
-0.381856 0.0800446 -0.00366237
0.298341 0.0396659 -0.352875
0.318945 0.0817183 -0.290451
0.392596 -0.14161 -0.154687
-0.418676 0.045248 -0.0389073
-0.352635 0.112435 -0.116905
0.153175 -0.369857 0.331431
-0.297943 0.118801 -0.220407
0.178623 -0.0130174 0.313994
-0.306514 -0.247283 0.327804
0.272408 0.107677 0.112785
-0.261625 -0.0844494 0.310014
-0.149763 -0.421588 0.113145
-0.277025 0.00512285 0.220153
-0.243749 0.00792424 0.261298
-0.139606 -0.39333 -0.00995174
-0.13657 -0.0900899 0.387651
-0.146409 -0.412913 0.0480769
-0.30842 0.0398696 0.138319
-0.315385 0.00994059 0.185673
-0.241539 0.138816 -0.312933
-0.265984 0.178565 -0.129708
0.136126 0.46118 -0.00619111
-0.0911577 -0.0755378 -0.379673
0.14564 -0.290458 0.4237
-0.15975 -0.147824 -0.311007
-0.311692 -0.189791 0.344595
-0.430329 -0.084559 -0.128342
-0.400492 -0.131051 -0.152172
0.136471 -0.227507 0.451769
-0.0171165 -0.20766 -0.300658
0.00335498 -0.173937 -0.328256
-0.31659 -0.17287 -0.214337
-0.100431 -0.159979 -0.319783
-0.199274 0.00658019 0.290156
-0.0583447 -0.441674 0.131874
3 443 81 719
3 698 8 7
3 713 457 509
3 300 523 720
3 54 336 408
3 390 18 781
3 462 318 796
3 730 19 715
3 332 71 70
3 413 533 376
3 429 314 789
3 473 511 105
3 11 186 683
3 437 439 429
3 368 58 47
3 278 389 31
3 47 58 793
3 793 785 28
3 700 290 12
3 417 168 278
3 125 809 803
3 510 453 735
3 769 654 655
3 61 308 309
3 68 524 798
3 128 20 125
3 656 119 239
3 34 431 821
3 798 390 781
3 287 21 450
3 16 43 15
3 812 359 76
3 520 521 398
3 410 128 153
3 732 21 287
3 60 37 36
3 530 691 740
3 822 152 258
3 416 709 431
3 414 188 101
3 309 62 61
3 576 176 615
3 375 219 600
3 534 628 629
3 506 289 298
3 95 723 106
3 376 136 413
3 562 574 575
3 235 234 642
3 482 556 431
3 276 33 31
3 704 581 706
3 573 252 620
3 147 577 150
3 601 776 705
3 810 729 686
3 644 646 757
3 554 227 225
3 326 59 27
3 399 156 635
3 758 378 265
3 239 20 43
3 670 638 718
3 378 172 769
3 812 78 293
3 621 782 787
3 398 655 162
3 303 293 518
3 532 52 792
3 191 180 229
3 240 762 790
3 728 381 671
3 481 445 557
3 735 454 510
3 650 645 82
3 118 572 657
3 782 158 664
3 299 535 115
3 195 82 767
3 514 513 691
3 821 431 46
3 516 690 695
3 703 465 322
3 477 358 614
3 438 30 433
3 436 106 275
3 185 231 650
3 166 685 211
3 138 576 127
3 317 514 516
3 811 209 210
3 321 499 96
3 514 253 513
3 791 320 96
3 556 482 604
3 609 617 820
3 700 14 1
3 574 510 526
3 82 185 650
3 726 528 297
3 278 31 417
3 385 730 698
3 156 157 637
3 17 220 739
3 635 156 637
3 537 538 216
3 135 229 180
3 598 274 268
3 690 286 695
3 552 648 553
3 248 250 177
3 779 247 204
3 87 216 214
3 203 207 198
3 193 192 686
3 238 236 682
3 618 217 248
3 180 515 135
3 206 546 193
3 780 787 784
3 185 82 393
3 771 443 774
3 275 276 108
3 488 295 460
3 475 505 318
3 327 713 353
3 430 50 589
3 653 135 317
3 578 444 371
3 682 283 253
3 336 436 275
3 548 121 17
3 295 471 489
3 450 385 760
3 507 508 24
3 613 110 279
3 440 88 689
3 340 440 95
3 791 96 350
3 631 508 485
3 639 29 478
3 386 449 448
3 628 534 672
3 411 711 710
3 520 398 162
3 821 46 820
3 661 697 825
3 38 57 773
3 71 332 749
3 457 455 328
3 347 504 503
3 121 548 582
3 424 62 432
3 490 302 295
3 549 50 569
3 814 458 819
3 456 328 326
3 451 508 507
3 820 223 821
3 431 556 416
3 256 354 478
3 734 377 311
3 476 475 339
3 392 710 362
3 48 47 343
3 318 462 339
3 49 355 368
3 517 392 701
3 47 49 368
3 708 312 432
3 257 308 325
3 184 54 282
3 266 148 147
3 789 441 39
3 513 283 696
3 186 222 395
3 733 306 715
3 28 427 367
3 622 289 506
3 434 208 221
3 5 71 243
3 708 432 62
3 473 751 788
3 786 126 619
3 484 0 446
3 770 72 653
3 796 460 237
3 291 73 42
3 501 335 366
3 334 501 330
3 470 748 394
3 60 62 424
3 681 375 822
3 476 411 721
3 692 526 454
3 698 730 8
3 419 403 282
3 654 161 162
3 385 19 730
3 14 450 760
3 740 513 696
3 809 125 808
3 254 281 401
3 482 252 573
3 18 734 766
3 455 457 327
3 824 181 400
3 673 163 570
3 742 520 161
3 788 750 759
3 705 706 659
3 696 109 740
3 581 580 799
3 740 109 745
3 179 145 104
3 824 122 269
3 150 254 809
3 12 287 700
3 209 632 717
3 16 545 551
3 804 128 803
3 266 240 148
3 647 595 593
3 577 254 150
3 333 338 331
3 409 404 593
3 609 99 615
3 665 89 649
3 620 89 665
3 22 34 223
3 381 728 629
3 104 806 560
3 558 268 752
3 428 99 609
3 505 312 712
3 0 556 604
3 566 79 285
3 299 9 310
3 760 385 528
3 741 422 745
3 240 266 119
3 666 132 190
3 147 409 577
3 330 416 103
3 388 795 761
3 585 765 466
3 653 69 770
3 757 64 84
3 696 283 634
3 661 565 772
3 775 768 585
3 404 405 131
3 742 522 301
3 210 198 207
3 177 152 822
3 142 797 414
3 579 277 582
3 412 210 207
3 662 211 685
3 645 725 731
3 132 101 188
3 142 141 372
3 399 635 234
3 754 201 271
3 664 658 782
3 615 674 576
3 591 140 618
3 619 666 786
3 699 212 261
3 397 32 536
3 636 559 555
3 372 139 795
3 239 43 656
3 611 624 778
3 154 156 399
3 165 224 769
3 656 479 714
3 456 27 519
3 590 407 131
3 799 267 581
3 473 759 363
3 17 121 583
3 629 783 534
3 677 133 652
3 232 201 169
3 261 124 602
3 638 589 65
3 647 173 260
3 606 605 807
3 626 661 772
3 577 255 254
3 777 232 612
3 244 242 171
3 285 284 566
3 236 634 283
3 297 83 726
3 519 509 456
3 651 649 382
3 667 593 592
3 396 747 762
3 580 543 146
3 23 441 789
3 403 136 284
3 247 818 370
3 530 740 745
3 340 80 440
3 234 641 642
3 1 81 296
3 291 42 40
3 5 67 800
3 170 525 716
3 766 120 93
3 4 5 243
3 389 108 31
3 447 477 631
3 298 373 529
3 297 357 622
3 322 343 703
3 31 108 276
3 569 430 806
3 555 430 636
3 194 180 64
3 791 53 319
3 569 50 430
3 443 719 774
3 785 366 427
3 806 430 555
3 189 383 679
3 787 780 621
3 771 300 720
3 154 155 156
3 540 572 559
3 39 435 789
3 208 280 108
3 151 153 400
3 405 13 794
3 210 412 811
3 529 279 110
3 42 90 116
3 155 164 655
3 512 183 479
3 623 246 777
3 653 72 135
3 233 234 235
3 229 135 72
3 756 635 637
3 137 191 66
3 196 82 195
3 255 578 281
3 571 572 540
3 83 81 726
3 614 358 503
3 680 587 549
3 755 200 199
3 390 377 734
3 687 307 749
3 736 379 91
3 656 707 119
3 113 449 288
3 768 302 490
3 586 277 704
3 370 177 822
3 313 377 390
3 606 264 182
3 733 356 306
3 311 349 308
3 702 425 56
3 308 61 311
3 45 44 6
3 766 93 18
3 625 302 768
3 460 302 305
3 6 352 439
3 36 63 60
3 429 435 384
3 93 307 687
3 470 750 788
3 468 353 713
3 495 439 352
3 307 93 426
3 593 595 409
3 319 54 791
3 406 419 497
3 433 492 438
3 486 550 363
3 61 63 311
3 212 267 262
3 498 442 446
3 615 176 617
3 345 420 496
3 251 672 483
3 475 318 339
3 361 312 475
3 721 411 474
3 755 65 589
3 623 777 778
3 739 112 200
3 613 208 389
3 612 232 169
3 49 468 469
3 49 48 468
3 329 781 687
3 243 3 4
3 428 709 333
3 51 425 702
3 394 785 793
3 753 202 263
3 29 24 643
3 748 788 751
3 428 46 709
3 627 344 342
3 315 459 502
3 788 759 473
3 819 257 325
3 746 286 531
3 396 714 183
3 664 85 652
3 749 307 243
3 684 380 379
3 7 527 698
3 584 660 547
3 773 376 533
3 770 566 57
3 513 740 691
3 236 633 634
3 419 420 136
3 673 570 176
3 599 217 249
3 530 421 117
3 645 650 725
3 75 40 42
3 161 743 742
3 719 9 10
3 664 158 152
3 436 98 95
3 535 299 506
3 286 690 531
3 101 374 414
3 168 115 535
3 596 592 130
3 681 663 219
3 99 428 331
3 422 421 530
3 90 73 689
3 509 469 713
3 333 331 428
3 498 446 557
3 752 268 274
3 681 258 685
3 271 201 232
3 823 815 610
3 695 69 516
3 607 415 97
3 475 476 361
3 317 135 515
3 732 287 11
3 175 230 270
3 678 173 552
3 157 156 155
3 204 596 779
3 268 553 598
3 0 604 563
3 679 671 381
3 604 573 483
3 163 215 663
3 576 138 673
3 753 201 167
3 354 674 360
3 612 805 807
3 753 167 202
3 227 265 378
3 659 267 212
3 693 11 683
3 548 549 588
3 660 584 705
3 370 822 375
3 129 131 407
3 608 570 166
3 732 693 692
3 561 678 676
3 104 269 179
3 176 576 673
3 809 254 401
3 490 764 765
3 20 15 43
3 100 448 449
3 125 239 808
3 204 597 205
3 536 418 397
3 371 241 801
3 620 251 573
3 483 563 604
3 625 305 302
3 246 623 558
3 808 150 809
3 680 17 739
3 448 100 380
3 577 409 595
3 779 130 245
3 192 111 189
3 244 799 816
3 808 239 119
3 648 667 592
3 244 262 799
3 358 364 503
3 813 22 610
3 596 553 648
3 127 576 674
3 624 611 802
3 261 602 699
3 558 752 246
3 631 643 24
3 452 751 105
3 494 701 472
3 626 688 661
3 197 163 673
3 488 460 796
3 146 145 241
3 122 179 269
3 225 185 393
3 686 729 206
3 248 177 818
3 273 272 794
3 32 656 43
3 583 294 765
3 139 372 141
3 148 240 790
3 825 605 675
3 130 592 594
3 370 597 247
3 272 273 139
3 249 141 143
3 245 247 779
3 817 248 818
3 372 797 142
3 761 790 762
3 491 463 471
3 496 481 563
3 97 627 565
3 818 247 245
3 744 743 771
3 547 585 466
3 778 603 259
3 2 480 616
3 547 544 626
3 220 489 471
3 588 582 548
3 410 15 20
3 542 640 391
3 395 564 186
3 191 64 180
3 539 278 535
3 86 637 694
3 670 540 559
3 571 510 568
3 400 153 824
3 22 813 252
3 633 236 238
3 374 143 142
3 545 391 722
3 717 183 512
3 77 76 359
3 75 116 423
3 441 23 51
3 758 175 174
3 421 116 117
3 225 92 185
3 575 574 526
3 641 633 642
3 545 542 391
3 549 548 680
3 64 74 84
3 301 522 293
3 538 214 216
3 74 64 191
3 533 727 773
3 102 276 106
3 546 203 538
3 357 297 527
3 356 304 306
3 739 471 463
3 645 87 767
3 228 226 554
3 490 765 768
3 26 474 517
3 486 711 541
3 674 354 127
3 825 565 661
3 759 750 472
3 214 538 203
3 796 318 505
3 472 737 759
3 757 84 644
3 317 516 653
3 820 46 609
3 79 69 80
3 231 233 724
3 423 116 421
3 359 812 522
3 33 102 689
3 564 562 575
3 502 347 364
3 70 71 800
3 622 506 299
3 551 32 16
3 409 147 149
3 522 812 293
3 487 358 447
3 183 632 396
3 550 447 485
3 717 632 183
3 77 292 40
3 774 763 771
3 737 362 759
3 791 54 792
3 525 174 178
3 39 441 532
3 79 340 285
3 95 98 340
3 401 123 803
3 719 10 774
3 640 542 567
3 430 589 636
3 737 472 701
3 571 453 510
3 295 488 491
3 625 768 775
3 402 146 543
3 577 595 255
3 67 289 800
3 668 647 260
3 612 169 805
3 348 360 351
3 99 331 738
3 590 591 407
3 483 573 251
3 484 103 416
3 249 217 618
3 658 126 782
3 414 797 729
3 412 207 206
3 599 374 133
3 123 401 281
3 803 123 804
3 677 217 599
3 709 46 431
3 145 179 801
3 698 528 385
3 501 365 330
3 435 221 279
3 672 251 628
3 687 749 329
3 281 254 255
3 816 444 244
3 610 815 780
3 383 137 727
3 607 565 825
3 661 688 697
3 169 201 753
3 362 710 486
3 602 561 259
3 205 274 598
3 381 629 651
3 784 787 786
3 608 815 823
3 5 4 67
3 267 706 581
3 262 267 799
3 205 598 204
3 85 152 177
3 250 217 677
3 404 131 594
3 35 717 228
3 186 564 683
3 804 123 122
3 517 519 27
3 585 772 775
3 17 680 548
3 100 449 718
3 242 444 578
3 213 271 274
3 213 274 600
3 140 249 618
3 445 497 319
3 519 517 701
3 467 452 493
3 333 365 338
3 630 540 670
3 686 189 810
3 325 308 349
3 245 130 129
3 805 263 606
3 461 344 504
3 567 400 657
3 178 174 175
3 716 290 523
3 363 550 511
3 568 567 657
3 461 342 344
3 439 437 6
3 265 226 230
3 339 462 459
3 763 77 359
3 563 346 496
3 756 109 696
3 660 705 776
3 382 381 651
3 136 403 419
3 738 348 351
3 214 198 767
3 359 522 744
3 284 41 403
3 97 565 607
3 513 253 283
3 628 251 665
3 283 682 236
3 616 264 478
3 532 441 52
3 10 115 292
3 556 0 484
3 73 291 417
3 351 615 99
3 352 6 44
3 802 688 624
3 691 530 531
3 523 300 159
3 418 536 230
3 461 237 305
3 719 83 9
3 285 340 98
3 222 186 12
3 537 192 193
3 199 464 736
3 650 231 724
3 116 75 42
3 773 66 38
3 637 157 694
3 458 814 712
3 720 443 771
3 86 741 745
3 516 69 653
3 690 516 514
3 467 341 492
3 304 356 68
3 734 63 766
3 30 366 785
3 43 16 32
3 387 462 237
3 11 693 732
3 783 533 413
3 174 170 758
3 55 425 703
3 616 29 643
3 389 539 613
3 62 309 708
3 508 451 485
3 464 199 112
3 477 2 643
3 643 631 477
3 823 94 608
3 534 345 672
3 218 87 84
3 355 469 494
3 114 6 437
3 427 366 335
3 413 136 420
3 738 351 99
3 485 447 631
3 706 584 586
3 352 353 323
3 751 452 748
3 56 55 28
3 749 332 329
3 755 50 587
3 749 243 71
3 672 345 346
3 486 710 711
3 280 434 408
3 440 689 102
3 746 90 689
3 44 353 352
3 471 739 220
3 386 356 733
3 473 105 751
3 671 727 728
3 229 38 66
3 605 606 182
3 436 41 98
3 72 770 57
3 459 315 337
3 366 30 438
3 788 748 470
3 298 289 373
3 440 80 88
3 494 469 509
3 315 316 541
3 48 322 323
3 330 103 334
3 527 7 70
3 288 733 735
3 427 28 785
3 824 153 804
3 448 380 313
3 710 474 411
3 712 312 708
3 468 323 353
3 323 322 495
3 448 313 798
3 715 454 735
3 18 390 734
3 684 379 324
3 124 173 678
3 159 170 523
3 612 611 777
3 609 46 428
3 270 230 536
3 817 618 248
3 501 334 335
3 45 114 4
3 243 307 3
3 45 4 3
3 247 597 204
3 525 222 716
3 733 288 386
3 559 118 555
3 531 690 691
3 607 825 675
3 95 440 723
3 502 316 315
3 103 442 334
3 112 199 200
3 112 819 464
3 532 408 434
3 343 793 55
3 708 458 712
3 312 505 475
3 299 310 622
3 373 289 67
3 30 394 748
3 276 102 33
3 445 406 497
3 328 456 457
3 451 493 105
3 481 406 445
3 485 511 550
3 511 473 363
3 487 541 316
3 470 368 750
3 541 550 486
3 744 771 763
3 284 376 566
3 711 315 541
3 503 415 614
3 614 2 477
3 431 34 482
3 94 823 223
3 115 9 299
3 313 390 798
3 744 742 743
3 608 94 570
3 296 290 700
3 128 410 20
3 121 277 294
3 685 258 662
3 775 772 627
3 695 286 88
3 249 143 599
3 353 44 327
3 667 648 552
3 209 196 195
3 25 361 721
3 769 224 378
3 458 309 257
3 8 306 304
3 466 294 586
3 63 61 60
3 739 200 680
3 91 65 736
3 119 266 808
3 45 6 114
3 798 524 448
3 745 109 86
3 137 383 111
3 362 737 392
3 47 48 49
3 459 337 339
3 335 367 427
3 367 56 28
3 527 528 698
3 54 408 792
3 27 456 326
3 313 380 684
3 494 509 519
3 197 138 167
3 570 94 617
3 184 403 41
3 105 511 451
3 736 65 199
3 59 424 25
3 675 415 607
3 486 363 362
3 314 429 439
3 634 633 641
3 319 53 445
3 70 7 332
3 72 38 229
3 187 562 564
3 376 284 136
3 105 493 452
3 298 539 506
3 529 384 279
3 426 93 120
3 702 96 320
3 619 126 658
3 789 314 23
3 499 367 335
3 498 557 53
3 815 662 621
3 321 96 702
3 341 738 338
3 316 364 487
3 305 342 461
3 601 603 776
3 26 27 59
3 624 688 544
3 36 37 326
3 59 25 26
3 638 636 589
3 649 666 382
3 800 71 5
3 426 328 455
3 329 68 781
3 311 63 734
3 112 463 819
3 628 665 651
3 376 773 57
3 191 137 74
3 278 168 535
3 170 174 525
3 763 10 77
3 763 359 744
3 472 355 494
3 518 293 78
3 767 87 214
3 303 518 741
3 293 303 301
3 642 646 731
3 14 287 450
3 528 527 297
3 157 155 398
3 39 221 435
3 495 314 439
3 574 562 640
3 417 31 33
3 630 449 113
3 720 523 290
3 491 471 295
3 309 308 257
3 421 422 423
3 90 42 73
3 206 207 546
3 165 164 92
3 355 49 469
3 652 133 134
3 463 112 739
3 722 391 187
3 703 425 23
3 101 134 133
3 45 455 327
3 504 347 461
3 95 106 436
3 384 529 437
3 253 515 682
3 73 417 33
3 101 132 134
3 408 336 280
3 368 470 58
3 434 221 39
3 738 331 338
3 348 738 341
3 304 332 8
3 638 91 718
3 575 526 693
3 360 348 107
3 317 515 253
3 807 805 606
3 785 394 30
3 616 643 2
3 111 218 74
3 510 454 526
3 478 354 639
3 68 356 524
3 362 363 759
3 347 502 387
3 349 324 325
3 165 92 224
3 683 575 693
3 349 311 377
3 181 657 400
3 572 568 657
3 567 151 400
3 324 349 684
3 53 350 498
3 627 342 775
3 355 472 750
3 296 81 443
3 32 397 479
3 543 582 588
3 543 588 402
3 794 272 590
3 373 437 529
3 796 369 488
3 492 365 438
3 144 569 806
3 699 259 603
3 582 277 121
3 332 304 329
3 153 128 804
3 684 377 313
3 68 329 304
3 374 599 143
3 192 189 686
3 799 580 816
3 750 368 355
3 692 21 732
3 649 651 665
3 625 342 305
3 552 173 667
3 171 242 260
3 81 1 726
3 401 803 809
3 674 351 360
3 260 124 171
3 350 499 500
3 483 346 563
3 802 611 807
3 215 163 197
3 775 342 625
3 100 91 379
3 678 602 124
3 663 166 163
3 701 392 737
3 447 358 477
3 134 619 658
3 142 143 141
3 744 522 742
3 716 222 12
3 784 610 780
3 679 381 382
3 787 126 786
3 762 707 396
3 754 167 201
3 271 232 752
3 703 343 55
3 150 266 147
3 90 746 117
3 140 139 141
3 76 78 812
3 712 369 505
3 295 489 490
3 670 636 638
3 656 32 479
3 806 104 144
3 453 288 735
3 448 524 386
3 566 770 79
3 735 733 715
3 231 164 154
3 461 347 387
3 774 10 763
3 64 757 194
3 655 398 155
3 162 161 520
3 637 86 756
3 196 35 393
3 634 641 756
3 551 545 722
3 41 436 184
3 280 208 434
3 441 51 52
3 395 222 525
3 758 159 172
3 587 50 549
3 721 361 476
3 291 168 417
3 807 611 612
3 654 162 655
3 393 35 554
3 160 161 654
3 492 341 338
3 536 32 551
3 526 692 693
3 147 148 149
3 242 244 444
3 559 636 670
3 644 84 87
3 92 225 224
3 321 367 499
3 223 820 94
3 579 580 581
3 371 444 241
3 546 207 203
3 697 688 802
3 706 705 584
3 195 210 209
3 466 584 547
3 343 322 48
3 605 697 802
3 350 53 791
3 35 209 717
3 218 111 192
3 237 462 796
3 795 669 372
3 75 423 78
3 192 216 218
3 34 22 252
3 335 500 499
3 282 497 419
3 596 204 598
3 74 137 111
3 811 669 388
3 213 219 215
3 722 270 551
3 683 564 575
3 388 632 811
3 512 418 228
3 600 205 597
3 171 261 262
3 296 443 720
3 78 76 75
3 659 601 705
3 596 598 553
3 813 784 89
3 190 188 810
3 378 758 172
3 184 436 336
3 73 33 689
3 301 303 521
3 87 218 216
3 66 727 137
3 117 746 531
3 496 420 406
3 707 762 240
3 505 369 796
3 557 445 53
3 282 403 184
3 543 579 582
3 578 255 668
3 466 765 294
3 588 569 144
3 668 255 595
3 282 54 319
3 128 125 803
3 263 202 256
3 720 290 296
3 676 558 561
3 107 24 29
3 271 213 754
3 144 402 588
3 623 778 259
3 414 374 142
3 731 644 645
3 87 645 644
3 396 632 747
3 762 747 761
3 375 600 597
3 632 209 811
3 190 382 666
3 694 157 521
3 269 560 181
3 438 365 501
3 418 230 226
3 111 383 189
3 504 97 415
3 97 344 627
3 547 626 585
3 704 277 579
3 341 507 348
3 718 449 630
3 786 89 784
3 127 354 256
3 334 442 500
3 416 330 709
3 621 780 815
3 129 407 817
3 555 118 560
3 676 268 558
3 579 581 704
3 754 213 215
3 258 158 662
3 166 211 608
3 652 85 677
3 424 37 60
3 594 129 130
3 779 596 130
3 131 129 594
3 753 263 805
3 617 94 820
3 761 273 790
3 295 302 460
3 491 369 814
3 544 547 660
3 259 699 602
3 816 146 241
3 647 668 595
3 134 658 652
3 182 675 605
3 321 56 367
3 469 468 713
3 702 56 321
3 100 379 380
3 651 629 628
3 338 365 492
3 391 640 562
3 187 564 395
3 170 159 758
3 554 226 227
3 619 134 132
3 685 166 663
3 266 150 808
3 795 139 273
3 420 419 406
3 257 819 458
3 132 188 190
3 496 406 481
3 301 520 742
3 610 784 813
3 515 194 682
3 765 764 583
3 305 237 460
3 227 224 225
3 394 58 470
3 195 198 210
3 113 453 571
3 333 330 365
3 718 91 100
3 177 250 85
3 600 219 213
3 602 678 561
3 260 242 668
3 558 623 561
3 532 434 39
3 601 659 212
3 672 346 483
3 57 38 72
3 352 323 495
3 539 110 613
3 340 79 80
3 190 189 679
3 743 300 771
3 743 160 300
3 40 76 77
3 422 530 745
3 24 508 631
3 810 188 414
3 666 649 786
3 300 160 159
3 19 450 21
3 284 285 41
3 98 41 285
3 22 223 823
3 172 654 769
3 794 790 273
3 287 12 11
3 594 593 404
3 731 725 235
3 298 110 539
3 769 655 165
3 621 662 158
3 154 233 231
3 615 351 674
3 614 480 2
3 691 690 514
3 66 191 229
3 117 116 90
3 10 292 77
3 553 268 676
3 412 669 811
3 673 138 197
3 624 603 778
3 238 194 757
3 36 120 766
3 731 235 642
3 113 571 540
3 369 491 488
3 339 337 476
3 723 440 102
3 326 37 59
3 4 114 67
3 694 521 303
3 392 517 474
3 357 289 622
3 766 63 36
3 495 322 465
3 487 447 550
3 507 24 107
3 314 495 465
3 437 373 114
3 573 604 482
3 275 108 280
3 52 51 320
3 723 102 106
3 519 701 494
3 58 394 793
3 18 93 687
3 467 433 452
3 166 570 163
3 83 719 81
3 386 288 449
3 432 361 25
3 728 727 533
3 364 316 502
3 490 489 764
3 309 458 708
3 509 457 456
3 814 463 491
3 320 51 702
3 263 264 606
3 615 617 609
3 27 26 517
3 324 379 736
3 478 264 256
3 468 48 323
3 484 446 442
3 500 335 334
3 497 282 319
3 478 29 616
3 560 118 181
3 259 561 623
3 55 56 425
3 364 358 487
3 539 389 278
3 709 330 333
3 109 756 86
3 699 603 601
3 171 124 261
3 59 37 424
3 26 25 721
3 464 324 736
3 325 464 819
3 411 476 337
3 312 361 432
3 426 120 328
3 28 55 793
3 45 3 455
3 696 634 756
3 716 523 170
3 260 173 124
3 21 692 454
3 568 572 571
3 464 325 324
3 371 281 578
3 793 343 47
3 18 687 781
3 760 1 14
3 387 459 462
3 104 145 144
3 113 540 630
3 357 70 800
3 479 183 714
3 555 560 806
3 552 553 676
3 668 242 578
3 630 670 718
3 19 454 715
3 801 123 371
3 776 544 660
3 152 85 664
3 586 294 277
3 384 437 429
3 707 656 714
3 542 15 151
3 454 19 21
3 233 235 724
3 256 202 127
3 387 237 461
3 80 69 695
3 748 433 30
3 175 270 178
3 306 8 730
3 397 418 512
3 172 159 160
3 92 164 231
3 297 310 83
3 141 249 140
3 554 225 393
3 193 546 537
3 632 388 747
3 792 52 320
3 154 399 233
3 452 433 748
3 192 537 216
3 725 724 235
3 231 185 92
3 700 1 296
3 493 507 341
3 783 629 728
3 518 78 423
3 164 155 154
3 265 230 175
3 218 84 74
3 694 303 741
3 172 160 654
3 292 115 168
3 689 88 746
3 646 644 731
3 286 746 88
3 206 193 686
3 252 482 34
3 741 86 694
3 767 198 195
3 202 167 138
3 682 194 238
3 727 671 383
3 563 481 0
3 620 252 813
3 646 238 757
3 234 233 399
3 420 345 413
3 767 82 645
3 617 176 570
3 108 389 208
3 157 398 521
3 376 57 566
3 534 783 413
3 69 79 770
3 40 292 291
3 228 554 35
3 800 289 357
3 496 346 345
3 164 165 655
3 40 75 76
3 121 294 583
3 446 0 557
3 792 408 532
3 641 234 635
3 622 310 297
3 275 280 336
3 792 320 791
3 700 287 14
3 385 450 19
3 756 641 635
3 562 187 391
3 512 228 717
3 789 435 429
3 695 88 80
3 608 211 815
3 168 291 292
3 665 251 620
3 529 110 298
3 197 167 754
3 568 574 640
3 15 542 545
3 423 422 518
3 589 50 755
3 227 226 265
3 327 44 45
3 512 479 397
3 139 140 272
3 640 567 568
3 591 272 140
3 395 525 178
3 518 422 741
3 797 669 412
3 484 416 556
3 821 223 34
3 119 707 240
3 587 680 200
3 404 409 149
3 627 772 565
3 675 182 480
3 281 371 123
3 663 215 219
3 67 114 373
3 453 113 288
3 151 15 410
3 70 357 527
3 572 118 559
3 125 20 239
3 801 122 123
3 115 10 9
3 790 13 148
3 226 228 418
3 586 584 466
3 804 122 824
3 127 202 138
3 224 227 378
3 568 510 574
3 712 814 369
3 83 310 9
3 12 290 716
3 145 146 402
3 122 801 179
3 765 585 768
3 51 23 425
3 772 585 626
3 662 815 211
3 241 444 816
3 549 569 588
3 624 544 776
3 11 12 186
3 332 7 8
3 480 614 415
3 314 465 23
3 626 544 688
3 215 197 754
3 776 603 624
3 752 232 246
3 15 545 16
3 187 178 722
3 703 23 465
3 178 187 395
3 760 726 1
3 274 205 600
3 592 596 648
3 35 196 209
3 646 642 633
3 393 82 196
3 219 375 681
3 657 181 118
3 107 639 360
3 412 729 797
3 474 26 721
3 217 250 248
3 818 177 370
3 781 68 798
3 245 129 817
3 616 480 182
3 258 152 158
3 253 514 317
3 724 725 650
3 442 103 484
3 677 85 250
3 538 537 546
3 557 0 481
3 256 264 263
3 761 747 388
3 621 158 782
3 258 681 822
3 550 541 487
3 442 498 500
3 515 180 194
3 590 405 794
3 535 506 539
3 531 530 117
3 592 593 594
3 760 528 726
3 671 679 383
3 269 181 824
3 503 364 347
3 273 761 795
3 161 160 743
3 412 206 729
3 810 189 190
3 817 407 618
3 795 388 669
3 276 275 106
3 586 704 706
3 279 384 435
3 60 61 62
3 560 269 104
3 424 432 25
3 265 175 758
3 270 536 551
3 752 274 271
3 326 120 36
3 730 715 306
3 350 96 499
3 337 711 411
3 685 663 681
3 819 463 814
3 542 151 567
3 208 613 221
3 489 220 764
3 336 54 184
3 605 802 807
3 639 107 29
3 813 89 620
3 221 613 279
3 500 498 350
3 664 652 658
3 533 783 728
3 474 710 392
3 597 370 375
3 619 132 666
3 605 825 697
3 782 126 787
3 459 387 502
3 337 315 711
3 501 366 438
3 679 382 190
3 524 356 386
3 413 345 534
3 182 264 616
3 818 245 817
3 684 349 377
3 328 120 326
3 426 3 307
3 610 22 823
3 580 579 543
3 504 344 97
3 199 65 755
3 153 151 410
3 801 241 145
3 272 591 590
3 816 580 146
3 485 451 511
3 677 599 133
3 149 13 405
3 89 786 649
3 805 169 753
3 587 200 755
3 722 178 270
3 714 396 707
3 794 13 790
3 426 455 3
3 374 101 133
3 492 433 467
3 797 372 669
3 131 405 590
3 633 238 646
3 327 457 713
3 107 348 507
3 503 504 415
3 148 13 149
3 507 493 451
3 360 639 354
3 777 246 232
3 402 144 145
3 267 659 706
3 593 667 647
3 262 261 212
3 480 415 675
3 618 407 591
3 203 198 214
3 729 810 414
3 601 212 699
3 521 520 301
3 676 678 552
3 727 66 773
3 667 173 647
3 91 638 65
3 149 405 404
3 778 777 611
3 262 244 171
3 583 764 220
3 341 467 493
3 583 220 17
