ply
format ascii 1.0
element vertex 14
property float x
property float y
property float z
element face 24
property list uchar int vertex_indices
end_header
-0.5 -0.5 -0.5
0.5 -0.5 -0.5
0.5 0.5 -0.5
-0.5 0.5 -0.5
-0.5 -0.5 0.5
0.5 -0.5 0.5
0.5 0.5 0.5
-0.5 0.5 0.5
0 -0.5 0
0.5 0 0
0 0 0.5
0 0 -0.5
0 0.5 0
-0.5 0 0
3 0 8 1
3 1 8 5
3 5 8 4
3 4 8 0
3 3 2 12
3 12 2 6
3 6 7 12
3 12 7 3
3 3 13 0
3 0 13 4
3 4 13 7
3 7 13 3
3 1 5 9
3 9 5 6
3 6 2 9
3 9 2 1
3 0 1 11
3 11 1 2
3 2 3 11
3 11 3 0
3 4 10 5
3 5 10 6
3 6 10 7
3 7 10 4
