ply
format ascii 1.0
element vertex 638
property float x
property float y
property float z
element face 1272
property list uchar int vertex_indices
end_header
0.0108696 -0.324027 0.444148
0.448586 -0.015426 0.320442
0.453948 -0.0209457 -0.315258
-0.448474 0.000365474 -0.320048
-0.452597 0.0126446 0.322844
-0.328259 0.432941 0.0265246
0.320898 0.44568 -0.0270962
0.330635 -0.426705 0.0415406
-0.305351 -0.46274 0.0278319
0.00730424 -0.329705 -0.445471
0.00931828 0.320755 -0.456601
-0.00186555 0.312282 0.461333
0.491661 0.00199721 -0.000283835
-0.491149 0.00433754 0.00320135
0.00551203 0.491136 -0.00372692
0.00231026 -0.0138739 0.492208
0.00167376 0.00521492 -0.490064
0.00422101 -0.489424 0.00995692
0.398407 0.232096 0.17001
-0.168686 0.387132 -0.247444
0.163131 0.393767 -0.244381
-0.265676 0.154763 0.378262
0.229621 0.156307 0.406006
0.17654 0.410634 0.213518
-0.244423 -0.165404 0.392585
0.249082 -0.166808 0.384543
-0.39073 0.27399 0.115595
-0.174784 -0.405448 0.220164
0.122886 -0.402333 0.254007
0.393336 -0.263613 0.126572
0.171546 -0.395474 -0.233654
-0.131763 0.397526 0.257659
-0.403948 -0.223292 0.173318
-0.167816 -0.370795 -0.266812
0.165821 -0.34033 0.306526
0.400669 0.251968 -0.135222
-0.39223 -0.264287 -0.1366
-0.272452 -0.151287 -0.376812
0.224091 -0.181827 -0.398962
0.410062 -0.21519 -0.171192
-0.409506 0.217678 -0.17
0.256831 0.168912 -0.376885
-0.222164 0.330891 0.258637
0.316309 0.257738 -0.237423
-0.265635 0.223828 -0.32213
0.229541 0.322352 0.25965
0.255945 -0.239027 -0.315531
-0.310414 -0.294586 -0.206315
0.214415 -0.325216 0.2719
-0.321412 -0.252267 0.237101
-0.431312 0.183079 -0.064756
0.43355 -0.177322 -0.0633762
0.193957 -0.0923508 -0.427627
0.0691568 -0.43444 -0.175379
0.42916 0.189758 0.0616502
0.0665124 0.430041 0.187724
-0.0713134 -0.429972 0.18704
0.18793 0.038834 0.429343
-0.189354 0.141358 -0.427257
-0.201805 -0.0630746 0.424779
-0.0462836 0.41988 -0.214908
-0.431791 -0.181928 0.0648986
0.491993 -0.0121957 0.171374
-0.16396 -0.492817 0.00617858
0.181659 -0.489517 0.0237985
0.00976653 0.189716 -0.493151
0.00129972 -0.187448 -0.495091
0.00115213 -0.177522 0.494177
-0.00519359 0.155809 0.493267
-0.174271 0.492295 0.0104682
0.177195 0.491753 -0.0133206
-0.489823 0.0203567 0.181806
-0.493322 -0.00702486 -0.167837
0.493005 0.00968023 -0.169383
-0.0885467 0.451201 -0.135417
0.0490133 0.365471 0.353083
0.379716 0.080788 -0.343676
0.201459 -0.285253 -0.324575
0.324552 0.404518 -0.0837332
-0.145903 -0.255352 -0.409286
-0.198114 0.294323 0.319711
-0.101464 0.25484 -0.4491
0.267932 -0.436461 -0.104153
-0.0661235 0.450784 0.134401
0.0854726 -0.361433 -0.347244
0.428845 0.140918 -0.233629
0.317197 -0.231653 0.262713
0.451767 -0.131978 0.0663301
0.0698639 -0.330214 0.40738
-0.432977 -0.136654 -0.233116
0.220199 -0.422704 0.159288
-0.294688 0.305501 -0.211906
-0.214682 -0.287501 0.309688
-0.342581 0.116252 -0.345994
-0.335476 0.386915 0.0852131
-0.123593 0.139319 -0.456009
-0.416924 0.171139 0.215956
-0.443624 -0.105955 0.255754
0.450237 0.135919 -0.070376
-0.138901 -0.0881373 -0.449803
-0.122531 -0.251331 0.432266
-0.246201 -0.442937 -0.113629
-0.352451 -0.0699635 0.361566
0.458357 -0.114056 -0.0927776
0.116666 0.224061 0.452228
0.281886 0.329927 0.200648
-0.447843 0.1422 0.0664682
0.348436 0.110612 0.346764
0.295637 -0.310157 -0.206624
0.455386 0.123203 0.093763
0.459023 -0.101207 -0.237008
0.113799 0.329651 0.36729
0.116387 -0.257595 -0.433875
0.229807 0.437061 -0.135772
0.130726 -0.0879527 0.452483
0.0848689 0.449465 -0.137718
-0.265444 -0.339009 -0.206993
0.445101 0.112128 0.246887
-0.138131 -0.0954378 0.449147
0.364303 0.345818 0.0701494
-0.361505 -0.332036 0.1062
-0.096511 -0.452744 0.128137
-0.37046 0.329965 -0.077429
0.203401 0.0540131 -0.424022
-0.238403 -0.277895 -0.294144
0.10579 -0.458076 -0.117775
-0.401823 -0.0549451 -0.341917
0.431466 -0.145455 0.224659
-0.202283 0.271623 -0.33871
-0.232342 -0.455534 0.109016
-0.0688929 -0.457353 -0.117624
-0.328928 0.240312 0.242442
-0.0344588 -0.414908 -0.226143
0.1238 -0.241114 0.438941
0.133675 -0.113425 -0.451488
0.30261 0.207401 0.301287
0.254608 0.444422 0.106082
0.203638 0.296468 -0.311183
-0.127364 0.233634 0.440066
-0.45622 0.11964 -0.0923363
-0.258028 0.43237 -0.116806
0.12265 0.0738209 0.454934
0.0991867 0.456976 0.119421
0.276684 0.356258 -0.178975
-0.332526 -0.195556 0.283913
-0.223726 0.429122 0.148648
0.334165 -0.377998 0.0982513
0.138692 0.0950994 -0.449853
-0.0825032 -0.366855 0.335617
-0.455018 0.109175 -0.234728
-0.38766 0.0974932 0.326838
-0.451782 -0.132255 -0.0669478
0.373009 -0.32729 -0.0697686
-0.0776642 0.357112 -0.358327
0.330366 -0.105886 -0.361816
0.0715005 -0.449438 0.137281
-0.457904 -0.117124 0.0988615
-0.140354 0.0642788 0.448709
0.374637 -0.113088 0.325735
0.126677 0.2526 -0.427926
-0.0827885 -0.339076 -0.383302
-0.206229 -0.0409984 -0.422953
0.440511 0.0639228 -0.296789
0.481903 -0.0176928 0.259023
0.345883 0.405851 0.0229167
0.35601 -0.386874 -0.0163784
0.43807 -0.0840559 0.286939
-0.441991 0.0683288 0.300403
-0.486057 -0.0064081 -0.254148
-0.352175 0.39043 -0.0287181
-0.451486 -0.0685874 -0.285271
-0.289598 -0.437659 0.0883347
-0.281627 0.440443 0.0880847
0.260354 0.482969 -0.0188891
0.056291 0.327529 0.4205
0.276937 0.450078 -0.0819207
-0.0291553 0.341655 -0.414439
0.0640411 0.29508 -0.450069
-0.00652235 -0.277461 -0.481865
0.395647 -0.0613575 -0.343711
-0.0483158 -0.319549 -0.439653
-0.407961 0.0687073 -0.327935
-0.287147 -0.465265 -0.0420206
0.269555 -0.474551 0.0350192
0.0439482 -0.345204 -0.40167
0.280306 -0.431949 0.101678
-0.037999 -0.346912 0.398158
0.0664642 -0.285231 0.455232
-0.00361889 0.243744 0.490157
0.393557 0.0353654 0.347539
-0.0627472 0.276789 0.464263
-0.411255 -0.0253441 0.343589
0.487484 0.00390709 -0.25476
0.351889 0.395026 -0.0364191
0.361172 -0.370661 0.0438549
-0.481032 0.019593 0.269259
-0.359617 0.377494 0.0309813
-0.334864 -0.428554 -0.0173407
-0.26454 0.479004 0.0193469
-0.00855282 0.350313 0.402764
0.0403143 0.342966 -0.406307
0.00312514 -0.263616 0.484898
0.313672 0.0597936 0.381692
-0.405813 0.0392303 0.344449
0.0113629 0.269479 -0.485248
0.396407 0.0143033 -0.351148
-0.394096 0.00679799 -0.354258
-0.244907 -0.49006 0.0114009
-0.0195223 -0.351732 -0.396032
0.0216883 -0.354375 0.39184
0.457069 0.0471238 0.293238
0.478656 0.0625257 0.0472796
0.113797 0.281629 0.420534
-0.303852 0.448011 -0.0442922
-0.0417743 0.477007 -0.0682427
-0.431244 0.104574 -0.280828
0.379317 0.137585 -0.300526
0.0444275 0.475373 -0.0718749
0.373781 0.342626 -0.00816646
0.381569 -0.320938 0.00728863
-0.0700538 0.0138423 0.475533
-0.379332 0.326783 -0.00246408
0.059357 0.273113 0.467373
0.0620779 0.0305529 0.478588
0.360789 0.211688 0.240367
0.297873 0.458107 0.0399078
0.0528395 0.479544 0.0587119
0.343776 0.280427 0.18861
-0.0559282 -0.29664 0.450487
-0.0444286 -0.0540962 0.485605
-0.381667 -0.31909 0.0355596
0.39524 -0.0486812 0.346556
0.0655049 -0.0499468 0.477888
-0.391899 -0.123339 -0.302491
-0.343743 -0.396158 0.0503825
-0.475119 0.0726741 0.0369874
-0.308755 0.192313 0.31129
-0.260496 -0.475149 0.0630607
-0.040185 -0.471982 0.0789212
-0.231183 -0.226169 0.355528
-0.307108 -0.380721 0.126957
0.042903 -0.474238 0.0743227
0.221691 -0.232868 0.35796
-0.28711 0.382319 0.146792
0.478034 -0.064444 0.0340306
0.283838 -0.201346 0.326902
0.312205 -0.448079 -0.0298166
0.0489668 -0.477791 -0.0614144
0.437858 -0.0852077 -0.294672
-0.052475 0.325844 0.432303
-0.0315242 0.477723 0.065302
-0.234975 0.228223 0.349775
-0.458762 -0.0417581 0.299246
-0.480121 -0.0564085 0.0522116
-0.289476 -0.181803 0.341703
-0.0266987 0.37694 0.332856
-0.0363923 -0.480751 -0.0540621
0.166604 0.27561 0.371672
-0.043856 0.297463 -0.461275
-0.0783505 0.0614058 -0.472762
-0.187188 0.33323 -0.29249
-0.00365002 0.370687 -0.350722
0.476669 0.0683599 -0.0355742
0.223289 0.364967 -0.223684
0.333188 -0.0287799 -0.376933
-0.478313 -0.0634258 -0.0320907
-0.216282 -0.380859 -0.214415
0.381257 -0.127523 -0.30744
-0.0706272 -0.0413464 -0.476155
-0.181975 -0.318742 -0.311521
0.0576413 -0.301564 -0.44983
0.0811967 -0.0475922 -0.471869
0.188998 -0.342802 -0.281029
0.477396 -0.0532422 -0.270347
0.479994 -0.05721 -0.047323
0.23468 -0.357364 -0.221183
-0.464241 0.0575964 -0.279931
-0.478255 0.0633019 -0.0456996
-0.231674 0.35021 -0.230946
-0.3429 0.0472347 -0.369546
0.0730263 0.0506553 -0.475413
0.185039 0.348281 -0.279243
-0.263608 0.265987 0.281069
-0.185488 0.37912 0.245954
-0.34405 0.328081 0.135927
0.227957 0.31791 -0.264278
0.369322 0.256471 -0.185902
0.30637 0.20031 -0.306754
-0.248425 0.287137 -0.275121
-0.283561 0.16093 -0.363239
-0.380686 0.192628 -0.239501
0.291496 0.267745 0.251322
0.174478 0.374632 0.259654
0.205514 0.218064 0.386972
0.246806 -0.296257 -0.267321
0.256976 -0.196924 -0.358824
0.377437 -0.190482 -0.245678
-0.223195 -0.331018 -0.256977
-0.360775 -0.250526 -0.2017
-0.324814 -0.172429 -0.317327
0.251615 -0.264247 0.294553
0.170453 -0.375518 0.26333
0.342082 -0.31852 0.148725
-0.274814 -0.240433 0.295056
-0.363552 -0.25632 0.193211
-0.247644 -0.373862 0.192234
-0.0534361 -0.372125 -0.334761
-0.40056 0.267025 0.0402365
-0.417749 0.222596 -0.110093
-0.0925531 -0.397425 -0.264388
0.403646 -0.259215 0.0480227
0.419264 -0.218633 -0.108776
0.141245 0.0124522 -0.447457
0.266262 0.0923596 -0.397016
0.229591 -0.131828 -0.412124
-0.00437841 -0.461344 -0.104935
-0.0125925 -0.394592 -0.281912
0.101562 -0.411311 -0.23508
0.451644 0.129692 0.0125341
0.396334 0.276009 -0.0643477
0.412347 0.234619 0.107757
0.0172006 0.452868 0.126772
-0.0574588 0.402151 0.263712
0.119963 0.409013 0.237758
0.00924096 -0.453579 0.123919
0.05275 -0.39841 0.272503
-0.11452 -0.415827 0.226504
0.127169 -0.00626495 0.45261
0.271801 -0.0832021 0.395437
0.2449 0.0858027 0.408646
-0.142488 -0.00121672 -0.447094
-0.274776 -0.0733771 -0.396034
-0.244002 0.138415 -0.402472
-0.0920963 -0.0556276 0.466887
-0.288849 0.0647686 0.389643
-0.245986 -0.106518 0.407788
4.08512e-05 0.448595 -0.138449
0.0979494 0.400735 -0.261212
-0.108583 0.402857 -0.254318
-0.453997 -0.123959 0.0167878
-0.397313 -0.276263 -0.0463918
-0.411899 -0.23345 0.109404
0.491802 -0.0047973 0.0834128
0.457234 0.118464 0.173708
0.448902 -0.14175 0.148798
-0.0797786 -0.490634 0.00839253
-0.167057 -0.457539 0.119315
-0.158723 -0.451215 -0.133162
0.0905296 -0.489579 0.0133933
0.188086 -0.457387 -0.113188
0.148266 -0.444705 0.150241
0.00376161 0.100097 -0.491274
-0.0984532 0.198468 -0.465505
0.136448 0.17786 -0.447068
0.00235333 -0.0918743 -0.491826
0.124804 -0.188048 -0.452242
-0.132715 -0.185432 -0.447198
0.00412583 -0.0918308 0.492955
-0.131 -0.173841 0.450344
0.130503 -0.169119 0.451715
-0.00384405 0.0676319 0.491427
0.119603 0.15207 0.457872
-0.137983 0.152588 0.449662
-0.0818009 0.491909 0.00249912
-0.176612 0.451488 -0.128128
-0.148508 0.448224 0.142873
0.0907496 0.490975 -0.00873486
0.179371 0.458916 0.113643
0.163107 0.449414 -0.137827
-0.490271 0.0126794 0.089521
-0.458785 -0.112859 0.180497
-0.44212 0.156845 0.148729
-0.492093 -0.00270041 -0.0810335
-0.460182 0.113952 -0.167571
-0.449705 -0.138552 -0.152298
0.491498 0.00739781 -0.0832861
0.462135 -0.10859 -0.168495
0.448728 0.140799 -0.153916
-0.134576 0.42422 -0.196757
-0.131891 0.480164 -0.063028
-0.386579 0.134834 -0.293488
0.113488 0.374154 0.304298
0.0361513 0.399976 0.269292
0.172696 0.324849 0.315096
0.323254 0.124275 -0.355888
0.0178473 -0.372415 -0.343803
0.330308 0.0504978 -0.375636
0.212694 -0.232483 -0.366825
0.282617 -0.373803 0.159254
0.103433 -0.31538 -0.395477
0.367369 0.302508 -0.132394
0.241551 0.397842 -0.173808
0.361506 0.349324 -0.0789416
-0.205961 -0.20154 -0.395481
-0.0839946 -0.265517 -0.455905
-0.00494211 -0.375806 0.336757
-0.163505 0.353176 0.29363
0.33169 -0.0193302 0.378068
-0.105775 0.299123 0.412892
-0.150778 0.202219 -0.436344
-0.141341 0.320484 -0.352163
-0.0480559 0.232253 -0.482547
0.217569 -0.414401 -0.171764
0.342507 -0.324854 -0.14191
0.235138 -0.479812 -0.0409943
-0.0996058 0.425562 0.201302
-0.0172143 0.426063 0.19693
-0.118112 0.476622 0.0735774
0.128101 -0.37852 -0.291668
0.0595244 -0.391635 -0.289957
0.145741 -0.32906 -0.338457
0.414332 0.20338 -0.177992
0.472698 0.0743554 -0.209189
0.371945 0.201366 -0.241374
0.3591 -0.255168 0.196917
-0.351645 0.00630728 0.37042
0.284645 -0.305862 0.221521
0.426133 -0.200277 0.097513
0.428411 -0.190333 0.0151402
0.476497 -0.0732574 0.118192
0.120467 -0.373321 0.30397
0.161853 -0.265191 0.387007
0.0670273 -0.364338 0.348211
-0.412834 -0.201799 -0.18197
-0.474718 -0.0733337 -0.205481
-0.374045 -0.189779 -0.25116
0.16543 -0.413058 0.211271
0.20752 -0.464774 0.0952757
0.2238 -0.372173 0.216236
-0.357803 0.260817 -0.193286
-0.32335 0.388185 -0.0994363
-0.312463 0.241263 -0.257463
-0.198007 -0.351292 0.263528
-0.106013 -0.316411 0.390841
-0.262788 -0.302482 0.245624
-0.101862 -0.300455 -0.414905
-0.287578 0.095344 -0.387746
-0.329097 0.178814 -0.30476
-0.372875 0.329186 0.0691798
-0.141789 -0.0193 0.446716
-0.226429 0.0827593 -0.415716
0.0204215 0.396794 -0.277615
-0.0562886 0.154075 -0.482185
0.355513 0.158951 0.299333
-0.408724 0.22065 0.163488
-0.459966 0.0962913 0.220891
-0.362023 0.145941 0.305899
-0.422978 -0.167013 0.211093
-0.346656 -0.136814 0.328985
-0.481035 -0.0469496 0.226715
0.425146 0.203097 -0.104708
0.424824 0.200509 -0.0210745
0.476392 0.073245 -0.120433
-0.208297 -0.124792 -0.41936
-0.200737 0.0263458 -0.424267
-0.066843 -0.135385 -0.479438
-0.185711 -0.206357 0.410326
-0.170229 -0.271534 0.373008
-0.0645131 -0.219586 0.476645
-0.21139 -0.421616 -0.170682
-0.20766 -0.480381 -0.0566646
-0.313564 -0.343118 -0.157391
-0.297389 -0.119562 0.378283
-0.279967 -0.0392388 0.396234
-0.405484 -0.0913444 0.315688
0.438807 -0.166895 -0.135964
0.482449 -0.0523917 -0.128093
0.396416 -0.143052 0.276651
0.17143 0.185824 0.430727
0.157067 0.238177 0.415834
0.059051 0.196562 0.481918
0.22476 0.378077 0.210592
-0.451491 0.12947 -0.0146151
0.316797 0.403584 0.0914877
-0.421714 0.21131 0.0918866
-0.425318 0.198208 0.011852
-0.472218 0.0845255 0.124705
0.289372 0.129668 0.379663
0.25793 0.00649585 0.404068
0.40041 0.154228 0.260764
0.357528 -0.261721 -0.192479
0.283602 -0.374586 -0.157894
0.307499 -0.246035 -0.257735
0.432164 0.180531 0.136963
0.481506 0.0569301 0.131394
-0.36848 0.183699 0.260886
0.43395 -0.1566 -0.204939
0.420996 -0.134276 -0.259215
0.485105 -0.0513559 -0.207898
0.137832 0.373637 -0.293478
0.169603 0.274905 -0.369551
0.0811198 0.367169 -0.333841
0.172723 -0.216361 -0.41485
0.15979 -0.27341 -0.380429
0.0629792 -0.23217 -0.476585
0.193552 0.416939 -0.189275
0.209082 0.472518 -0.0789599
0.280289 0.402238 -0.13261
0.19635 -0.127085 0.424753
0.195617 -0.0434345 0.426703
0.0668246 -0.132208 0.479082
0.126317 0.42539 -0.197927
0.0474615 0.423359 -0.204695
0.128307 0.475421 -0.0751114
-0.351535 -0.298377 -0.163417
-0.0376369 -0.446515 0.141104
-0.263441 -0.390588 -0.161453
0.421444 0.172101 0.207222
0.405231 0.105508 0.303664
0.480709 0.0521887 0.217437
-0.193452 -0.136461 0.426159
-0.066898 -0.124333 0.478318
0.190625 -0.291991 0.329136
0.381884 0.288395 0.122208
0.399929 0.269611 0.0392132
0.330434 0.341992 0.13957
-0.381916 -0.276974 0.14355
-0.392786 -0.284199 0.0882373
-0.322793 -0.311686 0.178486
-0.139192 -0.434752 0.17574
-0.124485 -0.477675 0.0675087
0.454343 -0.122211 -0.0146585
-0.38979 0.272565 -0.126634
-0.403814 0.258077 -0.0477825
-0.339539 0.323551 -0.147555
-0.100492 0.373096 0.316593
-0.136231 0.324644 0.35244
-0.0739433 0.347928 0.378923
-0.258277 -0.218657 -0.3355
-0.196031 -0.263315 -0.353273
-0.30464 -0.242544 -0.264193
0.143622 -0.432462 -0.177061
0.142767 -0.483006 -0.0501125
0.0421479 -0.453334 -0.125128
-0.338489 -0.103095 -0.358397
-0.269014 0.0159205 -0.399873
-0.339533 -0.0278553 -0.374387
0.413882 -0.204405 0.174725
0.470626 -0.0817846 0.204942
0.379998 -0.19359 0.239777
-0.389888 -0.152861 0.272328
-0.215614 0.201858 -0.388635
0.266948 0.0116259 -0.400771
-0.205051 -0.430241 0.16276
-0.25771 -0.418911 0.137965
-0.200702 -0.480746 0.0640816
-0.0874048 -0.430467 -0.187537
0.0293428 -0.413827 -0.229155
-0.119361 -0.480793 -0.0582715
-0.361107 0.26803 0.181109
-0.379963 0.218787 0.213936
-0.291551 0.313457 0.207269
-0.362442 -0.328568 -0.10728
-0.316944 -0.400982 -0.0926257
-0.363056 -0.363064 -0.0303674
0.184479 -0.202812 0.413237
0.0667692 -0.215558 0.477398
0.112153 -0.291956 0.412773
0.181849 -0.155104 -0.429925
0.0682725 -0.144344 -0.479015
-0.00778178 -0.437066 -0.166384
0.263981 0.189327 0.358626
0.313289 0.160339 0.339453
0.233044 0.257652 0.320486
0.210358 0.425308 0.165802
0.271413 0.389915 0.154171
0.223023 0.481315 0.0489242
0.232004 0.237369 -0.343052
0.148889 0.33171 -0.331248
0.258903 0.269758 -0.281259
-0.195152 0.193147 0.410261
-0.0698763 0.198184 0.477608
-0.168202 0.263215 0.383401
-0.437026 0.171423 -0.13528
-0.481429 0.0571566 -0.12727
-0.160419 0.0750437 -0.440495
-0.210215 0.408148 -0.184814
-0.277963 0.370424 -0.166989
-0.224613 0.477418 -0.0556118
0.180683 0.116161 0.433287
0.0591507 0.112565 0.480496
0.128408 -0.325165 0.358205
0.142951 0.435125 0.175038
0.137406 0.482298 0.0535545
-0.153109 0.262114 -0.398945
0.32169 0.307126 -0.182962
0.27029 0.31178 -0.227704
0.324374 0.355122 -0.13297
-0.407438 -0.24831 0.0394305
-0.158098 -0.414518 -0.209973
-0.374355 -0.20932 0.229137
-0.172054 0.4159 0.203907
-0.20575 0.470669 0.0830054
-0.231218 0.377899 0.203776
0.374399 -0.321191 0.0805332
-0.139744 -0.306837 -0.367464
-0.267757 -0.296222 -0.245218
0.201558 0.134698 -0.421196
0.202885 -0.0238545 -0.423473
0.0729944 0.140179 -0.476951
-0.130994 -0.386537 0.276532
-0.049623 -0.40274 0.261896
-0.151803 -0.33367 0.326926
-0.432799 0.161548 -0.201627
-0.420135 0.142549 -0.251067
-0.482454 0.0553548 -0.208984
-0.331359 0.122797 0.35033
-0.409693 0.129356 0.274052
-0.356257 0.0680509 0.361575
-0.424939 -0.203304 -0.101288
-0.427123 -0.1941 -0.0157383
-0.47773 -0.0699413 -0.117682
0.391051 -0.270543 -0.123659
0.405811 -0.252787 -0.0428796
0.329892 -0.389308 -0.0892945
-0.126158 0.371 -0.30365
-0.0582527 0.389685 -0.295129
-0.0934164 0.310664 -0.410324
0.272893 -0.147423 -0.381319
0.263054 -0.0752639 -0.400775
0.3128 -0.179803 -0.320372
0.0957866 -0.424666 0.203528
0.0100989 -0.428645 0.189334
0.12385 -0.47271 0.0830076
-0.434431 -0.174732 0.140754
-0.482702 -0.050575 0.138882
0.150233 -0.0528778 -0.443557
-0.209136 0.109912 0.420406
-0.21056 0.0198148 0.421409
-0.0714466 0.108618 0.476894
0.313628 -0.138304 0.354104
0.34457 -0.170539 0.298273
0.341141 -0.0827852 0.366256
0.190576 0.209997 -0.40296
0.0724937 0.224823 -0.472933
0.107605 0.314919 -0.390492
-0.12205 -0.355474 -0.32469
-0.0582858 -0.215584 -0.482862
3 6 175 78
3 1 163 166
3 202 478 329
3 3 168 170
3 11 249 199
3 6 173 175
3 478 202 397
3 9 178 180
3 9 180 208
3 7 183 185
3 224 507 479
3 11 188 190
3 633 567 490
3 581 512 34
3 158 467 631
3 157 439 628
3 339 156 61
3 622 155 324
3 267 154 620
3 154 264 619
3 192 162 2
3 225 164 473
3 195 167 4
3 192 412 162
3 198 172 5
3 504 552 461
3 201 187 0
3 4 167 203
3 204 177 10
3 162 216 76
3 207 182 8
3 0 187 88
3 210 163 1
3 1 189 210
3 213 198 5
3 169 213 5
3 153 261 616
3 10 177 200
3 152 219 613
3 462 254 448
3 222 188 11
3 174 222 11
3 225 173 6
3 151 339 610
3 228 201 0
3 186 228 0
3 85 216 162
3 166 231 1
3 148 395 601
3 5 172 94
3 237 207 8
3 171 237 8
3 312 598 123
3 236 606 446
3 243 145 593
3 7 185 146
3 246 183 7
3 7 165 246
3 540 144 590
3 542 123 598
3 252 195 4
3 4 191 252
3 210 509 163
3 228 186 433
3 258 204 10
3 10 176 258
3 143 586 585
3 538 166 163
3 321 142 55
3 8 182 197
3 327 141 57
3 3 170 126
3 270 178 9
3 140 430 577
3 273 192 2
3 2 179 248
3 276 168 3
3 181 276 3
3 213 169 430
3 162 205 2
3 236 251 21
3 193 218 164
3 281 263 20
3 555 242 421
3 278 260 19
3 136 473 565
3 224 227 18
3 291 135 563
3 275 272 30
3 135 443 562
3 33 269 297
3 626 134 52
3 245 242 25
3 282 131 551
3 239 254 24
3 131 485 550
3 277 235 13
3 560 547 132
3 274 244 12
3 123 597 147
3 271 280 16
3 257 111 383
3 247 256 17
3 164 119 473
3 211 262 12
3 533 125 53
3 226 250 14
3 596 124 530
3 238 241 17
3 529 124 269
3 223 232 15
3 526 527 398
3 259 268 16
3 612 480 403
3 229 220 15
3 122 221 523
3 214 217 14
3 505 121 56
3 253 265 13
3 240 120 518
3 342 211 12
3 12 244 342
3 345 238 17
3 17 256 345
3 348 247 17
3 17 241 348
3 351 259 16
3 16 280 351
3 354 271 16
3 16 268 354
3 357 229 15
3 15 232 357
3 360 223 15
3 15 220 360
3 363 214 14
3 14 250 363
3 366 226 14
3 14 217 366
3 369 253 13
3 13 235 369
3 372 277 13
3 13 265 372
3 375 274 12
3 12 262 375
3 517 120 230
3 19 338 378
3 323 23 292
3 292 381 323
3 384 287 41
3 41 313 384
3 387 295 38
3 184 270 9
3 194 219 165
3 35 319 390
3 119 218 514
3 636 269 33
3 396 283 31
3 190 249 11
3 615 260 400
3 502 441 337
3 402 275 30
3 531 402 30
3 405 322 31
3 591 405 31
3 408 317 30
3 30 272 408
3 132 546 560
3 35 286 411
3 115 336 502
3 29 302 414
3 417 310 29
3 537 417 29
3 114 327 499
3 28 325 420
3 112 389 493
3 36 298 423
3 568 635 490
3 28 301 426
3 318 109 54
3 40 290 429
3 614 246 165
3 27 305 432
3 332 541 289
3 180 435 160
3 438 284 26
3 26 307 438
3 508 443 479
3 541 332 58
3 202 107 189
3 606 236 21
3 561 562 477
3 624 447 32
3 450 319 35
3 411 450 35
3 453 331 37
3 393 453 37
3 456 239 24
3 510 456 24
3 106 472 475
3 266 459 589
3 462 335 24
3 254 462 24
3 249 190 398
3 39 311 465
3 468 293 22
3 579 468 22
3 471 292 23
3 164 225 6
3 474 307 26
3 444 474 26
3 477 329 22
3 507 224 18
3 269 636 595
3 39 296 480
3 564 565 471
3 18 320 483
3 486 296 39
3 465 486 39
3 489 281 20
3 20 337 489
3 492 387 38
3 558 492 38
3 495 263 391
3 263 495 20
3 498 328 25
3 555 498 25
3 501 337 20
3 495 501 20
3 504 298 36
3 552 504 36
3 102 415 463
3 483 507 18
3 553 506 461
3 24 335 510
3 513 320 18
3 18 227 513
3 516 341 32
3 32 304 516
3 100 433 457
3 27 326 519
3 522 308 40
3 40 429 522
3 525 396 31
3 31 322 525
3 528 393 37
3 37 299 528
3 330 454 161
3 30 317 531
3 534 299 37
3 37 331 534
3 98 318 451
3 29 414 537
3 195 445 167
3 270 184 389
3 543 305 27
3 519 543 27
3 589 309 33
3 589 33 266
3 549 444 26
3 26 284 549
3 540 464 448
3 36 340 552
3 450 411 377
3 242 555 25
3 607 485 446
3 38 314 558
3 561 477 22
3 22 293 561
3 564 471 23
3 582 564 23
3 549 550 444
3 41 287 567
3 575 95 58
3 21 251 570
3 380 93 437
3 40 308 573
3 576 278 19
3 378 576 19
3 93 279 436
3 22 329 579
3 276 605 168
3 23 323 582
3 286 35 390
3 390 585 286
3 590 304 32
3 32 447 590
3 486 465 376
3 31 283 591
3 594 302 29
3 29 310 594
3 597 313 41
3 633 597 41
3 600 326 27
3 27 432 600
3 603 290 40
3 573 603 40
3 602 600 432
3 21 334 606
3 609 340 36
3 423 609 36
3 612 311 39
3 480 612 39
3 615 338 19
3 260 615 19
3 618 314 38
3 38 295 618
3 621 325 28
3 426 621 28
3 424 170 168
3 32 341 624
3 627 334 21
3 570 627 21
3 630 245 25
3 25 328 630
3 609 423 374
3 567 633 41
3 524 522 429
3 309 636 33
3 301 28 420
3 420 34 301
3 388 90 428
3 43 569 287
3 62 163 509
3 538 163 62
3 514 218 319
3 515 105 565
3 613 219 310
3 246 614 82
3 233 89 425
3 539 86 631
3 557 421 581
3 607 167 445
3 72 168 605
3 424 168 72
3 523 221 307
3 524 91 577
3 581 34 420
3 530 425 298
3 517 230 588
3 518 49 434
3 87 521 418
3 593 42 551
3 70 173 566
3 496 173 70
3 382 255 322
3 383 45 563
3 196 221 169
3 175 497 78
3 616 261 441
3 258 617 81
3 127 467 166
3 383 111 381
3 66 178 494
3 178 66 637
3 619 264 542
3 620 46 482
3 539 537 414
3 435 180 394
3 436 279 535
3 437 44 431
3 216 85 413
3 553 182 101
3 64 183 404
3 427 183 64
3 409 385 316
3 410 77 493
3 603 573 373
3 428 48 416
3 601 395 325
3 602 92 457
3 84 385 409
3 187 557 88
3 68 188 470
3 571 188 68
3 478 397 328
3 508 189 107
3 83 321 406
3 572 80 526
3 463 415 334
3 252 464 97
3 73 192 488
3 412 192 73
3 218 392 319
3 481 614 403
3 219 594 310
3 584 617 400
3 71 195 449
3 445 195 71
3 546 132 309
3 399 584 541
3 535 161 454
3 138 572 398
3 69 198 578
3 592 198 69
3 255 527 525
3 169 122 430
3 491 337 441
3 525 526 396
3 67 201 458
3 556 201 67
3 397 632 328
3 474 444 371
3 415 608 334
3 528 529 393
3 65 204 401
3 634 204 65
3 386 313 542
3 497 391 143
3 536 331 535
3 587 585 390
3 63 207 545
3 460 207 63
3 385 306 316
3 447 624 370
3 395 422 325
3 77 294 46
3 492 493 387
3 509 210 117
3 111 257 212
3 170 233 126
3 257 383 563
3 75 255 382
3 577 430 524
3 578 213 140
3 336 74 60
3 501 495 368
3 290 380 437
3 412 452 377
3 466 488 376
3 89 233 170
3 60 502 336
3 366 503 70
3 287 216 413
3 424 611 374
3 574 605 373
3 203 167 150
3 59 628 439
3 360 629 68
3 243 593 551
3 445 476 371
3 104 222 212
3 470 222 104
3 625 449 370
3 564 582 367
3 107 562 443
3 291 563 45
3 565 473 515
3 566 225 136
3 496 503 368
3 234 171 8
3 405 591 365
3 515 227 105
3 457 433 602
3 458 228 100
3 583 566 367
3 554 230 234
3 305 240 518
3 592 407 365
3 631 467 539
3 231 158 632
3 57 499 327
3 357 500 67
3 388 428 416
3 379 578 364
3 94 196 5
3 576 378 364
3 50 475 472
3 369 476 71
3 96 550 485
3 282 551 42
3 129 237 171
3 545 237 129
3 571 629 362
3 240 171 234
3 92 239 457
3 627 570 362
3 580 470 361
3 88 209 0
3 56 622 505
3 348 623 64
3 48 34 512
3 198 592 172
3 146 194 7
3 468 579 361
3 51 418 521
3 342 419 62
3 86 245 631
3 498 555 359
3 556 500 359
3 404 246 82
3 511 458 358
3 145 243 172
3 296 267 620
3 637 356 394
3 456 510 358
3 161 453 99
3 55 406 321
3 363 407 69
3 225 566 173
3 572 251 80
3 559 494 355
3 449 252 97
3 634 599 353
3 453 393 356
3 440 454 575
3 540 590 447
3 442 401 352
3 208 180 160
3 53 547 560
3 345 548 63
3 299 233 425
3 427 623 350
3 532 404 349
3 401 258 81
3 460 548 347
3 496 175 173
3 44 541 128
3 454 440 535
3 520 545 346
3 78 193 6
3 54 451 318
3 375 452 73
3 43 585 586
3 492 558 355
3 538 419 344
3 199 255 75
3 61 610 339
3 372 611 72
3 597 633 353
3 459 506 101
3 212 174 111
3 441 261 491
3 575 58 440
3 354 455 66
3 79 529 595
3 596 530 47
3 493 389 410
3 494 270 112
3 484 509 343
3 174 75 111
3 621 426 350
3 410 272 77
3 110 273 248
3 488 273 110
3 61 624 341
3 402 531 349
3 516 517 341
3 200 261 176
3 149 276 215
3 605 276 149
3 554 552 340
3 347 546 589
3 91 278 577
3 617 258 176
3 543 519 346
3 204 634 177
3 52 598 626
3 351 599 65
3 609 610 340
3 417 537 344
3 80 282 42
3 635 200 177
3 507 483 343
3 593 283 42
3 284 94 243
3 551 284 243
3 586 569 43
3 60 378 338
3 43 286 585
3 413 286 43
3 287 384 216
3 287 413 43
3 44 128 288
3 615 616 338
3 44 289 541
3 437 289 44
3 290 604 380
3 431 290 437
3 105 291 45
3 491 489 337
3 270 494 178
3 383 292 45
3 293 469 257
3 563 293 257
3 294 482 46
3 501 502 337
3 265 253 339
3 620 295 46
3 296 487 267
3 482 296 620
3 116 596 47
3 394 180 178
3 217 214 336
3 298 47 530
3 299 534 233
3 530 299 425
3 48 512 300
3 59 510 335
3 48 301 34
3 428 301 48
3 205 264 179
3 416 302 388
3 49 144 303
3 462 463 335
3 161 535 331
3 518 304 49
3 305 544 240
3 434 305 518
3 472 139 50
3 608 606 334
3 475 50 523
3 523 307 475
3 50 308 523
3 220 229 333
3 521 103 51
3 627 628 334
3 418 51 613
3 613 310 418
3 51 311 613
3 179 267 248
3 268 259 330
3 118 439 333
3 598 52 619
3 542 598 619
3 52 314 619
3 154 267 179
3 560 533 53
3 58 399 541
3 547 53 317
3 409 316 547
3 317 409 547
3 232 223 327
3 241 238 324
3 289 436 332
3 451 54 514
3 514 319 451
3 54 320 514
3 206 279 181
3 250 226 321
3 536 534 331
3 406 55 382
3 382 322 406
3 55 323 382
3 181 380 215
3 262 211 318
3 331 453 161
3 622 56 601
3 601 325 622
3 56 326 601
3 93 380 181
3 256 247 315
3 207 460 182
3 499 57 478
3 478 328 499
3 57 329 478
3 280 271 312
3 553 197 182
3 57 579 329
3 440 58 332
3 436 535 440
3 332 436 440
3 234 230 120
3 439 118 59
3 329 477 202
3 628 59 463
3 463 334 628
3 59 335 463
3 246 404 183
3 632 397 231
3 632 630 328
3 60 616 441
3 441 502 60
3 60 338 616
3 427 185 183
3 254 239 303
3 498 499 328
3 588 61 341
3 588 610 61
3 341 517 588
3 208 385 184
3 242 245 300
3 484 342 62
3 509 484 62
3 56 519 326
3 419 538 62
3 600 601 326
3 422 420 325
3 520 345 63
3 545 520 63
3 621 622 325
3 548 460 63
3 184 84 389
3 55 582 323
3 532 348 64
3 404 532 64
3 381 382 323
3 623 427 64
3 525 322 255
3 405 406 322
3 442 351 65
3 401 442 65
3 297 266 33
3 599 634 65
3 54 483 320
3 513 514 320
3 559 354 66
3 494 559 66
3 392 390 319
3 637 394 178
3 450 451 319
3 272 275 294
3 511 357 67
3 458 511 67
3 53 531 317
3 500 556 67
3 408 409 317
3 306 636 309
3 580 360 68
3 470 580 68
3 132 547 316
3 629 571 68
3 533 560 315
3 52 558 314
3 379 363 69
3 578 379 69
3 618 619 314
3 407 592 69
3 386 384 313
3 313 597 123
3 583 366 70
3 566 583 70
3 227 224 291
3 503 496 70
3 51 465 311
3 612 613 311
3 625 369 71
3 449 625 71
3 90 388 185
3 476 445 71
3 417 418 310
3 103 521 274
3 574 372 72
3 605 574 72
3 50 573 308
3 611 424 72
3 522 523 308
3 221 438 307
3 466 375 73
3 488 466 73
3 474 475 307
3 452 412 73
3 139 472 277
3 434 432 305
3 364 378 74
3 74 379 364
3 214 379 74
3 543 544 305
3 378 60 74
3 518 516 304
3 382 381 75
3 590 49 304
3 75 174 199
3 303 434 49
3 75 381 111
3 416 414 302
3 260 278 288
3 302 594 146
3 209 395 186
3 76 386 205
3 384 386 76
3 77 387 493
3 46 387 77
3 428 426 301
3 294 77 272
3 389 84 410
3 263 281 285
3 300 416 48
3 587 390 392
3 497 587 78
3 530 528 299
3 78 392 193
3 392 78 587
3 79 393 529
3 356 393 79
3 79 394 356
3 394 79 435
3 595 435 79
3 186 148 433
3 80 396 526
3 42 396 80
3 425 423 298
3 80 251 282
3 251 236 282
3 504 47 298
3 81 399 352
3 399 81 584
3 617 584 81
3 596 116 297
3 482 480 296
3 352 401 81
3 82 402 349
3 481 402 82
3 614 481 82
3 486 487 296
3 620 618 295
3 349 404 82
3 83 405 365
3 406 405 83
3 387 46 295
3 83 250 321
3 83 407 250
3 365 407 83
3 126 206 3
3 409 408 84
3 563 561 293
3 385 84 184
3 468 469 293
3 408 410 84
3 383 381 292
3 377 411 85
3 85 412 377
3 162 412 85
3 471 45 292
3 411 413 85
3 201 556 187
3 539 414 86
3 467 127 539
3 431 429 290
3 603 604 290
3 414 416 86
3 87 417 344
3 418 417 87
3 160 435 595
3 521 87 244
3 87 419 244
3 344 419 87
3 258 401 204
3 581 420 422
3 557 581 88
3 288 431 44
3 88 422 209
3 422 88 581
3 569 567 287
3 374 423 89
3 89 424 374
3 170 424 89
3 248 273 2
3 423 425 89
3 413 411 286
3 350 426 90
3 90 427 350
3 185 427 90
3 222 470 188
3 426 428 90
3 569 586 285
3 524 429 91
3 430 122 524
3 551 549 284
3 438 94 284
3 429 431 91
3 593 591 283
3 602 432 92
3 433 148 602
3 396 42 283
3 309 316 306
3 432 434 92
3 137 569 285
3 436 289 93
3 285 281 137
3 279 93 181
3 489 568 281
3 289 437 93
3 599 351 280
3 571 190 188
3 312 626 598
3 231 397 189
3 196 94 438
3 438 221 196
3 91 431 288
3 352 399 95
3 95 442 352
3 259 442 95
3 288 278 91
3 399 58 95
3 96 444 550
3 371 444 96
3 96 445 371
3 445 96 607
3 485 607 96
3 576 577 278
3 97 447 370
3 447 97 540
3 464 540 97
3 205 162 76
3 636 306 160
3 370 449 97
3 98 450 377
3 451 450 98
3 372 574 277
3 98 262 318
3 98 452 262
3 377 452 98
3 99 453 356
3 161 99 330
3 108 482 294
3 99 268 330
3 99 455 268
3 356 455 99
3 100 456 358
3 457 456 100
3 294 275 108
3 100 228 433
3 402 481 275
3 358 458 100
3 508 210 189
3 347 459 101
3 101 460 347
3 182 460 101
3 506 553 101
3 316 309 132
3 102 462 448
3 463 462 102
3 375 466 274
3 415 102 191
3 102 464 191
3 448 464 102
3 410 408 272
3 376 465 103
3 103 466 376
3 466 103 274
3 276 181 215
3 465 51 103
3 104 468 361
3 469 468 104
3 134 626 271
3 212 469 104
3 271 626 312
3 361 470 104
3 105 471 565
3 45 471 105
3 354 559 271
3 105 227 291
3 473 119 515
3 190 138 398
3 106 474 371
3 475 474 106
3 124 596 297
3 472 106 235
3 106 476 235
3 371 476 106
3 107 477 562
3 202 477 107
3 297 269 124
3 189 397 202
3 443 508 107
3 222 174 212
3 455 354 268
3 403 480 108
3 108 481 403
3 275 481 108
3 330 575 454
3 480 482 108
3 506 459 266
3 343 483 109
3 109 484 343
3 211 484 109
3 297 116 266
3 483 54 109
3 110 486 376
3 487 486 110
3 611 372 265
3 248 487 110
3 209 186 0
3 376 488 110
3 143 587 497
3 568 489 491
3 512 581 421
3 391 263 143
3 635 491 200
3 491 635 568
3 112 492 355
3 493 492 112
3 285 586 263
3 112 270 389
3 452 375 262
3 355 494 112
3 113 495 391
3 368 495 113
3 113 496 368
3 175 496 113
3 113 497 175
3 391 497 113
3 114 498 359
3 499 498 114
3 203 415 191
3 114 232 327
3 114 500 232
3 359 500 114
3 115 501 368
3 502 501 115
3 128 584 400
3 115 217 336
3 115 503 217
3 368 503 115
3 461 116 47
3 47 504 461
3 400 260 128
3 535 279 536
3 116 506 266
3 461 506 116
3 117 507 343
3 479 507 117
3 117 508 479
3 210 508 117
3 288 128 260
3 343 509 117
3 95 575 259
3 358 510 118
3 118 511 358
3 511 118 333
3 259 575 330
3 510 59 118
3 351 442 259
3 514 513 119
3 233 534 126
3 218 119 164
3 548 345 256
3 513 515 119
3 315 560 130
3 517 516 120
3 144 540 448
3 234 120 240
3 448 254 144
3 516 518 120
3 303 144 254
3 346 519 121
3 121 520 346
3 238 520 121
3 156 339 253
3 519 56 121
3 208 184 9
3 523 522 122
3 369 625 253
3 221 122 169
3 572 570 251
3 522 524 122
3 464 252 191
3 526 525 527
3 407 363 250
3 527 249 398
3 527 199 249
3 123 542 313
3 206 181 3
3 529 528 124
3 398 572 526
3 269 595 529
3 267 487 248
3 528 530 124
3 125 533 247
3 349 531 125
3 125 532 349
3 247 532 125
3 247 533 315
3 531 53 125
3 348 532 247
3 273 488 192
3 86 416 300
3 205 179 2
3 126 536 206
3 534 536 126
3 300 245 86
3 344 537 127
3 127 538 344
3 166 538 127
3 630 631 245
3 537 539 127
3 419 342 244
3 160 306 208
3 274 521 244
3 608 415 203
3 542 264 386
3 584 128 541
3 129 543 346
3 544 543 129
3 421 242 512
3 171 544 129
3 300 512 242
3 346 545 129
3 130 546 347
3 546 130 560
3 623 348 241
3 130 256 315
3 130 548 256
3 347 548 130
3 324 505 622
3 550 549 131
3 92 434 303
3 485 131 236
3 303 239 92
3 549 551 131
3 456 457 239
3 461 552 553
3 610 588 340
3 340 588 230
3 553 554 197
3 552 554 553
3 133 555 421
3 359 555 133
3 133 556 359
3 187 556 133
3 133 557 187
3 421 557 133
3 121 505 238
3 355 558 134
3 134 559 355
3 271 559 134
3 238 505 324
3 558 52 134
3 345 520 238
3 562 561 135
3 392 218 193
3 443 135 224
3 282 236 131
3 561 563 135
3 136 564 367
3 565 564 136
3 446 485 236
3 136 225 473
3 476 369 235
3 367 566 136
3 277 472 235
3 490 567 137
3 137 568 490
3 281 568 137
3 203 191 4
3 567 569 137
3 500 357 232
3 362 570 138
3 138 571 362
3 190 571 138
3 594 219 194
3 570 572 138
3 166 467 158
3 373 573 139
3 139 574 373
3 574 139 277
3 240 544 171
3 573 50 139
3 140 576 364
3 577 576 140
3 231 189 1
3 140 213 430
3 333 229 511
3 364 578 140
3 357 511 229
3 361 579 141
3 141 580 361
3 223 580 141
3 252 449 195
3 579 57 141
3 515 513 227
3 367 582 142
3 142 583 367
3 226 583 142
3 200 176 10
3 582 55 142
3 142 321 226
3 230 554 340
3 199 174 11
3 586 143 263
3 366 583 226
3 585 587 143
3 554 234 197
3 8 197 234
3 213 578 198
3 309 589 546
3 291 224 135
3 590 144 49
3 479 443 224
3 365 591 145
3 145 592 365
3 172 592 145
3 141 327 223
3 591 593 145
3 196 169 5
3 146 388 302
3 360 580 223
3 185 388 146
3 146 594 194
3 527 255 199
3 147 597 353
3 123 147 312
3 243 94 172
3 147 280 312
3 147 599 280
3 353 599 147
3 629 360 220
3 601 600 148
3 333 439 220
3 395 148 186
3 216 384 76
3 600 602 148
3 149 603 373
3 604 603 149
3 503 366 217
3 215 604 149
3 194 165 7
3 373 605 149
3 380 604 215
3 446 606 150
3 150 607 446
3 167 607 150
3 150 608 203
3 606 608 150
3 151 609 374
3 610 609 151
3 74 336 214
3 151 265 339
3 151 611 265
3 374 611 151
3 152 612 403
3 613 612 152
3 491 261 200
3 219 152 165
3 152 614 165
3 403 614 152
3 153 615 400
3 616 615 153
3 363 379 214
3 261 153 176
3 153 617 176
3 400 617 153
3 193 164 6
3 619 618 154
3 257 469 212
3 264 154 179
3 109 318 211
3 618 620 154
3 155 621 350
3 622 621 155
3 228 458 201
3 155 241 324
3 155 623 241
3 350 623 155
3 342 484 211
3 370 624 156
3 156 625 370
3 253 625 156
3 422 395 209
3 624 61 156
3 157 627 362
3 628 627 157
3 306 385 208
3 439 157 220
3 157 629 220
3 362 629 157
3 237 545 207
3 631 630 158
3 536 279 206
3 158 231 166
3 589 459 347
3 630 632 158
3 159 633 490
3 353 633 159
3 159 634 353
3 177 634 159
3 159 635 177
3 490 635 159
3 386 264 205
3 595 636 160
3 455 637 66
3 356 637 455
