ply
format ascii 1.0
element vertex 432
property float x
property float y
property float z
element face 860
property list uchar int vertex_indices
end_header
-0.498677 -0.316775 0.046352
-1.14288 -0.325073 0
-1.13567 -0.323692 -0.046353
-1.13567 -0.323692 0.046353
-1.13018 -0.125871 0
-1.1232 -0.128166 -0.046353
-1.1232 -0.128166 0.046353
-1.11475 -0.319682 -0.088168
-1.11475 -0.319682 0.088168
-1.10296 -0.134824 -0.088168
-1.10296 -0.134824 0.088168
-1.08215 -0.313437 -0.121353
-1.08215 -0.313437 0.121353
-1.07144 -0.145194 -0.121353
-1.07144 -0.145194 0.121353
-1.05353 -0.508403 0
-1.04802 -0.503555 -0.046353
-1.04802 -0.503555 0.046353
-1.04109 -0.305568 -0.142658
-1.04109 -0.305568 0.142658
-1.03202 -0.489487 -0.088168
-1.03202 -0.489487 0.088168
-1.03172 -0.158261 -0.142658
-1.03172 -0.158261 0.142658
-1.01568 0.045867 0
-1.01089 0.040306 -0.046353
-1.01089 0.040306 0.046353
-1.00709 -0.467574 -0.121353
-1.00709 -0.467574 0.121353
-0.996978 0.024167 -0.088168
-0.996978 0.024167 0.088168
-0.995562 -0.296845 -0.15
-0.995562 -0.296845 0.15
-0.987688 -0.172746 -0.15
-0.987688 -0.172746 0.15
-0.975691 -0.439963 -0.142658
-0.975691 -0.439963 0.142658
-0.975314 -0.000971 -0.121353
-0.975314 -0.000971 0.121353
-0.950038 -0.288122 -0.142658
-0.950038 -0.288122 0.142658
-0.948015 -0.032646 -0.142658
-0.948015 -0.032646 0.142658
-0.943657 -0.187231 -0.142658
-0.943657 -0.187231 0.142658
-0.940881 -0.409356 -0.15
-0.940881 -0.409356 0.15
-0.917755 -0.067758 -0.15
-0.917755 -0.067758 0.15
-0.908969 -0.280253 -0.121353
-0.908969 -0.280253 0.121353
-0.90607 -0.378749 -0.142658
-0.90607 -0.378749 0.142658
-0.903936 -0.200298 -0.121353
-0.903936 -0.200298 0.121353
-0.887494 -0.10287 -0.142658
-0.887494 -0.10287 0.142658
-0.876378 -0.274008 -0.088168
-0.876378 -0.274008 0.088168
-0.874667 -0.351138 -0.121353
-0.874667 -0.351138 0.121353
-0.873761 -0.624996 0
-0.872413 -0.210668 -0.088168
-0.872413 -0.210668 0.088168
-0.871476 -0.618019 -0.046353
-0.871476 -0.618019 0.046353
-0.864846 -0.597771 -0.088168
-0.864846 -0.597771 0.088168
-0.860196 -0.134545 -0.121353
-0.860196 -0.134545 0.121353
-0.855452 -0.269999 -0.046352
-0.855452 -0.269999 0.046352
-0.854519 -0.566234 -0.121353
-0.854519 -0.566234 0.121353
-0.852174 -0.217326 -0.046352
-0.852174 -0.217326 0.046352
-0.849746 -0.329226 -0.088168
-0.849746 -0.329226 0.088168
-0.848242 -0.268617 0
-0.8452 -0.21962 0
-0.841506 -0.526495 -0.142658
-0.841506 -0.526495 0.142658
-0.838531 -0.159682 -0.088168
-0.838531 -0.159682 0.088168
-0.833745 -0.315157 -0.046352
-0.833745 -0.315157 0.046352
-0.828232 -0.310309 0
-0.827081 -0.482444 -0.15
-0.827081 -0.482444 0.15
-0.824622 -0.175822 -0.046352
-0.824622 -0.175822 0.046352
-0.819979 0.139151 0
-0.819829 -0.181383 0
-0.818519 0.131956 -0.046353
-0.818519 0.131956 0.046353
-0.814283 0.111075 -0.088168
-0.814283 0.111075 0.088168
-0.812656 -0.438393 -0.142658
-0.812656 -0.438393 0.142658
-0.807685 0.078553 -0.121353
-0.807685 0.078553 0.121353
-0.799642 -0.398654 -0.121353
-0.799642 -0.398654 0.121353
-0.799371 0.037573 -0.142658
-0.799371 0.037573 0.142658
-0.790155 -0.007854 -0.15
-0.790155 -0.007854 0.15
-0.789315 -0.367118 -0.088168
-0.789315 -0.367118 0.088168
-0.782685 -0.34687 -0.046352
-0.782685 -0.34687 0.046352
-0.780939 -0.053281 -0.142658
-0.780939 -0.053281 0.142658
-0.7804 -0.339893 0
-0.772625 -0.094262 -0.121353
-0.772625 -0.094262 0.121353
-0.766027 -0.126784 -0.088168
-0.766027 -0.126784 0.088168
-0.761791 -0.147664 -0.046352
-0.761791 -0.147664 0.046352
-0.760331 -0.154859 0
-0.6738 -0.348549 0
-0.673189 -0.355865 -0.046352
-0.673189 -0.355865 0.046352
-0.671415 -0.377097 -0.088168
-0.671415 -0.377097 0.088168
-0.668652 -0.410167 -0.121353
-0.668652 -0.410167 0.121353
-0.665171 -0.451837 -0.142658
-0.665171 -0.451837 0.142658
-0.661312 -0.498029 -0.15
-0.661312 -0.498029 0.15
-0.657453 -0.54422 -0.142658
-0.657453 -0.54422 0.142658
-0.653972 -0.58589 -0.121353
-0.653972 -0.58589 0.121353
-0.651209 -0.61896 -0.088168
-0.651209 -0.61896 0.088168
-0.649435 -0.640192 -0.046353
-0.649435 -0.640192 0.046353
-0.648824 -0.647508 0
-0.612907 -0.157854 0
-0.612907 -0.150128 -0.04878
-0.612907 -0.150128 0.04878
-0.612907 -0.127707 -0.092784
-0.612907 -0.127707 0.092784
-0.612907 -0.092784 -0.127707
-0.612907 -0.092784 0.127707
-0.612907 -0.04878 -0.150128
-0.612907 -0.04878 0.150128
-0.612907 0 -0.157854
-0.612907 0 0.157854
-0.612907 0.04878 -0.150128
-0.612907 0.04878 0.150128
-0.612907 0.092784 -0.127707
-0.612907 0.092784 0.127707
-0.612907 0.127707 -0.092784
-0.612907 0.127707 0.092784
-0.612907 0.150128 -0.04878
-0.612907 0.150128 0.04878
-0.612907 0.157854 0
-0.500977 -0.309803 0
-0.498677 -0.316775 -0.046352
-0.492003 -0.337009 -0.088168
-0.492003 -0.337009 0.088168
-0.481608 -0.368524 -0.121353
-0.481608 -0.368524 0.121353
-0.46851 -0.408234 -0.142658
-0.46851 -0.408234 0.142658
-0.45399 -0.452254 -0.15
-0.45399 -0.452254 0.15
-0.439471 -0.496274 -0.142658
-0.439471 -0.496274 0.142658
-0.426373 -0.535985 -0.121353
-0.426373 -0.535985 0.121353
-0.415978 -0.567499 -0.088168
-0.415978 -0.567499 0.088168
-0.409304 -0.587733 -0.046353
-0.409304 -0.587733 0.046353
-0.407004 -0.594705 0
-0.397148 -0.217758 0
-0.397148 -0.2071 -0.067291
-0.397148 -0.2071 0.067291
-0.397148 -0.17617 -0.127995
-0.397148 -0.17617 0.127995
-0.397148 -0.127995 -0.17617
-0.397148 -0.127995 0.17617
-0.397148 -0.067291 -0.2071
-0.397148 -0.067291 0.2071
-0.397148 0 -0.217758
-0.397148 0 0.217758
-0.397148 0.067291 -0.2071
-0.397148 0.067291 0.2071
-0.397148 0.127995 -0.17617
-0.397148 0.127995 0.17617
-0.397148 0.17617 -0.127995
-0.397148 0.17617 0.127995
-0.397148 0.2071 -0.067291
-0.397148 0.2071 0.067291
-0.397148 0.217758 0
-0.255225 -0.276454 -0.121353
-0.255225 -0.276454 0.121353
-0.237638 -0.314391 -0.142658
-0.237638 -0.314391 0.142658
-0.218143 -0.356445 -0.15
-0.218143 -0.356445 0.15
-0.198648 -0.398498 -0.142658
-0.198648 -0.398498 0.142658
-0.181061 -0.436435 -0.121353
-0.181061 -0.436435 0.121353
-0.167104 -0.466542 -0.088168
-0.167104 -0.466542 0.088168
-0.158144 -0.485872 -0.046353
-0.158144 -0.485872 0.046353
-0.156435 -0.261107 -0.189705
-0.156435 -0.261107 0.189705
-0.156435 -0.189705 -0.261107
-0.156435 -0.189705 0.261107
-0.156435 -0.099734 -0.306949
-0.156435 -0.099734 0.306949
-0.156435 0 -0.322746
-0.156435 0 0.322746
-0.156435 0.099734 -0.306949
-0.156435 0.099734 0.306949
-0.156435 0.189705 -0.261107
-0.156435 0.189705 0.261107
-0.156435 0.261107 -0.189705
-0.156435 0.261107 0.189705
-0.156435 0.306949 -0.099734
-0.156435 0.306949 0.099734
-0.156435 0.322746 0
-0.155056 -0.492533 0
0.094108 -0.446845 0
0.094108 -0.424975 -0.138083
0.094108 -0.424975 0.138083
0.094108 -0.361505 -0.262649
0.094108 -0.361505 0.262649
0.094108 -0.262649 -0.361505
0.094108 -0.262649 0.361505
0.094108 -0.138083 -0.424975
0.094108 -0.138083 0.424975
0.094108 0 -0.446845
0.094108 0 0.446845
0.094108 0.138083 -0.424975
0.094108 0.138083 0.424975
0.094108 0.262649 -0.361505
0.094108 0.262649 0.361505
0.094108 0.361505 -0.262649
0.094108 0.361505 0.262649
0.094108 0.424975 -0.138083
0.094108 0.424975 0.138083
0.094108 0.446845 0
0.338738 -0.559356 0
0.338738 -0.531979 -0.17285
0.338738 -0.531979 0.17285
0.338738 -0.452529 -0.328781
0.338738 -0.452529 0.328781
0.338738 -0.328781 -0.452528
0.338738 -0.328781 0.452528
0.338738 -0.172851 -0.531979
0.338738 -0.172851 0.531979
0.338738 0 -0.559356
0.338738 0 0.559356
0.338738 0.17285 -0.531979
0.338738 0.17285 0.531979
0.338738 0.328781 -0.452528
0.338738 0.328781 0.452528
0.338738 0.452528 -0.328781
0.338738 0.452528 0.328781
0.338738 0.531979 -0.172851
0.338738 0.531979 0.172851
0.338738 0.559356 0
0.562083 -0.632444 0
0.562083 -0.60149 -0.195436
0.562083 -0.60149 0.195436
0.562083 -0.511658 -0.371741
0.562083 -0.511658 0.371741
0.562083 -0.371741 -0.511658
0.562083 -0.371741 0.511658
0.562083 -0.195436 -0.60149
0.562083 -0.195436 0.60149
0.562083 0 -0.632444
0.562083 0 0.632444
0.562083 0.195436 -0.60149
0.562083 0.195436 0.60149
0.562083 0.371741 -0.511658
0.562083 0.371741 0.511658
0.562083 0.511658 -0.371741
0.562083 0.511658 0.371741
0.562083 0.60149 -0.195436
0.562083 0.60149 0.195436
0.562083 0.632444 0
0.707107 -0.15 0
0.707107 -0.142658 -0.046352
0.707107 -0.142658 0.046353
0.707107 -0.121353 -0.088168
0.707107 -0.121353 0.088168
0.707107 -0.088168 -0.121353
0.707107 -0.088168 0.121353
0.707107 -0.046353 -0.142658
0.707107 -0.046352 0.142658
0.707107 -0 -0.15
0.707107 -0 0.15
0.707107 0.046352 0.142658
0.707107 0.046353 -0.142658
0.707107 0.088168 -0.121353
0.707107 0.088168 0.121353
0.707107 0.121353 -0.088168
0.707107 0.121353 0.088168
0.707107 0.142658 -0.046352
0.707107 0.142658 0.046353
0.707107 0.15 0
0.750111 -0.648029 0
0.750111 -0.616312 -0.200252
0.750111 -0.616312 0.200252
0.750111 -0.524266 -0.380902
0.750111 -0.524266 0.380902
0.750111 -0.380902 -0.524266
0.750111 -0.380902 0.524266
0.750111 -0.200252 -0.616312
0.750111 -0.200252 0.616312
0.750111 0 -0.648029
0.750111 0 0.648029
0.750111 0.200252 -0.616312
0.750111 0.200252 0.616312
0.750111 0.380902 -0.524266
0.750111 0.380902 0.524266
0.750111 0.524266 -0.380902
0.750111 0.524266 0.380902
0.750111 0.616312 -0.200252
0.750111 0.616312 0.200252
0.750111 0.648029 0
0.860742 -0.180923 0
0.860742 -0.172068 -0.055908
0.860742 -0.172068 0.055908
0.860742 -0.14637 -0.106344
0.860742 -0.14637 0.106344
0.860742 -0.106344 -0.14637
0.860742 -0.106344 0.14637
0.860742 -0.055908 -0.172068
0.860742 -0.055908 0.172068
0.860742 0 -0.180923
0.860742 0 0.180923
0.860742 0.055908 -0.172068
0.860742 0.055908 0.172068
0.860742 0.106344 -0.14637
0.860742 0.106344 0.14637
0.860742 0.14637 -0.106344
0.860742 0.14637 0.106344
0.860742 0.172068 -0.055908
0.860742 0.172068 0.055908
0.860742 0.180923 0
0.891007 -0.602254 0
0.891007 -0.572778 -0.186107
0.891007 -0.572778 0.186107
0.891007 -0.487234 -0.353996
0.891007 -0.487234 0.353996
0.891007 -0.353996 -0.487234
0.891007 -0.353996 0.487234
0.891007 -0.186107 -0.572778
0.891007 -0.186107 0.572778
0.891007 0 -0.602254
0.891007 0 0.602254
0.891007 0.186107 -0.572778
0.891007 0.186107 0.572778
0.891007 0.353996 -0.487234
0.891007 0.353996 0.487234
0.891007 0.487234 -0.353996
0.891007 0.487234 0.353996
0.891007 0.572778 -0.186107
0.891007 0.572778 0.186107
0.891007 0.602254 0
0.960294 -0.266043 0
0.960294 -0.253022 -0.082212
0.960294 -0.253022 0.082212
0.960294 -0.215234 -0.156376
0.960294 -0.215234 0.156376
0.960294 -0.156376 -0.215234
0.960294 -0.156376 0.215234
0.960294 -0.082212 -0.253022
0.960294 -0.082212 0.253022
0.960294 0 -0.266043
0.960294 0 0.266043
0.960294 0.082212 -0.253022
0.960294 0.082212 0.253022
0.960294 0.156376 -0.215234
0.960294 0.156376 0.215234
0.960294 0.215234 -0.156376
0.960294 0.215234 0.156376
0.960294 0.253022 -0.082212
0.960294 0.253022 0.082212
0.960294 0.266043 0
0.975917 -0.506445 0
0.975917 -0.481658 -0.1565
0.975917 -0.481658 0.1565
0.975917 -0.409723 -0.297681
0.975917 -0.409723 0.297681
0.975917 -0.297681 -0.409722
0.975917 -0.297681 0.409722
0.975917 -0.1565 -0.481658
0.975917 -0.1565 0.481658
0.975917 0 -0.506445
0.975917 0 0.506445
0.975917 0.1565 -0.481658
0.975917 0.1565 0.481658
0.975917 0.297681 -0.409722
0.975917 0.297681 0.409722
0.975917 0.409722 -0.297681
0.975917 0.409722 0.297681
0.975917 0.481658 -0.1565
0.975917 0.481658 0.1565
0.975917 0.506445 0
0.999507 -0.384302 0
0.999507 -0.365493 -0.118756
0.999507 -0.365493 0.118756
0.999507 -0.310907 -0.225887
0.999507 -0.310907 0.225887
0.999507 -0.225887 -0.310907
0.999507 -0.225887 0.310907
0.999507 -0.118756 -0.365493
0.999507 -0.118756 0.365493
0.999507 0 -0.384302
0.999507 0 0.384302
0.999507 0.118756 -0.365493
0.999507 0.118756 0.365493
0.999507 0.225887 -0.310907
0.999507 0.225887 0.310907
0.999507 0.310907 -0.225887
0.999507 0.310907 0.225887
0.999507 0.365493 -0.118756
0.999507 0.365493 0.118756
0.999507 0.384302 0
3 212 213 231
3 212 210 213
3 210 211 213
3 210 208 211
3 208 209 211
3 208 206 209
3 206 207 209
3 206 204 207
3 204 205 207
3 204 203 205
3 204 202 203
3 202 201 203
3 202 200 201
3 200 161 201
3 161 0 201
3 200 162 161
3 200 163 162
3 0 164 201
3 200 165 163
3 181 182 180
3 181 214 182
3 214 215 182
3 214 232 215
3 214 233 232
3 232 234 215
3 215 184 182
3 214 235 233
3 303 308 306
3 303 310 308
3 303 311 310
3 303 309 311
3 303 307 309
3 303 305 307
3 303 304 305
3 303 301 304
3 303 299 301
3 303 297 299
3 303 295 297
3 303 293 295
3 303 292 293
3 303 294 292
3 303 296 294
3 303 298 296
3 303 300 298
3 303 302 300
3 123 0 121
3 110 123 113
3 85 110 86
3 71 85 78
3 75 71 79
3 90 75 92
3 119 90 120
3 143 119 141
3 182 143 180
3 254 234 252
3 274 254 272
3 314 274 312
3 354 314 352
3 394 354 392
3 414 394 412
3 374 414 372
3 334 374 332
3 294 334 292
3 121 161 122
3 113 121 109
3 86 113 84
3 78 86 70
3 79 78 74
3 92 79 89
3 120 92 118
3 141 120 142
3 180 141 181
3 252 232 253
3 272 252 273
3 312 272 313
3 352 312 353
3 392 352 393
3 412 392 413
3 372 412 373
3 332 372 333
3 292 332 293
3 122 162 124
3 109 122 107
3 84 109 76
3 70 84 57
3 74 70 62
3 89 74 82
3 118 89 116
3 142 118 144
3 181 142 183
3 253 233 255
3 273 253 275
3 313 273 315
3 353 313 355
3 393 353 395
3 413 393 415
3 373 413 375
3 333 373 335
3 293 333 295
3 124 163 126
3 107 124 101
3 76 107 59
3 57 76 49
3 62 57 53
3 82 62 68
3 116 82 114
3 144 116 146
3 183 144 185
3 214 183 216
3 235 214 237
3 255 235 257
3 275 255 277
3 315 275 317
3 355 315 357
3 395 355 397
3 415 395 417
3 375 415 377
3 335 375 337
3 295 335 297
3 165 200 167
3 126 165 128
3 101 126 97
3 59 101 51
3 49 59 39
3 53 49 43
3 68 53 55
3 114 68 111
3 146 114 148
3 185 146 187
3 216 185 218
3 237 216 239
3 257 237 259
3 277 257 279
3 317 277 319
3 357 317 359
3 397 357 399
3 417 397 419
3 377 417 379
3 337 377 339
3 297 337 299
3 167 202 169
3 128 167 130
3 97 128 87
3 51 97 45
3 39 51 31
3 43 39 33
3 55 43 47
3 111 55 105
3 148 111 150
3 187 148 189
3 218 187 220
3 239 218 241
3 259 239 261
3 279 259 281
3 319 279 321
3 359 319 361
3 399 359 401
3 419 399 421
3 379 419 381
3 339 379 341
3 299 339 301
3 169 204 171
3 130 169 132
3 87 130 80
3 45 87 35
3 31 45 18
3 33 31 22
3 47 33 41
3 105 47 103
3 150 105 152
3 189 150 191
3 220 189 222
3 241 220 243
3 261 241 263
3 281 261 283
3 321 281 323
3 361 321 363
3 401 361 403
3 421 401 423
3 381 421 383
3 341 381 343
3 301 341 304
3 171 206 173
3 132 171 134
3 80 132 72
3 35 80 27
3 18 35 11
3 22 18 13
3 41 22 37
3 103 41 99
3 152 103 154
3 191 152 193
3 222 191 224
3 243 222 245
3 263 243 265
3 283 263 285
3 323 283 325
3 363 323 365
3 403 363 405
3 423 403 425
3 383 423 385
3 343 383 345
3 304 343 305
3 173 208 175
3 134 173 136
3 72 134 66
3 27 72 20
3 11 27 7
3 13 11 9
3 37 13 29
3 99 37 95
3 154 99 156
3 193 154 195
3 224 193 226
3 245 224 247
3 265 245 267
3 285 265 287
3 325 285 327
3 365 325 367
3 405 365 407
3 425 405 427
3 385 425 387
3 345 385 347
3 305 345 307
3 175 210 177
3 136 175 138
3 66 136 64
3 20 66 16
3 7 20 2
3 9 7 5
3 29 9 25
3 95 29 93
3 156 95 158
3 195 156 197
3 226 195 228
3 247 226 249
3 267 247 269
3 287 267 289
3 327 287 329
3 367 327 369
3 407 367 409
3 427 407 429
3 387 427 389
3 347 387 349
3 307 347 309
3 177 212 179
3 138 177 140
3 64 138 61
3 16 64 15
3 2 16 1
3 5 2 4
3 25 5 24
3 93 25 91
3 158 93 160
3 197 158 199
3 228 197 230
3 249 228 251
3 269 249 271
3 289 269 291
3 329 289 331
3 369 329 371
3 409 369 411
3 429 409 431
3 389 429 391
3 349 389 351
3 309 349 311
3 179 231 178
3 140 179 139
3 61 140 65
3 15 61 17
3 1 15 3
3 4 1 6
3 24 4 26
3 91 24 94
3 160 91 159
3 199 160 198
3 230 199 229
3 251 230 250
3 271 251 270
3 291 271 290
3 331 291 330
3 371 331 370
3 411 371 410
3 431 411 430
3 391 431 390
3 351 391 350
3 311 351 310
3 178 213 176
3 139 178 137
3 65 139 67
3 17 65 21
3 3 17 8
3 6 3 10
3 26 6 30
3 94 26 96
3 159 94 157
3 198 159 196
3 229 198 227
3 250 229 248
3 270 250 268
3 290 270 288
3 330 290 328
3 370 330 368
3 410 370 408
3 430 410 428
3 390 430 388
3 350 390 348
3 310 350 308
3 176 211 174
3 137 176 135
3 67 137 73
3 21 67 28
3 8 21 12
3 10 8 14
3 30 10 38
3 96 30 100
3 157 96 155
3 196 157 194
3 227 196 225
3 248 227 246
3 268 248 266
3 288 268 286
3 328 288 326
3 368 328 366
3 408 368 406
3 428 408 426
3 388 428 386
3 348 388 346
3 308 348 306
3 174 209 172
3 135 174 133
3 73 135 81
3 28 73 36
3 12 28 19
3 14 12 23
3 38 14 42
3 100 38 104
3 155 100 153
3 194 155 192
3 225 194 223
3 246 225 244
3 266 246 264
3 286 266 284
3 326 286 324
3 366 326 364
3 406 366 404
3 426 406 424
3 386 426 384
3 346 386 344
3 306 346 303
3 172 207 170
3 133 172 131
3 81 133 88
3 36 81 46
3 19 36 32
3 23 19 34
3 42 23 48
3 104 42 106
3 153 104 151
3 192 153 190
3 223 192 221
3 244 223 242
3 264 244 262
3 284 264 282
3 324 284 322
3 364 324 362
3 404 364 402
3 424 404 422
3 384 424 382
3 344 384 342
3 303 344 302
3 170 205 168
3 131 170 129
3 88 131 98
3 46 88 52
3 32 46 40
3 34 32 44
3 48 34 56
3 106 48 112
3 151 106 149
3 190 151 188
3 221 190 219
3 242 221 240
3 262 242 260
3 282 262 280
3 322 282 320
3 362 322 360
3 402 362 400
3 422 402 420
3 382 422 380
3 342 382 340
3 302 342 300
3 168 203 166
3 129 168 127
3 98 129 102
3 52 98 60
3 40 52 50
3 44 40 54
3 56 44 69
3 112 56 115
3 149 112 147
3 188 149 186
3 219 188 217
3 240 219 238
3 260 240 258
3 280 260 278
3 320 280 318
3 360 320 358
3 400 360 398
3 420 400 418
3 380 420 378
3 340 380 338
3 300 340 298
3 166 201 164
3 127 166 125
3 102 127 108
3 60 102 77
3 50 60 58
3 54 50 63
3 69 54 83
3 115 69 117
3 147 115 145
3 186 147 184
3 217 186 215
3 238 217 236
3 258 238 256
3 278 258 276
3 318 278 316
3 358 318 356
3 398 358 396
3 418 398 416
3 378 418 376
3 338 378 336
3 298 338 296
3 125 164 123
3 108 125 110
3 77 108 85
3 58 77 71
3 63 58 75
3 83 63 90
3 117 83 119
3 145 117 143
3 184 145 182
3 236 215 234
3 256 236 254
3 276 256 274
3 316 276 314
3 356 316 354
3 396 356 394
3 416 396 414
3 376 416 374
3 336 376 334
3 296 336 294
3 121 0 161
3 113 123 121
3 86 110 113
3 78 85 86
3 79 71 78
3 92 75 79
3 120 90 92
3 141 119 120
3 180 143 141
3 252 234 232
3 272 254 252
3 312 274 272
3 352 314 312
3 392 354 352
3 412 394 392
3 372 414 412
3 332 374 372
3 292 334 332
3 122 161 162
3 109 121 122
3 84 113 109
3 70 86 84
3 74 78 70
3 89 79 74
3 118 92 89
3 142 120 118
3 181 141 142
3 253 232 233
3 273 252 253
3 313 272 273
3 353 312 313
3 393 352 353
3 413 392 393
3 373 412 413
3 333 372 373
3 293 332 333
3 124 162 163
3 107 122 124
3 76 109 107
3 57 84 76
3 62 70 57
3 82 74 62
3 116 89 82
3 144 118 116
3 183 142 144
3 214 181 183
3 255 233 235
3 275 253 255
3 315 273 275
3 355 313 315
3 395 353 355
3 415 393 395
3 375 413 415
3 335 373 375
3 295 333 335
3 126 163 165
3 101 124 126
3 59 107 101
3 49 76 59
3 53 57 49
3 68 62 53
3 114 82 68
3 146 116 114
3 185 144 146
3 216 183 185
3 237 214 216
3 257 235 237
3 277 255 257
3 317 275 277
3 357 315 317
3 397 355 357
3 417 395 397
3 377 415 417
3 337 375 377
3 297 335 337
3 167 200 202
3 128 165 167
3 97 126 128
3 51 101 97
3 39 59 51
3 43 49 39
3 55 53 43
3 111 68 55
3 148 114 111
3 187 146 148
3 218 185 187
3 239 216 218
3 259 237 239
3 279 257 259
3 319 277 279
3 359 317 319
3 399 357 359
3 419 397 399
3 379 417 419
3 339 377 379
3 299 337 339
3 169 202 204
3 130 167 169
3 87 128 130
3 45 97 87
3 31 51 45
3 33 39 31
3 47 43 33
3 105 55 47
3 150 111 105
3 189 148 150
3 220 187 189
3 241 218 220
3 261 239 241
3 281 259 261
3 321 279 281
3 361 319 321
3 401 359 361
3 421 399 401
3 381 419 421
3 341 379 381
3 301 339 341
3 171 204 206
3 132 169 171
3 80 130 132
3 35 87 80
3 18 45 35
3 22 31 18
3 41 33 22
3 103 47 41
3 152 105 103
3 191 150 152
3 222 189 191
3 243 220 222
3 263 241 243
3 283 261 263
3 323 281 283
3 363 321 323
3 403 361 363
3 423 401 403
3 383 421 423
3 343 381 383
3 304 341 343
3 173 206 208
3 134 171 173
3 72 132 134
3 27 80 72
3 11 35 27
3 13 18 11
3 37 22 13
3 99 41 37
3 154 103 99
3 193 152 154
3 224 191 193
3 245 222 224
3 265 243 245
3 285 263 265
3 325 283 285
3 365 323 325
3 405 363 365
3 425 403 405
3 385 423 425
3 345 383 385
3 305 343 345
3 175 208 210
3 136 173 175
3 66 134 136
3 20 72 66
3 7 27 20
3 9 11 7
3 29 13 9
3 95 37 29
3 156 99 95
3 195 154 156
3 226 193 195
3 247 224 226
3 267 245 247
3 287 265 267
3 327 285 287
3 367 325 327
3 407 365 367
3 427 405 407
3 387 425 427
3 347 385 387
3 307 345 347
3 177 210 212
3 138 175 177
3 64 136 138
3 16 66 64
3 2 20 16
3 5 7 2
3 25 9 5
3 93 29 25
3 158 95 93
3 197 156 158
3 228 195 197
3 249 226 228
3 269 247 249
3 289 267 269
3 329 287 289
3 369 327 329
3 409 367 369
3 429 407 409
3 389 427 429
3 349 387 389
3 309 347 349
3 179 212 231
3 140 177 179
3 61 138 140
3 15 64 61
3 1 16 15
3 4 2 1
3 24 5 4
3 91 25 24
3 160 93 91
3 199 158 160
3 230 197 199
3 251 228 230
3 271 249 251
3 291 269 271
3 331 289 291
3 371 329 331
3 411 369 371
3 431 409 411
3 391 429 431
3 351 389 391
3 311 349 351
3 178 231 213
3 139 179 178
3 65 140 139
3 17 61 65
3 3 15 17
3 6 1 3
3 26 4 6
3 94 24 26
3 159 91 94
3 198 160 159
3 229 199 198
3 250 230 229
3 270 251 250
3 290 271 270
3 330 291 290
3 370 331 330
3 410 371 370
3 430 411 410
3 390 431 430
3 350 391 390
3 310 351 350
3 176 213 211
3 137 178 176
3 67 139 137
3 21 65 67
3 8 17 21
3 10 3 8
3 30 6 10
3 96 26 30
3 157 94 96
3 196 159 157
3 227 198 196
3 248 229 227
3 268 250 248
3 288 270 268
3 328 290 288
3 368 330 328
3 408 370 368
3 428 410 408
3 388 430 428
3 348 390 388
3 308 350 348
3 174 211 209
3 135 176 174
3 73 137 135
3 28 67 73
3 12 21 28
3 14 8 12
3 38 10 14
3 100 30 38
3 155 96 100
3 194 157 155
3 225 196 194
3 246 227 225
3 266 248 246
3 286 268 266
3 326 288 286
3 366 328 326
3 406 368 366
3 426 408 406
3 386 428 426
3 346 388 386
3 306 348 346
3 172 209 207
3 133 174 172
3 81 135 133
3 36 73 81
3 19 28 36
3 23 12 19
3 42 14 23
3 104 38 42
3 153 100 104
3 192 155 153
3 223 194 192
3 244 225 223
3 264 246 244
3 284 266 264
3 324 286 284
3 364 326 324
3 404 366 364
3 424 406 404
3 384 426 424
3 344 386 384
3 303 346 344
3 170 207 205
3 131 172 170
3 88 133 131
3 46 81 88
3 32 36 46
3 34 19 32
3 48 23 34
3 106 42 48
3 151 104 106
3 190 153 151
3 221 192 190
3 242 223 221
3 262 244 242
3 282 264 262
3 322 284 282
3 362 324 322
3 402 364 362
3 422 404 402
3 382 424 422
3 342 384 382
3 302 344 342
3 168 205 203
3 129 170 168
3 98 131 129
3 52 88 98
3 40 46 52
3 44 32 40
3 56 34 44
3 112 48 56
3 149 106 112
3 188 151 149
3 219 190 188
3 240 221 219
3 260 242 240
3 280 262 260
3 320 282 280
3 360 322 320
3 400 362 360
3 420 402 400
3 380 422 420
3 340 382 380
3 300 342 340
3 166 203 201
3 127 168 166
3 102 129 127
3 60 98 102
3 50 52 60
3 54 40 50
3 69 44 54
3 115 56 69
3 147 112 115
3 186 149 147
3 217 188 186
3 238 219 217
3 258 240 238
3 278 260 258
3 318 280 278
3 358 320 318
3 398 360 358
3 418 400 398
3 378 420 418
3 338 380 378
3 298 340 338
3 125 166 164
3 108 127 125
3 77 102 108
3 58 60 77
3 63 50 58
3 83 54 63
3 117 69 83
3 145 115 117
3 184 147 145
3 215 186 184
3 236 217 215
3 256 238 236
3 276 258 256
3 316 278 276
3 356 318 316
3 396 358 356
3 416 398 396
3 376 418 416
3 336 378 376
3 296 338 336
3 123 164 0
3 110 125 123
3 85 108 110
3 71 77 85
3 75 58 71
3 90 63 75
3 119 83 90
3 143 117 119
3 182 145 143
3 254 236 234
3 274 256 254
3 314 276 274
3 354 316 314
3 394 356 354
3 414 396 394
3 374 416 414
3 334 376 374
3 294 336 334
