ply
format ascii 1.0
element vertex 175
property float x
property float y
property float z
element face 358
property list uchar int vertex_indices
end_header
0.36651 0.551806 0.420328
0.366528 0.423948 0.443588
0.366539 0.366688 0.475427
0.36657 0.478573 0.592545
0.366635 0.511839 0.366668
0.366647 0.529605 0.591001
0.366647 0.633328 0.366663
0.366656 0.463672 0.411653
0.366662 0.63333 0.633345
0.36667 0.633355 0.507897
0.366677 0.427997 0.560553
0.36668 0.466816 0.633325
0.366694 0.577248 0.556771
0.366696 0.366666 0.633323
0.366725 0.575318 0.444371
0.366737 0.366676 0.366663
0.367041 0.512928 0.406548
0.369497 0.411446 0.512339
0.390267 0.581549 0.469214
0.395704 0.445939 0.579156
0.398947 0.496004 0.9
0.399015 0.509358 0.633276
0.399272 0.510095 0.777735
0.399449 0.48632 0.099999
0.399465 0.51174 0.366687
0.399763 0.485741 0.691541
0.402659 0.594 0.517505
0.40357 0.471333 0.366622
0.403629 0.531274 0.688206
0.404372 0.465929 0.841981
0.404476 0.533892 0.09998
0.404557 0.532807 0.870563
0.405801 0.406486 0.469613
0.406368 0.40378 0.515598
0.406496 0.458366 0.633417
0.407605 0.366655 0.513423
0.40906 0.633428 0.517861
0.409098 0.480564 0.408104
0.410838 0.551985 0.900161
0.412886 0.551538 0.782533
0.413647 0.553787 0.633319
0.414027 0.591769 0.46277
0.414497 0.553864 0.366674
0.415188 0.444476 0.900061
0.416642 0.441732 0.099933
0.417576 0.632965 0.461873
0.417619 0.440854 0.676089
0.418009 0.386972 0.550048
0.419811 0.437901 0.366666
0.422317 0.422941 0.554531
0.42433 0.433827 0.796763
0.426137 0.569191 0.128699
0.426328 0.633331 0.438852
0.426489 0.569425 0.863073
0.427013 0.570175 0.664891
0.428845 0.366626 0.435082
0.430675 0.571804 0.560866
0.43071 0.633324 0.56722
0.431563 0.366657 0.570338
0.434132 0.495774 0.595536
0.44096 0.416985 0.633386
0.442064 0.582639 0.775181
0.443513 0.558742 0.42452
0.443558 0.58359 0.099917
0.445746 0.414334 0.89674
0.44653 0.445662 0.422231
0.447403 0.413586 0.100152
0.449122 0.588228 0.366695
0.45081 0.391366 0.580216
0.451758 0.410076 0.732055
0.453696 0.546402 0.58296
0.454797 0.45655 0.583808
0.454949 0.408407 0.366689
0.457944 0.592684 0.900008
0.45831 0.592441 0.633298
0.459768 0.592607 0.273991
0.464395 0.633329 0.412146
0.466166 0.519755 0.407995
0.470603 0.366667 0.409916
0.476447 0.633346 0.59188
0.479234 0.599048 0.100007
0.479402 0.401463 0.099999
0.481899 0.599368 0.806889
0.482295 0.401013 0.900001
0.484001 0.366662 0.592769
0.485342 0.57132 0.406524
0.485453 0.475968 0.406691
0.488735 0.399579 0.633311
0.497248 0.601011 0.366694
0.498979 0.398857 0.291218
0.500722 0.600256 0.633325
0.502245 0.51326 0.594985
0.509605 0.601175 0.900117
0.511325 0.399196 0.366696
0.513369 0.36666 0.406108
0.516096 0.633349 0.406424
0.5164 0.523402 0.407632
0.518218 0.633339 0.592328
0.518691 0.599119 0.10003
0.518714 0.40107 0.099939
0.520006 0.400691 0.899973
0.523329 0.366662 0.591658
0.523531 0.431841 0.409186
0.525425 0.40302 0.689951
0.537294 0.594125 0.633313
0.537668 0.497614 0.594794
0.537722 0.404936 0.633319
0.539124 0.477771 0.408991
0.54101 0.593091 0.36664
0.544977 0.426595 0.583634
0.547235 0.549253 0.582754
0.548918 0.410942 0.245247
0.552386 0.366667 0.419795
0.553044 0.51189 0.405851
0.553986 0.4143 0.730297
0.55408 0.414383 0.100431
0.554397 0.414642 0.900003
0.55465 0.552816 0.4218
0.555299 0.585185 0.899998
0.556285 0.583335 0.099963
0.556287 0.602427 0.423084
0.557205 0.41573 0.366688
0.557205 0.439816 0.426644
0.557943 0.451457 0.581452
0.558353 0.63334 0.574982
0.565696 0.576268 0.264443
0.572596 0.366617 0.562341
0.575034 0.633337 0.441059
0.576438 0.566346 0.63333
0.581093 0.366666 0.452735
0.581119 0.580507 0.548465
0.581474 0.419608 0.451432
0.581908 0.44006 0.258508
0.582995 0.440999 0.100005
0.583056 0.441698 0.899964
0.583178 0.440816 0.633322
0.585187 0.586037 0.457403
0.585526 0.553531 0.900112
0.585722 0.556333 0.36666
0.586573 0.553039 0.099995
0.588174 0.63333 0.536638
0.589111 0.547532 0.268884
0.592583 0.458218 0.366764
0.592951 0.413956 0.537066
0.594049 0.594518 0.504603
0.594569 0.633347 0.490859
0.595862 0.404848 0.488646
0.596317 0.531402 0.633336
0.597043 0.366663 0.501467
0.597546 0.523071 0.899447
0.5976 0.475929 0.099982
0.60115 0.511638 0.100042
0.601338 0.483863 0.899993
0.601608 0.486441 0.633317
0.601637 0.509224 0.366612
0.619688 0.553541 0.420434
0.6333 0.633333 0.478839
0.633321 0.541413 0.633335
0.633326 0.594266 0.517217
0.633327 0.46128 0.366661
0.633328 0.366666 0.366656
0.633329 0.366677 0.633343
0.633329 0.573376 0.428507
0.63333 0.407637 0.477808
0.633332 0.517413 0.40738
0.633333 0.408397 0.522066
0.63334 0.633332 0.633335
0.633343 0.633327 0.366678
0.633344 0.470566 0.590359
0.633345 0.428853 0.436365
0.633349 0.570182 0.565253
0.633352 0.423353 0.559961
0.633352 0.474346 0.408372
0.633377 0.516904 0.593553
0.633699 0.589491 0.468717
3 1 32 65
3 1 65 7
3 32 55 65
3 1 15 2
3 17 1 2
3 32 1 17
3 7 65 37
3 4 7 16
3 55 32 35
3 35 2 55
3 17 33 32
3 16 7 37
3 4 16 0
3 72 15 48
3 33 17 10
3 0 16 77
3 17 2 10
3 0 14 4
3 27 4 24
3 94 86 78
3 78 55 15
3 0 77 62
3 33 10 49
3 10 3 19
3 6 4 14
3 23 27 24
3 24 30 23
3 122 102 112
3 112 102 94
3 94 78 15
3 107 102 122
3 86 102 107
3 86 96 77
3 62 77 85
3 58 2 35
3 19 71 49
3 41 0 62
3 14 0 41
3 3 10 11
3 6 14 9
3 24 42 30
3 160 94 15
3 112 94 160
3 172 107 122
3 96 86 107
3 107 113 96
3 85 76 62
3 58 35 47
3 47 68 58
3 68 49 71
3 41 52 45
3 18 14 41
3 41 45 18
3 93 121 160
3 93 72 89
3 113 107 172
3 172 164 113
3 113 117 96
3 52 62 76
3 5 3 11
3 60 11 13
3 87 60 13
3 6 52 76
3 169 131 163
3 95 96 117
3 117 120 95
3 76 85 95
3 101 84 91
3 159 160 121
3 121 93 111
3 21 11 34
3 34 60 46
3 13 161 87
3 88 67 6
3 42 67 51
3 42 51 30
3 163 160 169
3 164 172 159
3 161 84 101
3 91 71 59
3 59 5 70
3 36 45 9
3 121 142 159
3 12 5 8
3 25 34 46
3 46 60 69
3 75 67 88
3 51 67 75
3 165 163 146
3 142 154 159
3 136 117 155
3 136 120 117
3 6 95 167
3 101 126 161
3 70 5 12
3 56 12 26
3 142 121 132
3 8 5 11
3 21 40 11
3 21 34 25
3 25 28 21
3 50 29 46
3 106 87 161
3 69 60 87
3 9 12 8
3 44 81 66
3 148 146 129
3 143 165 146
3 150 142 132
3 127 167 95
3 123 91 105
3 56 70 12
3 56 26 57
3 81 72 66
3 89 72 81
3 40 21 28
3 25 46 29
3 29 22 25
3 50 46 69
3 135 106 161
3 103 87 106
3 138 108 167
3 63 51 75
3 165 171 161
3 156 162 167
3 155 164 162
3 154 138 159
3 154 142 150
3 174 136 155
3 127 95 120
3 120 136 127
3 123 105 168
3 126 109 143
3 143 109 123
3 57 70 56
3 81 99 89
3 28 25 22
3 114 106 135
3 103 106 114
3 100 87 103
3 125 108 138
3 80 75 88
3 133 81 23
3 126 148 161
3 171 165 143
3 127 156 167
3 155 162 174
3 167 159 138
3 154 141 138
3 144 136 174
3 105 173 168
3 79 70 57
3 79 91 70
3 40 74 8
3 39 28 22
3 99 81 133
3 171 143 123
3 125 138 141
3 141 154 151
3 110 105 91
3 173 105 110
3 110 170 173
3 79 97 91
3 79 57 8
3 111 99 115
3 90 8 74
3 74 40 54
3 54 61 74
3 54 28 39
3 29 50 43
3 100 103 114
3 51 63 30
3 110 91 97
3 97 124 110
3 166 8 90
3 82 74 61
3 90 74 82
3 61 54 39
3 157 147 153
3 83 69 87
3 145 144 140
3 130 158 170
3 144 158 130
3 130 140 144
3 157 173 170
3 170 110 130
3 124 97 166
3 90 104 166
3 92 90 82
3 22 29 20
3 20 31 22
3 152 153 147
3 114 116 100
3 83 87 100
3 88 98 80
3 170 158 156
3 141 151 139
3 130 110 124
3 104 90 92
3 39 22 31
3 43 64 83
3 134 114 135
3 116 114 134
3 98 88 108
3 166 170 156
3 125 141 139
3 128 166 104
3 39 53 61
3 38 31 20
3 119 108 125
3 119 125 139
3 73 61 53
3 82 61 73
3 53 31 38
3 119 98 108
3 92 82 73
3 73 53 38
3 134 152 116
3 134 135 152
3 147 137 149
3 137 147 128
3 137 128 118
3 40 8 11
3 111 132 121
3 11 60 34
3 31 53 39
3 148 129 160
3 160 161 148
3 143 146 126
3 52 41 62
3 122 131 169
3 169 172 122
3 59 71 19
3 19 3 59
3 156 145 140
3 6 76 95
3 123 168 171
3 57 26 36
3 158 144 174
3 174 156 158
3 4 27 48
3 156 174 162
3 49 68 47
3 101 91 109
3 109 126 101
3 148 126 146
3 127 136 145
3 145 156 127
3 28 54 40
3 63 75 80
3 3 5 59
3 20 29 43
3 86 37 65
3 128 147 157
3 157 166 128
3 97 79 8
3 8 166 97
3 19 49 10
3 15 4 48
3 42 24 4
3 13 58 84
3 84 161 13
3 14 12 9
3 131 129 146
3 146 163 131
3 23 81 44
3 58 68 84
3 124 140 130
3 136 144 145
3 26 18 45
3 45 36 26
3 64 69 83
3 35 32 33
3 131 122 112
3 112 129 131
3 98 119 80
3 133 115 99
3 129 112 160
3 13 2 58
3 55 2 15
3 10 2 13
3 13 11 10
3 170 166 157
3 171 168 161
3 113 164 155
3 155 117 113
3 160 163 165
3 165 161 160
3 52 6 9
3 9 45 52
3 116 152 118
3 137 118 152
3 152 149 137
3 83 100 116
3 118 92 73
3 153 152 135
3 123 109 91
3 135 161 157
3 157 153 135
3 94 102 86
3 84 68 71
3 71 91 84
3 20 118 73
3 73 38 20
3 20 43 83
3 50 69 64
3 64 43 50
3 57 36 9
3 9 8 57
3 65 55 78
3 78 86 65
3 139 133 80
3 80 119 139
3 44 48 27
3 27 23 44
3 42 4 6
3 6 67 42
3 15 1 7
3 7 4 15
3 157 161 168
3 168 173 157
3 166 156 140
3 140 124 166
3 104 92 118
3 118 128 104
3 150 151 154
3 14 18 26
3 26 12 14
3 59 70 91
3 164 159 167
3 167 162 164
3 30 63 80
3 150 132 133
3 16 37 86
3 86 77 16
3 77 96 95
3 95 85 77
3 152 147 149
3 133 23 30
3 30 80 133
3 132 111 115
3 115 133 132
3 93 89 99
3 99 111 93
3 160 15 72
3 72 93 160
3 172 169 160
3 160 159 172
3 118 20 83
3 83 116 118
3 35 33 49
3 49 47 35
3 66 72 48
3 48 44 66
3 150 133 139
3 139 151 150
3 108 88 6
3 6 167 108
