ply
format ascii 1.0
element vertex 574
property float x
property float y
property float z
element face 1132
property list uchar int vertex_indices
end_header
0.208856 0.0940907 8.20008e-05
0.205826 0.10558 8.20008e-05
0.209346 0.10941 8.20008e-05
0.216516 0.10558 8.20008e-05
0.224416 0.0940907 8.20008e-05
0.191986 0.0940907 0.085562
0.189176 0.10558 0.084372
0.192426 0.10941 0.085762
0.199046 0.10558 0.088572
0.206336 0.0940907 0.091672
0.145696 0.0940907 0.154715
0.143546 0.10558 0.152559
0.146046 0.10941 0.155061
0.151136 0.10558 0.160152
0.156746 0.0940907 0.165761
0.0765561 0.0940907 0.200997
0.0753564 0.10558 0.198193
0.0767464 0.10941 0.201445
0.0795564 0.10558 0.20806
0.0826563 0.0940907 0.215347
-0.00893364 0.0940907 0.217876
-0.00893364 0.10558 0.214837
-0.00893364 0.10941 0.218362
-0.00893364 0.10558 0.225532
-0.00893364 0.0940907 0.233432
-0.100324 0.0940907 0.200997
-0.0957137 0.10558 0.198193
-0.0953437 0.10941 0.201445
-0.0975137 0.10558 0.20806
-0.100524 0.0940907 0.215347
-0.168814 0.0940907 0.154715
-0.163624 0.10558 0.152559
-0.164564 0.10941 0.155061
-0.169084 0.10558 0.160152
-0.174614 0.0940907 0.165761
-0.211814 0.0940907 0.085562
-0.207874 0.10558 0.084372
-0.210544 0.10941 0.085762
-0.216944 0.10558 0.088572
-0.224194 0.0940907 0.091672
-0.226724 0.0940907 8.20008e-05
-0.223684 0.10558 8.20008e-05
-0.227214 0.10941 8.20008e-05
-0.234384 0.10558 8.20008e-05
-0.242284 0.0940907 8.20008e-05
-0.209844 0.0940907 -0.085398
-0.207044 0.10558 -0.084208
-0.210294 0.10941 -0.085588
-0.216914 0.10558 -0.088408
-0.224194 0.0940907 -0.091508
-0.163564 0.0940907 -0.154548
-0.161404 0.10558 -0.152388
-0.163914 0.10941 -0.154898
-0.169004 0.10558 -0.159988
-0.174614 0.0940907 -0.165598
-0.0944138 0.0940907 -0.200828
-0.0932236 0.10558 -0.198028
-0.0946036 0.10941 -0.201278
-0.0974236 0.10558 -0.207898
-0.100524 0.0940907 -0.215178
-0.00893364 0.0940907 -0.217708
-0.00893364 0.10558 -0.214668
-0.00893364 0.10941 -0.218198
-0.00893364 0.10558 -0.225368
-0.00893364 0.0940907 -0.233268
0.0765561 0.0940907 -0.200828
0.0753564 0.10558 -0.198028
0.0767464 0.10941 -0.201278
0.0795564 0.10558 -0.207898
0.0826563 0.0940907 -0.215178
0.145696 0.0940907 -0.154548
0.143546 0.10558 -0.152388
0.146046 0.10941 -0.154898
0.151136 0.10558 -0.159988
0.156746 0.0940907 -0.165598
0.191986 0.0940907 -0.085398
0.189176 0.10558 -0.084208
0.192426 0.10941 -0.085588
0.199046 0.10558 -0.088408
0.206336 0.0940907 -0.091508
0.252976 0.0330203 8.20008e-05
0.277896 -0.0269596 8.20008e-05
0.295516 -0.0847493 8.20008e-05
0.302196 -0.13926 8.20008e-05
0.232676 0.0330203 0.102882
0.255666 -0.0269596 0.112661
0.271916 -0.0847493 0.119578
0.278086 -0.13926 0.122202
0.177026 0.0330203 0.186039
0.194716 -0.0269596 0.203729
0.207226 -0.0847493 0.216241
0.211976 -0.13926 0.220987
0.0938663 0.0330203 0.241695
0.103646 -0.0269596 0.264679
0.110566 -0.0847493 0.280936
0.113186 -0.13926 0.287103
-0.00893364 0.0330203 0.261993
-0.00893364 -0.0269596 0.286908
-0.00893364 -0.0847493 0.304531
-0.00893364 -0.13926 0.311215
-0.111734 0.0330203 0.241695
-0.121514 -0.0269596 0.264679
-0.128424 -0.0847493 0.280936
-0.131054 -0.13926 0.287103
-0.194894 0.0330203 0.186039
-0.212574 -0.0269596 0.203729
-0.225094 -0.0847493 0.216241
-0.229834 -0.13926 0.220987
-0.250544 0.0330203 0.102882
-0.273524 -0.0269596 0.112661
-0.289784 -0.0847493 0.119578
-0.295954 -0.13926 0.122202
-0.270844 0.0330203 8.20008e-05
-0.295754 -0.0269596 8.20008e-05
-0.313384 -0.0847493 8.20008e-05
-0.320064 -0.13926 8.20008e-05
-0.250544 0.0330203 -0.102718
-0.273524 -0.0269596 -0.112498
-0.289784 -0.0847493 -0.119418
-0.295954 -0.13926 -0.122038
-0.194894 0.0330203 -0.185878
-0.212574 -0.0269596 -0.203568
-0.225094 -0.0847493 -0.216078
-0.229834 -0.13926 -0.220818
-0.111734 0.0330203 -0.241528
-0.121514 -0.0269596 -0.264518
-0.128424 -0.0847493 -0.280768
-0.131054 -0.13926 -0.286938
-0.00893364 0.0330203 -0.261828
-0.00893364 -0.0269596 -0.286738
-0.00893364 -0.0847493 -0.304368
-0.00893364 -0.13926 -0.311048
0.0938663 0.0330203 -0.241528
0.103646 -0.0269596 -0.264518
0.110566 -0.0847493 -0.280768
0.113186 -0.13926 -0.286938
0.177026 0.0330203 -0.185878
0.194716 -0.0269596 -0.203568
0.207226 -0.0847493 -0.216078
0.211976 -0.13926 -0.220818
0.232676 0.0330203 -0.102718
0.255666 -0.0269596 -0.112498
0.271916 -0.0847493 -0.119418
0.278086 -0.13926 -0.122038
0.290046 -0.18538 8.20008e-05
0.263306 -0.219469 8.20008e-05
0.236566 -0.24262 8.20008e-05
0.224416 -0.25593 8.20008e-05
0.266876 -0.18538 0.117432
0.242206 -0.219469 0.106942
0.217546 -0.24262 0.096442
0.206336 -0.25593 0.091672
0.203346 -0.18538 0.212358
0.184356 -0.219469 0.193374
0.165376 -0.24262 0.17439
0.156746 -0.25593 0.165761
0.108416 -0.18538 0.275891
0.0979261 -0.219469 0.251225
0.0874261 -0.24262 0.226559
0.0826563 -0.25593 0.215347
-0.00893364 -0.18538 0.299062
-0.00893364 -0.219469 0.272324
-0.00893364 -0.24262 0.245586
-0.00893364 -0.25593 0.233432
-0.126284 -0.18538 0.275891
-0.115784 -0.219469 0.251225
-0.105294 -0.24262 0.226559
-0.100524 -0.25593 0.215347
-0.221204 -0.18538 0.212358
-0.202224 -0.219469 0.193374
-0.183244 -0.24262 0.17439
-0.174614 -0.25593 0.165761
-0.284744 -0.18538 0.117432
-0.260074 -0.219469 0.106942
-0.235414 -0.24262 0.096442
-0.224194 -0.25593 0.091672
-0.307914 -0.18538 8.20008e-05
-0.281174 -0.219469 8.20008e-05
-0.254434 -0.24262 8.20008e-05
-0.242284 -0.25593 8.20008e-05
-0.284744 -0.18538 -0.117268
-0.260074 -0.219469 -0.106768
-0.235414 -0.24262 -0.096278
-0.224194 -0.25593 -0.091508
-0.221204 -0.18538 -0.212188
-0.202224 -0.219469 -0.193208
-0.183244 -0.24262 -0.174228
-0.174614 -0.25593 -0.165598
-0.126284 -0.18538 -0.275728
-0.115784 -0.219469 -0.251058
-0.105294 -0.24262 -0.226398
-0.100524 -0.25593 -0.215178
-0.00893364 -0.18538 -0.298898
-0.00893364 -0.219469 -0.272158
-0.00893364 -0.24262 -0.245418
-0.00893364 -0.25593 -0.233268
0.108416 -0.18538 -0.275728
0.0979261 -0.219469 -0.251058
0.0874261 -0.24262 -0.226398
0.0826563 -0.25593 -0.215178
0.203346 -0.18538 -0.212188
0.184356 -0.219469 -0.193208
0.165376 -0.24262 -0.174228
0.156746 -0.25593 -0.165598
0.266876 -0.18538 -0.117268
0.242206 -0.219469 -0.106768
0.217546 -0.24262 -0.096278
0.206336 -0.25593 -0.091508
0.219126 -0.2645 8.20008e-05
0.190876 -0.27197 8.20008e-05
0.121046 -0.27726 8.20008e-05
-0.00893364 -0.27927 8.20008e-05
0.201456 -0.2645 0.089602
0.175386 -0.27197 0.078502
0.110976 -0.27726 0.051102
0.152996 -0.2645 0.162007
0.132926 -0.27197 0.141945
0.0833563 -0.27726 0.092372
0.0805864 -0.2645 0.210471
0.0694961 -0.27197 0.184403
0.0420861 -0.27726 0.119992
-0.00893364 -0.2645 0.228145
-0.00893364 -0.27197 0.199888
-0.00893364 -0.27726 0.130065
-0.0984436 -0.2645 0.210471
-0.0873538 -0.27197 0.184403
-0.0599537 -0.27726 0.119992
-0.170854 -0.2645 0.162007
-0.150794 -0.27197 0.141945
-0.101224 -0.27726 0.092372
-0.219324 -0.2645 0.089602
-0.193254 -0.27197 0.078502
-0.128844 -0.27726 0.051102
-0.236994 -0.2645 8.20008e-05
-0.208734 -0.27197 8.20008e-05
-0.138914 -0.27726 8.20008e-05
-0.219324 -0.2645 -0.089428
-0.193254 -0.27197 -0.078338
-0.128844 -0.27726 -0.050938
-0.170854 -0.2645 -0.161838
-0.150794 -0.27197 -0.141778
-0.101224 -0.27726 -0.092208
-0.0984436 -0.2645 -0.210308
-0.0873538 -0.27197 -0.184238
-0.0599537 -0.27726 -0.119828
-0.00893364 -0.2645 -0.227978
-0.00893364 -0.27197 -0.199718
-0.00893364 -0.27726 -0.129898
0.0805864 -0.2645 -0.210308
0.0694961 -0.27197 -0.184238
0.0420861 -0.27726 -0.119828
0.152996 -0.2645 -0.161838
0.132926 -0.27197 -0.141778
0.0833563 -0.27726 -0.092208
0.201456 -0.2645 -0.089428
0.175386 -0.27197 -0.078338
0.110976 -0.27726 -0.050938
-0.257844 0.0357506 8.20008e-05
-0.330514 0.0352104 8.20008e-05
-0.384234 0.0313804 8.20008e-05
-0.417534 0.0209906 8.20008e-05
-0.428964 0.000750364 8.20008e-05
-0.255404 0.0412204 0.026332
-0.332684 0.0405905 0.026332
-0.389404 0.0361703 0.026332
-0.424334 0.0241506 0.026332
-0.436254 0.000750364 0.026332
-0.250064 0.0532606 0.035082
-0.337444 0.0524404 0.035082
-0.400764 0.0466907 0.035082
-0.439294 0.0311105 0.035082
-0.452294 0.000750364 0.035082
-0.244714 0.0652907 0.026332
-0.342204 0.0642803 0.026332
-0.412134 0.0572207 0.026332
-0.454244 0.0380604 0.026332
-0.468344 0.000750364 0.026332
-0.242284 0.0707605 8.20008e-05
-0.344374 0.0696604 8.20008e-05
-0.417294 0.0620105 8.20008e-05
-0.461044 0.0412204 8.20008e-05
-0.475634 0.000750364 8.20008e-05
-0.244714 0.0652907 -0.026168
-0.342204 0.0642803 -0.026168
-0.412134 0.0572207 -0.026168
-0.454244 0.0380604 -0.026168
-0.468344 0.000750364 -0.026168
-0.250064 0.0532606 -0.034918
-0.337444 0.0524404 -0.034918
-0.400764 0.0466907 -0.034918
-0.439294 0.0311105 -0.034918
-0.452294 0.000750364 -0.034918
-0.255404 0.0412204 -0.026168
-0.332684 0.0405905 -0.026168
-0.389404 0.0361703 -0.026168
-0.424334 0.0241506 -0.026168
-0.436254 0.000750364 -0.026168
-0.422884 -0.0309694 8.20008e-05
-0.403684 -0.0692494 8.20008e-05
-0.369894 -0.107539 8.20008e-05
-0.320064 -0.13926 8.20008e-05
-0.429514 -0.0340297 0.026332
-0.408394 -0.0739195 0.026332
-0.371544 -0.1133 0.026332
-0.317634 -0.14655 0.026332
-0.444094 -0.0407693 0.035082
-0.418754 -0.0841995 0.035082
-0.375184 -0.12599 0.035082
-0.312284 -0.162589 0.035082
-0.458674 -0.0474994 0.026332
-0.429114 -0.0944792 0.026332
-0.378814 -0.13868 0.026332
-0.306944 -0.17864 0.026332
-0.465304 -0.0505693 8.20008e-05
-0.433824 -0.0991494 8.20008e-05
-0.380474 -0.14445 8.20008e-05
-0.304504 -0.18593 8.20008e-05
-0.458674 -0.0474994 -0.026168
-0.429114 -0.0944792 -0.026168
-0.378814 -0.13868 -0.026168
-0.306944 -0.17864 -0.026168
-0.444094 -0.0407693 -0.034918
-0.418754 -0.0841995 -0.034918
-0.375184 -0.12599 -0.034918
-0.312284 -0.162589 -0.034918
-0.429514 -0.0340297 -0.026168
-0.408394 -0.0739195 -0.026168
-0.371544 -0.1133 -0.026168
-0.317634 -0.14655 -0.026168
0.255526 -0.0575797 8.20008e-05
0.330156 -0.0404494 8.20008e-05
0.362486 0.000750364 8.20008e-05
0.380226 0.0507004 8.20008e-05
0.411096 0.0940907 8.20008e-05
0.255526 -0.0776393 0.057832
0.335846 -0.0553195 0.052232
0.369776 -0.00790947 0.039902
0.389116 0.0475705 0.027562
0.425676 0.0940907 0.021962
0.255526 -0.12176 0.077092
0.348386 -0.0880295 0.069612
0.385816 -0.0269596 0.053172
0.408666 0.0406807 0.0367221
0.457766 0.0940907 0.029252
0.255526 -0.16587 0.057832
0.360916 -0.12074 0.052232
0.401856 -0.0460093 0.039902
0.428216 0.0337804 0.027562
0.489856 0.0940907 0.021962
0.255526 -0.18593 8.20008e-05
0.366616 -0.135609 8.20008e-05
0.409156 -0.0546696 8.20008e-05
0.437106 0.0306504 8.20008e-05
0.504436 0.0940907 8.20008e-05
0.255526 -0.16587 -0.057668
0.360916 -0.12074 -0.052068
0.401856 -0.0460093 -0.0397281
0.428216 0.0337804 -0.027398
0.489856 0.0940907 -0.021798
0.255526 -0.12176 -0.076918
0.348386 -0.0880295 -0.069448
0.385816 -0.0269596 -0.053008
0.408666 0.0406807 -0.036558
0.457766 0.0940907 -0.029088
0.255526 -0.0776393 -0.057668
0.335846 -0.0553195 -0.052068
0.369776 -0.00790947 -0.0397281
0.389116 0.0475705 -0.027398
0.425676 0.0940907 -0.021798
0.422276 0.10066 8.20008e-05
0.430546 0.102841 8.20008e-05
0.432976 0.10066 8.20008e-05
0.426656 0.0940907 8.20008e-05
0.437896 0.10098 0.020592
0.445206 0.10336 0.017582
0.445416 0.101101 0.014572
0.436376 0.0940907 0.013212
0.472256 0.10168 0.027432
0.477456 0.10448 0.023422
0.472806 0.102091 0.019402
0.457766 0.0940907 0.017582
0.506626 0.10239 0.020592
0.509706 0.105611 0.017582
0.500196 0.10308 0.014572
0.479156 0.0940907 0.013212
0.522246 0.10271 8.20008e-05
0.524366 0.10612 8.20008e-05
0.512636 0.103531 8.20008e-05
0.488876 0.0940907 8.20008e-05
0.506626 0.10239 -0.020428
0.509706 0.105611 -0.017418
0.500196 0.10308 -0.014408
0.479156 0.0940907 -0.0130481
0.472256 0.10168 -0.0272581
0.477456 0.10448 -0.023248
0.472806 0.102091 -0.019238
0.457766 0.0940907 -0.017418
0.437896 0.10098 -0.020428
0.445206 0.10336 -0.017418
0.445416 0.101101 -0.014408
0.436376 0.0940907 -0.0130481
-0.00893364 0.21077 8.20008e-05
0.0440564 0.20311 8.20008e-05
0.0416264 0.18452 8.20008e-05
0.021696 0.16155 8.20008e-05
0.0221762 0.140761 8.20008e-05
0.039966 0.20311 0.0209319
0.0377263 0.18452 0.019972
0.0193261 0.16155 0.012122
0.0197663 0.140761 0.012292
0.0287361 0.20311 0.037752
0.0270061 0.18452 0.0360219
0.0128264 0.16155 0.021842
0.0131564 0.140761 0.022172
0.0119261 0.20311 0.048982
0.0109562 0.18452 0.046742
0.00310603 0.16155 0.028342
0.00327626 0.140761 0.028782
-0.00893364 0.20311 0.053072
-0.00893364 0.18452 0.050642
-0.00893364 0.16155 0.030712
-0.00893364 0.140761 0.0311921
-0.0297838 0.20311 0.048982
-0.0288239 0.18452 0.046742
-0.0209737 0.16155 0.028342
-0.021144 0.140761 0.028782
-0.0466037 0.20311 0.037752
-0.0448738 0.18452 0.0360219
-0.0306936 0.16155 0.021842
-0.0310236 0.140761 0.022172
-0.0578337 0.20311 0.0209319
-0.0555936 0.18452 0.019972
-0.0371938 0.16155 0.012122
-0.037634 0.140761 0.012292
-0.0619236 0.20311 8.20008e-05
-0.0594936 0.18452 8.20008e-05
-0.0395637 0.16155 8.20008e-05
-0.0400439 0.140761 8.20008e-05
-0.0578337 0.20311 -0.0207681
-0.0555936 0.18452 -0.0198081
-0.0371938 0.16155 -0.011958
-0.037634 0.140761 -0.012128
-0.0466037 0.20311 -0.037588
-0.0448738 0.18452 -0.035858
-0.0306936 0.16155 -0.021678
-0.0310236 0.140761 -0.022008
-0.0297838 0.20311 -0.048818
-0.0288239 0.18452 -0.0465781
-0.0209737 0.16155 -0.028178
-0.021144 0.140761 -0.028618
-0.00893364 0.20311 -0.052908
-0.00893364 0.18452 -0.050478
-0.00893364 0.16155 -0.030548
-0.00893364 0.140761 -0.031028
0.0119261 0.20311 -0.048818
0.0109562 0.18452 -0.0465781
0.00310603 0.16155 -0.028178
0.00327626 0.140761 -0.028618
0.0287361 0.20311 -0.037588
0.0270061 0.18452 -0.035858
0.0128264 0.16155 -0.021678
0.0131564 0.140761 -0.022008
0.039966 0.20311 -0.0207681
0.0377263 0.18452 -0.0198081
0.0193261 0.16155 -0.011958
0.0197663 0.140761 -0.012128
0.062046 0.12691 8.20008e-05
0.119406 0.11743 8.20008e-05
0.170936 0.10795 8.20008e-05
0.193306 0.0940907 8.20008e-05
0.0565462 0.12691 0.027942
0.109466 0.11743 0.050452
0.156996 0.10795 0.070682
0.177626 0.0940907 0.079462
0.0414662 0.12691 0.050472
0.0821862 0.11743 0.091202
0.118776 0.10795 0.127793
0.134656 0.0940907 0.14367
0.0189261 0.12691 0.065562
0.0414461 0.11743 0.118478
0.0616664 0.10795 0.166016
0.0704464 0.0940907 0.186646
-0.00893364 0.12691 0.071062
-0.00893364 0.11743 0.128425
-0.00893364 0.10795 0.179956
-0.00893364 0.0940907 0.202319
-0.0367938 0.12691 0.065562
-0.0593038 0.11743 0.118478
-0.0795336 0.10795 0.166016
-0.0883136 0.0940907 0.186646
-0.0593238 0.12691 0.050472
-0.100054 0.11743 0.091202
-0.136644 0.10795 0.127793
-0.152524 0.0940907 0.14367
-0.0744138 0.12691 0.027942
-0.127324 0.11743 0.050452
-0.174864 0.10795 0.070682
-0.195494 0.0940907 0.079462
-0.0799137 0.12691 8.20008e-05
-0.137274 0.11743 8.20008e-05
-0.188804 0.10795 8.20008e-05
-0.211164 0.0940907 8.20008e-05
-0.0744138 0.12691 -0.027778
-0.127324 0.11743 -0.050288
-0.174864 0.10795 -0.070518
-0.195494 0.0940907 -0.079298
-0.0593238 0.12691 -0.050308
-0.100054 0.11743 -0.091038
-0.136644 0.10795 -0.127628
-0.152524 0.0940907 -0.143508
-0.0367938 0.12691 -0.065398
-0.0593038 0.11743 -0.118318
-0.0795336 0.10795 -0.165848
-0.0883136 0.0940907 -0.186478
-0.00893364 0.12691 -0.070898
-0.00893364 0.11743 -0.128258
-0.00893364 0.10795 -0.179788
-0.00893364 0.0940907 -0.202158
0.0189261 0.12691 -0.065398
0.0414461 0.11743 -0.118318
0.0616664 0.10795 -0.165848
0.0704464 0.0940907 -0.186478
0.0414662 0.12691 -0.050308
0.0821862 0.11743 -0.091038
0.118776 0.10795 -0.127628
0.134656 0.0940907 -0.143508
0.0565462 0.12691 -0.027778
0.109466 0.11743 -0.050288
0.156996 0.10795 -0.070518
0.177626 0.0940907 -0.079298
0.169806 0.0940907 0.035262
0.149426 0.0940907 -0.00679804
0.125736 0.0940907 -0.050548
0.0899963 0.0940907 -0.065088
0.0517763 0.0940907 -0.062918
0.0101861 0.0940907 -0.037938
0.044516 0.0940907 0.102132
-0.138234 0.0940907 -0.00797797
-0.119254 0.0940907 0.082242
-0.108404 0.0940907 0.124237
-0.0908938 0.0940907 0.150595
0.075076 0.0940907 -0.117428
0.011876 0.0940907 -0.094298
-0.033794 0.0940907 0.0268119
0.125776 0.0940907 -0.094218
0.128806 0.0940907 0.061502
0.0231661 0.0940907 -0.153408
0.0709662 0.0940907 -0.003518
-0.0390835 0.0940907 -0.138518
-0.115924 0.0940907 -0.107548
-0.0507036 0.0940907 -0.059378
-0.0549236 0.0940907 0.108587
-0.0222836 0.0940907 0.16368
0.454206 0.0940907 0.00519203
0.461336 0.0940907 -0.00501801
0.131946 0.0940907 0.046612
0.0954561 0.0940907 -0.0798381
0.080306 0.0940907 0.0581419
0.0313563 0.0940907 0.036262
-0.0251837 0.0940907 0.0234719
-0.0782939 0.0940907 -0.016358
-0.118854 0.0940907 -0.069478
-0.121084 0.0940907 -0.117538
0.0294661 0.0940907 0.11297
-0.0189539 0.0940907 0.073552
-0.0784937 0.0940907 0.065802
-0.149474 0.0940907 -0.0248981
0.104016 0.0940907 -0.00850798
0.0431461 0.0940907 -0.126928
0.104136 0.0940907 0.104482
-0.0528637 0.0940907 0.130682
-0.0505839 0.0940907 -0.108608
-0.144134 0.0940907 0.041172
0.0173163 0.0940907 -0.040318
3 0 5 6
3 6 1 0
3 1 6 7
3 7 2 1
3 2 7 8
3 8 3 2
3 3 8 9
3 9 4 3
3 5 10 11
3 11 6 5
3 6 11 12
3 12 7 6
3 7 12 13
3 13 8 7
3 8 13 14
3 14 9 8
3 10 15 16
3 16 11 10
3 11 16 17
3 17 12 11
3 12 17 18
3 18 13 12
3 13 18 19
3 19 14 13
3 15 20 21
3 21 16 15
3 16 21 22
3 22 17 16
3 17 22 23
3 23 18 17
3 18 23 24
3 24 19 18
3 20 25 26
3 26 21 20
3 21 26 27
3 27 22 21
3 22 27 28
3 28 23 22
3 23 28 29
3 29 24 23
3 25 30 31
3 31 26 25
3 26 31 32
3 32 27 26
3 27 32 33
3 33 28 27
3 28 33 34
3 34 29 28
3 30 35 36
3 36 31 30
3 31 36 37
3 37 32 31
3 32 37 38
3 38 33 32
3 33 38 39
3 39 34 33
3 35 40 41
3 41 36 35
3 36 41 42
3 42 37 36
3 37 42 43
3 43 38 37
3 38 43 44
3 44 39 38
3 40 45 46
3 46 41 40
3 41 46 47
3 47 42 41
3 42 47 48
3 48 43 42
3 43 48 49
3 49 44 43
3 45 50 51
3 51 46 45
3 46 51 52
3 52 47 46
3 47 52 53
3 53 48 47
3 48 53 54
3 54 49 48
3 50 55 56
3 56 51 50
3 51 56 57
3 57 52 51
3 52 57 58
3 58 53 52
3 53 58 59
3 59 54 53
3 55 60 61
3 61 56 55
3 56 61 62
3 62 57 56
3 57 62 63
3 63 58 57
3 58 63 64
3 64 59 58
3 60 65 66
3 66 61 60
3 61 66 67
3 67 62 61
3 62 67 68
3 68 63 62
3 63 68 69
3 69 64 63
3 65 70 71
3 71 66 65
3 66 71 72
3 72 67 66
3 67 72 73
3 73 68 67
3 68 73 74
3 74 69 68
3 70 75 76
3 76 71 70
3 71 76 77
3 77 72 71
3 72 77 78
3 78 73 72
3 73 78 79
3 79 74 73
3 75 0 1
3 1 76 75
3 76 1 2
3 2 77 76
3 77 2 3
3 3 78 77
3 78 3 4
3 4 79 78
3 4 9 84
3 84 80 4
3 80 84 85
3 85 81 80
3 81 85 86
3 86 82 81
3 82 86 87
3 87 83 82
3 9 14 88
3 88 84 9
3 84 88 89
3 89 85 84
3 85 89 90
3 90 86 85
3 86 90 91
3 91 87 86
3 14 19 92
3 92 88 14
3 88 92 93
3 93 89 88
3 89 93 94
3 94 90 89
3 90 94 95
3 95 91 90
3 19 24 96
3 96 92 19
3 92 96 97
3 97 93 92
3 93 97 98
3 98 94 93
3 94 98 99
3 99 95 94
3 24 29 100
3 100 96 24
3 96 100 101
3 101 97 96
3 97 101 102
3 102 98 97
3 98 102 103
3 103 99 98
3 29 34 104
3 104 100 29
3 100 104 105
3 105 101 100
3 101 105 106
3 106 102 101
3 102 106 107
3 107 103 102
3 34 39 108
3 108 104 34
3 104 108 109
3 109 105 104
3 105 109 110
3 110 106 105
3 106 110 111
3 111 107 106
3 39 44 112
3 112 108 39
3 108 112 113
3 113 109 108
3 109 113 114
3 114 110 109
3 110 114 115
3 115 111 110
3 44 49 116
3 116 112 44
3 112 116 117
3 117 113 112
3 113 117 118
3 118 114 113
3 114 118 119
3 119 115 114
3 49 54 120
3 120 116 49
3 116 120 121
3 121 117 116
3 117 121 122
3 122 118 117
3 118 122 123
3 123 119 118
3 54 59 124
3 124 120 54
3 120 124 125
3 125 121 120
3 121 125 126
3 126 122 121
3 122 126 127
3 127 123 122
3 59 64 128
3 128 124 59
3 124 128 129
3 129 125 124
3 125 129 130
3 130 126 125
3 126 130 131
3 131 127 126
3 64 69 132
3 132 128 64
3 128 132 133
3 133 129 128
3 129 133 134
3 134 130 129
3 130 134 135
3 135 131 130
3 69 74 136
3 136 132 69
3 132 136 137
3 137 133 132
3 133 137 138
3 138 134 133
3 134 138 139
3 139 135 134
3 74 79 140
3 140 136 74
3 136 140 141
3 141 137 136
3 137 141 142
3 142 138 137
3 138 142 143
3 143 139 138
3 79 4 80
3 80 140 79
3 140 80 81
3 81 141 140
3 141 81 82
3 82 142 141
3 142 82 83
3 83 143 142
3 83 87 148
3 148 144 83
3 144 148 149
3 149 145 144
3 145 149 150
3 150 146 145
3 146 150 151
3 151 147 146
3 87 91 152
3 152 148 87
3 148 152 153
3 153 149 148
3 149 153 154
3 154 150 149
3 150 154 155
3 155 151 150
3 91 95 156
3 156 152 91
3 152 156 157
3 157 153 152
3 153 157 158
3 158 154 153
3 154 158 159
3 159 155 154
3 95 99 160
3 160 156 95
3 156 160 161
3 161 157 156
3 157 161 162
3 162 158 157
3 158 162 163
3 163 159 158
3 99 103 164
3 164 160 99
3 160 164 165
3 165 161 160
3 161 165 166
3 166 162 161
3 162 166 167
3 167 163 162
3 103 107 168
3 168 164 103
3 164 168 169
3 169 165 164
3 165 169 170
3 170 166 165
3 166 170 171
3 171 167 166
3 107 111 172
3 172 168 107
3 168 172 173
3 173 169 168
3 169 173 174
3 174 170 169
3 170 174 175
3 175 171 170
3 111 115 176
3 176 172 111
3 172 176 177
3 177 173 172
3 173 177 178
3 178 174 173
3 174 178 179
3 179 175 174
3 115 119 180
3 180 176 115
3 176 180 181
3 181 177 176
3 177 181 182
3 182 178 177
3 178 182 183
3 183 179 178
3 119 123 184
3 184 180 119
3 180 184 185
3 185 181 180
3 181 185 186
3 186 182 181
3 182 186 187
3 187 183 182
3 123 127 188
3 188 184 123
3 184 188 189
3 189 185 184
3 185 189 190
3 190 186 185
3 186 190 191
3 191 187 186
3 127 131 192
3 192 188 127
3 188 192 193
3 193 189 188
3 189 193 194
3 194 190 189
3 190 194 195
3 195 191 190
3 131 135 196
3 196 192 131
3 192 196 197
3 197 193 192
3 193 197 198
3 198 194 193
3 194 198 199
3 199 195 194
3 135 139 200
3 200 196 135
3 196 200 201
3 201 197 196
3 197 201 202
3 202 198 197
3 198 202 203
3 203 199 198
3 139 143 204
3 204 200 139
3 200 204 205
3 205 201 200
3 201 205 206
3 206 202 201
3 202 206 207
3 207 203 202
3 143 83 144
3 144 204 143
3 204 144 145
3 145 205 204
3 205 145 146
3 146 206 205
3 206 146 147
3 147 207 206
3 147 151 212
3 212 208 147
3 208 212 213
3 213 209 208
3 209 213 214
3 214 210 209
3 210 214 211
3 151 155 215
3 215 212 151
3 212 215 216
3 216 213 212
3 213 216 217
3 217 214 213
3 214 217 211
3 155 159 218
3 218 215 155
3 215 218 219
3 219 216 215
3 216 219 220
3 220 217 216
3 217 220 211
3 159 163 221
3 221 218 159
3 218 221 222
3 222 219 218
3 219 222 223
3 223 220 219
3 220 223 211
3 163 167 224
3 224 221 163
3 221 224 225
3 225 222 221
3 222 225 226
3 226 223 222
3 223 226 211
3 167 171 227
3 227 224 167
3 224 227 228
3 228 225 224
3 225 228 229
3 229 226 225
3 226 229 211
3 171 175 230
3 230 227 171
3 227 230 231
3 231 228 227
3 228 231 232
3 232 229 228
3 229 232 211
3 175 179 233
3 233 230 175
3 230 233 234
3 234 231 230
3 231 234 235
3 235 232 231
3 232 235 211
3 179 183 236
3 236 233 179
3 233 236 237
3 237 234 233
3 234 237 238
3 238 235 234
3 235 238 211
3 183 187 239
3 239 236 183
3 236 239 240
3 240 237 236
3 237 240 241
3 241 238 237
3 238 241 211
3 187 191 242
3 242 239 187
3 239 242 243
3 243 240 239
3 240 243 244
3 244 241 240
3 241 244 211
3 191 195 245
3 245 242 191
3 242 245 246
3 246 243 242
3 243 246 247
3 247 244 243
3 244 247 211
3 195 199 248
3 248 245 195
3 245 248 249
3 249 246 245
3 246 249 250
3 250 247 246
3 247 250 211
3 199 203 251
3 251 248 199
3 248 251 252
3 252 249 248
3 249 252 253
3 253 250 249
3 250 253 211
3 203 207 254
3 254 251 203
3 251 254 255
3 255 252 251
3 252 255 256
3 256 253 252
3 253 256 211
3 207 147 208
3 208 254 207
3 254 208 209
3 209 255 254
3 255 209 210
3 210 256 255
3 256 210 211
3 257 262 263
3 263 258 257
3 258 263 264
3 264 259 258
3 259 264 265
3 265 260 259
3 260 265 266
3 266 261 260
3 262 267 268
3 268 263 262
3 263 268 269
3 269 264 263
3 264 269 270
3 270 265 264
3 265 270 271
3 271 266 265
3 267 272 273
3 273 268 267
3 268 273 274
3 274 269 268
3 269 274 275
3 275 270 269
3 270 275 276
3 276 271 270
3 272 277 278
3 278 273 272
3 273 278 279
3 279 274 273
3 274 279 280
3 280 275 274
3 275 280 281
3 281 276 275
3 277 282 283
3 283 278 277
3 278 283 284
3 284 279 278
3 279 284 285
3 285 280 279
3 280 285 286
3 286 281 280
3 282 287 288
3 288 283 282
3 283 288 289
3 289 284 283
3 284 289 290
3 290 285 284
3 285 290 291
3 291 286 285
3 287 292 293
3 293 288 287
3 288 293 294
3 294 289 288
3 289 294 295
3 295 290 289
3 290 295 296
3 296 291 290
3 292 257 258
3 258 293 292
3 293 258 259
3 259 294 293
3 294 259 260
3 260 295 294
3 295 260 261
3 261 296 295
3 261 266 301
3 301 297 261
3 297 301 302
3 302 298 297
3 298 302 303
3 303 299 298
3 299 303 304
3 304 300 299
3 266 271 305
3 305 301 266
3 301 305 306
3 306 302 301
3 302 306 307
3 307 303 302
3 303 307 308
3 308 304 303
3 271 276 309
3 309 305 271
3 305 309 310
3 310 306 305
3 306 310 311
3 311 307 306
3 307 311 312
3 312 308 307
3 276 281 313
3 313 309 276
3 309 313 314
3 314 310 309
3 310 314 315
3 315 311 310
3 311 315 316
3 316 312 311
3 281 286 317
3 317 313 281
3 313 317 318
3 318 314 313
3 314 318 319
3 319 315 314
3 315 319 320
3 320 316 315
3 286 291 321
3 321 317 286
3 317 321 322
3 322 318 317
3 318 322 323
3 323 319 318
3 319 323 324
3 324 320 319
3 291 296 325
3 325 321 291
3 321 325 326
3 326 322 321
3 322 326 327
3 327 323 322
3 323 327 328
3 328 324 323
3 296 261 297
3 297 325 296
3 325 297 298
3 298 326 325
3 326 298 299
3 299 327 326
3 327 299 300
3 300 328 327
3 329 334 335
3 335 330 329
3 330 335 336
3 336 331 330
3 331 336 337
3 337 332 331
3 332 337 338
3 338 333 332
3 334 339 340
3 340 335 334
3 335 340 341
3 341 336 335
3 336 341 342
3 342 337 336
3 337 342 343
3 343 338 337
3 339 344 345
3 345 340 339
3 340 345 346
3 346 341 340
3 341 346 347
3 347 342 341
3 342 347 348
3 348 343 342
3 344 349 350
3 350 345 344
3 345 350 351
3 351 346 345
3 346 351 352
3 352 347 346
3 347 352 353
3 353 348 347
3 349 354 355
3 355 350 349
3 350 355 356
3 356 351 350
3 351 356 357
3 357 352 351
3 352 357 358
3 358 353 352
3 354 359 360
3 360 355 354
3 355 360 361
3 361 356 355
3 356 361 362
3 362 357 356
3 357 362 363
3 363 358 357
3 359 364 365
3 365 360 359
3 360 365 366
3 366 361 360
3 361 366 367
3 367 362 361
3 362 367 368
3 368 363 362
3 364 329 330
3 330 365 364
3 365 330 331
3 331 366 365
3 366 331 332
3 332 367 366
3 367 332 333
3 333 368 367
3 333 338 373
3 373 369 333
3 369 373 374
3 374 370 369
3 370 374 375
3 375 371 370
3 371 375 376
3 376 372 371
3 338 343 377
3 377 373 338
3 373 377 378
3 378 374 373
3 374 378 379
3 379 375 374
3 375 379 380
3 380 376 375
3 343 348 381
3 381 377 343
3 377 381 382
3 382 378 377
3 378 382 383
3 383 379 378
3 379 383 384
3 384 380 379
3 348 353 385
3 385 381 348
3 381 385 386
3 386 382 381
3 382 386 387
3 387 383 382
3 383 387 388
3 388 384 383
3 353 358 389
3 389 385 353
3 385 389 390
3 390 386 385
3 386 390 391
3 391 387 386
3 387 391 392
3 392 388 387
3 358 363 393
3 393 389 358
3 389 393 394
3 394 390 389
3 390 394 395
3 395 391 390
3 391 395 396
3 396 392 391
3 363 368 397
3 397 393 363
3 393 397 398
3 398 394 393
3 394 398 399
3 399 395 394
3 395 399 400
3 400 396 395
3 368 333 369
3 369 397 368
3 397 369 370
3 370 398 397
3 398 370 371
3 371 399 398
3 399 371 372
3 372 400 399
3 406 402 401
3 402 406 407
3 407 403 402
3 403 407 408
3 408 404 403
3 404 408 409
3 409 405 404
3 410 406 401
3 406 410 411
3 411 407 406
3 407 411 412
3 412 408 407
3 408 412 413
3 413 409 408
3 414 410 401
3 410 414 415
3 415 411 410
3 411 415 416
3 416 412 411
3 412 416 417
3 417 413 412
3 418 414 401
3 414 418 419
3 419 415 414
3 415 419 420
3 420 416 415
3 416 420 421
3 421 417 416
3 422 418 401
3 418 422 423
3 423 419 418
3 419 423 424
3 424 420 419
3 420 424 425
3 425 421 420
3 426 422 401
3 422 426 427
3 427 423 422
3 423 427 428
3 428 424 423
3 424 428 429
3 429 425 424
3 430 426 401
3 426 430 431
3 431 427 426
3 427 431 432
3 432 428 427
3 428 432 433
3 433 429 428
3 434 430 401
3 430 434 435
3 435 431 430
3 431 435 436
3 436 432 431
3 432 436 437
3 437 433 432
3 438 434 401
3 434 438 439
3 439 435 434
3 435 439 440
3 440 436 435
3 436 440 441
3 441 437 436
3 442 438 401
3 438 442 443
3 443 439 438
3 439 443 444
3 444 440 439
3 440 444 445
3 445 441 440
3 446 442 401
3 442 446 447
3 447 443 442
3 443 447 448
3 448 444 443
3 444 448 449
3 449 445 444
3 450 446 401
3 446 450 451
3 451 447 446
3 447 451 452
3 452 448 447
3 448 452 453
3 453 449 448
3 454 450 401
3 450 454 455
3 455 451 450
3 451 455 456
3 456 452 451
3 452 456 457
3 457 453 452
3 458 454 401
3 454 458 459
3 459 455 454
3 455 459 460
3 460 456 455
3 456 460 461
3 461 457 456
3 462 458 401
3 458 462 463
3 463 459 458
3 459 463 464
3 464 460 459
3 460 464 465
3 465 461 460
3 402 462 401
3 462 402 403
3 403 463 462
3 463 403 404
3 404 464 463
3 464 404 405
3 405 465 464
3 405 409 470
3 470 466 405
3 466 470 471
3 471 467 466
3 467 471 472
3 472 468 467
3 468 472 473
3 473 469 468
3 409 413 474
3 474 470 409
3 470 474 475
3 475 471 470
3 471 475 476
3 476 472 471
3 472 476 477
3 477 473 472
3 413 417 478
3 478 474 413
3 474 478 479
3 479 475 474
3 475 479 480
3 480 476 475
3 476 480 481
3 481 477 476
3 417 421 482
3 482 478 417
3 478 482 483
3 483 479 478
3 479 483 484
3 484 480 479
3 480 484 485
3 485 481 480
3 421 425 486
3 486 482 421
3 482 486 487
3 487 483 482
3 483 487 488
3 488 484 483
3 484 488 489
3 489 485 484
3 425 429 490
3 490 486 425
3 486 490 491
3 491 487 486
3 487 491 492
3 492 488 487
3 488 492 493
3 493 489 488
3 429 433 494
3 494 490 429
3 490 494 495
3 495 491 490
3 491 495 496
3 496 492 491
3 492 496 497
3 497 493 492
3 433 437 498
3 498 494 433
3 494 498 499
3 499 495 494
3 495 499 500
3 500 496 495
3 496 500 501
3 501 497 496
3 437 441 502
3 502 498 437
3 498 502 503
3 503 499 498
3 499 503 504
3 504 500 499
3 500 504 505
3 505 501 500
3 441 445 506
3 506 502 441
3 502 506 507
3 507 503 502
3 503 507 508
3 508 504 503
3 504 508 509
3 509 505 504
3 445 449 510
3 510 506 445
3 506 510 511
3 511 507 506
3 507 511 512
3 512 508 507
3 508 512 513
3 513 509 508
3 449 453 514
3 514 510 449
3 510 514 515
3 515 511 510
3 511 515 516
3 516 512 511
3 512 516 517
3 517 513 512
3 453 457 518
3 518 514 453
3 514 518 519
3 519 515 514
3 515 519 520
3 520 516 515
3 516 520 521
3 521 517 516
3 457 461 522
3 522 518 457
3 518 522 523
3 523 519 518
3 519 523 524
3 524 520 519
3 520 524 525
3 525 521 520
3 461 465 526
3 526 522 461
3 522 526 527
3 527 523 522
3 523 527 528
3 528 524 523
3 524 528 529
3 529 525 524
3 465 405 466
3 466 526 465
3 526 466 467
3 467 527 526
3 527 467 468
3 468 528 527
3 528 468 469
3 469 529 528
3 5 0 530
3 530 531 545
3 531 530 0
3 532 531 75
3 532 75 544
3 65 60 546
3 548 546 60
3 538 539 551
3 537 538 543
3 537 40 35
3 538 35 30
3 30 540 539
3 25 20 552
3 15 10 536
3 0 75 531
3 544 533 532
3 70 65 541
3 545 536 10
3 541 546 542
3 547 545 531
3 548 542 546
3 547 536 545
3 549 537 550
3 547 534 535
3 550 548 549
3 547 535 543
3 15 536 552
3 10 5 545
3 45 537 549
3 537 45 40
3 35 538 537
3 551 543 538
3 30 539 538
3 551 540 552
3 540 30 25
3 552 536 551
3 533 541 534
3 541 533 544
3 534 542 535
3 542 534 541
3 543 536 547
3 543 535 550
3 70 544 75
3 544 70 541
3 545 5 530
3 531 532 547
3 546 541 65
3 60 55 548
3 533 547 532
3 547 533 534
3 548 55 549
3 542 548 550
3 50 549 55
3 549 50 45
3 550 537 543
3 550 535 542
3 551 539 540
3 543 551 536
3 552 540 25
3 552 20 15
3 272 262 257
3 257 277 272
3 257 292 282
3 292 287 282
3 282 277 257
3 272 267 262
3 300 320 328
3 300 312 316
3 300 304 312
3 304 308 312
3 316 320 300
3 320 324 328
3 334 329 349
3 364 359 354
3 364 354 349
3 349 329 364
3 349 344 334
3 344 339 334
3 372 376 400
3 376 380 553
3 553 400 376
3 554 553 384
3 554 392 396
3 396 400 554
3 384 553 380
3 384 388 392
3 392 554 384
3 553 554 400
3 469 473 555
3 469 555 567
3 569 555 473
3 567 558 573
3 563 557 569
3 564 558 563
3 565 559 564
3 566 560 572
3 501 566 572
3 505 562 561
3 562 509 513
3 513 517 571
3 525 556 568
3 525 529 556
3 473 477 569
3 557 567 555
3 568 521 525
3 529 469 567
3 481 569 477
3 481 485 563
3 563 570 564
3 573 559 560
3 565 564 570
3 568 556 573
3 572 565 493
3 560 561 571
3 505 561 566
3 571 561 562
3 562 505 509
3 571 562 513
3 485 489 570
3 557 563 558
3 570 493 565
3 558 564 559
3 493 497 572
3 559 565 560
3 566 501 505
3 560 566 561
3 567 557 558
3 567 556 529
3 573 558 559
3 521 568 517
3 569 481 563
3 569 557 555
3 570 563 485
3 570 489 493
3 560 571 573
3 568 571 517
3 572 497 501
3 565 572 560
3 573 571 568
3 573 556 567
