ply
format ascii 1.0
element vertex 12
property float x
property float y
property float z
element face 20
property list uchar int vertex_indices
end_header
0 -0.309017 0.5
0.5 9.25186e-18 0.309017
0.5 9.25186e-18 -0.309017
-0.5 9.25186e-18 -0.309017
-0.5 9.25186e-18 0.309017
-0.309017 0.5 0
0.309017 0.5 0
0.309017 -0.5 0
-0.309017 -0.5 0
0 -0.309017 -0.5
0 0.309017 -0.5
0 0.309017 0.5
3 6 2 1
3 2 7 1
3 5 4 3
3 8 3 4
3 11 5 6
3 10 6 5
3 2 10 9
3 3 9 10
3 9 8 7
3 0 7 8
3 1 0 11
3 4 11 0
3 10 2 6
3 11 6 1
3 10 5 3
3 11 4 5
3 9 7 2
3 0 1 7
3 8 9 3
3 0 8 4
