ply
format ascii 1.0
element vertex 528
property float x
property float y
property float z
property int angle_deficit
element face 1056
property list uchar int vertex_indices
property int ancestor
end_header
-0.542829 0.224846 -0.165479 0
-0.474824 0.103091 -0.203356 0
0.776063 -0.395878 0.993741 0
1.08268 -0.450655 0.411015 0
1.19901 -0.40269 -0.358827 0
-0.509631 0.0691869 -0.0551613 0
0.270083 -0.104714 -1.43278 0
-0.705519 -0.352926 -1.10547 0
-0.951084 -0.065295 -1.11305 0
-0.0600208 -0.014353 1.46483 1
0.962869 0.376094 0.855246 0
-0.300162 -0.225062 -1.37922 0
-0.676578 0.376124 -0.12138 0
-0.402576 0.423 -1.13259 0
-0.592892 0.356125 -0.310487 0
0.374787 -0.308315 0.49389 0
-0.991695 -0.341869 0.8746 0
0.630299 -0.403056 -1.08034 1
-0.0785682 -0.00659154 -0.497478 0
-0.0786158 0.463876 -1.1098 0
1.20223 0.154146 0.794099 0
0.58065 0.291996 0.182959 0
0.466074 0.477658 -0.903805 0
-1.14946 0.165223 -0.861642 0
-1.17578 0.436643 0.166301 0
-0.426606 0.0982154 0.293997 0
-0.211896 0.411746 1.21867 0
-0.922198 0.4499 0.678097 0
0.108466 0.473222 -1.01666 0
1.13976 0.0239687 0.922274 0
0.650761 0.344832 0.0436518 0
-0.738669 0.441279 -0.3056 0
-0.934541 -0.476974 -0.0949569 0
-0.280286 0.136586 0.444312 0
1.34742 -0.0887144 -0.554319 1
1.31506 -0.342714 0.149098 0
0.652642 0.398094 -0.307459 0
-1.32892 -0.155782 0.548918 0
1.35024 0.125663 0.531703 1
1.29199 0.0944271 0.678578 1
0.996732 0.421712 0.700204 0
0.84068 0.205097 1.14878 1
0.694314 0.20047 1.24291 1
-0.497884 0.074536 0.120809 0
0.309034 0.126346 1.41559 1
-0.048339 0.182033 1.42848 1
-0.221836 0.270145 1.36565 1
-0.977425 -0.480971 0.118328 0
-0.257865 -0.318106 -0.572252 0
-0.886045 0.191777 1.1189 1
-1.24913 -0.195618 0.683041 0
-1.24904 -0.318718 0.498926 0
-1.31313 -0.0332635 0.659744 1
-0.666142 -0.0158962 -1.30647 0
0.821329 0.0502759 1.21521 0
-1.28943 -0.342431 0.287741 0
1.34333 -0.288861 -0.271828 0
0.0990896 0.338294 -1.3203 0
1.24693 -0.208406 0.681639 0
-0.536692 -0.366281 -1.17491 0
-0.690856 0.193718 -1.24485 1
-0.527752 0.151108 -1.34665 1
0.78008 -0.466909 -0.769754 0
1.30632 -0.255821 -0.478257 0
0.143685 0.211239 -1.41155 1
0.46644 0.193961 -1.35033 1
0.719758 0.354511 -1.08881 1
0.89013 0.0025625 -1.16595 1
-1.08793 0.405726 0.604305 1
1.07096 0.222056 0.921336 0
-1.10585 0.218476 0.884224 1
1.15708 -0.377568 -0.560401 1
-1.24418 0.367362 -0.339634 0
-0.382711 -0.268456 -0.445529 0
0.151718 0.456623 0.840124 0
1.08595 -0.349433 0.739432 0
-0.456708 -0.0793008 0.227739 0
-0.791173 -0.157801 -1.20261 0
-1.45529 -0.0756071 -0.129574 0
0.227693 -0.292316 -1.35107 0
0.260837 -0.390921 1.24168 0
-0.570931 0.431248 -1.05415 0
-0.277545 -0.445172 -0.771038 0
1.03734 -0.274543 0.906262 0
0.648646 0.478309 0.77733 0
-0.43353 -0.229663 0.347955 0
1.04141 -0.469087 -0.227956 0
-1.16014 -0.310784 -0.699132 0
0.328194 -0.363694 -1.25784 0
-1.24919 0.399108 -0.0122492 0
1.33267 -0.0462842 0.606294 0
-0.390622 -0.425309 -1.14443 1
0.404815 0.207067 0.377247 0
1.03705 -0.43563 0.573952 0
-1.22059 -0.399028 -0.293399 0
0.730541 -0.474116 -0.569889 0
0.350204 0.438904 1.1257 0
-0.176519 -0.0569775 0.477106 0
-1.42919 0.148628 0.189477 0
-0.240704 -0.0691722 -1.44449 0
0.111793 0.144153 0.513848 0
-0.885115 -0.478959 0.435528 0
0.727392 0.472095 -0.751514 0
0.00581501 -0.0495651 0.505448 0
0.455072 0.107413 -0.238961 0
-1.12208 0.416555 -0.501752 0
-1.31742 -0.265854 -0.422618 0
0.341457 0.314616 1.30586 0
0.15978 0.475299 1.03571 0
0.875662 0.435913 -0.804388 0
1.28981 0.0428486 -0.687298 0
0.437127 -0.240034 -1.33499 0
-0.386518 -0.243602 1.34736 0
-1.35347 0.308308 0.0759765 0
-0.567764 0.227435 0.0151323 0
-0.475424 -0.422458 -0.598443 0
-0.785901 -0.436458 0.0678062 0
1.01167 0.434197 -0.646869 0
-0.337568 -0.409742 1.19141 0
-1.31353 0.319029 0.294919 0
0.284664 0.0748615 0.425122 0
0.841353 0.458264 0.74069 0
0.0712199 -0.180978 -1.42919 0
1.18331 0.164975 -0.816904 0
-0.708601 0.184194 1.24061 1
-0.619162 0.469642 -0.661405 0
1.18857 0.411449 -0.345817 0
0.488416 0.180108 0.235393 0
-0.200532 -0.308013 1.34269 0
1.12124 0.401258 0.553872 1
-1.18736 0.434074 -0.148856 0
-0.665379 0.362131 0.0998455 0
-0.501009 -0.439355 1.07013 0
0.198996 -0.400578 -1.23951 0
0.143446 -0.268917 1.37721 0
0.506047 0.0149469 -0.0530282 0
-0.458879 0.227213 -0.325311 0
-1.25798 0.306518 0.508466 0
-0.481358 0.377971 -0.50003 0
-1.11685 -0.256165 -0.835261 0
-1.19337 -0.0544563 -0.85059 1
1.17524 0.439864 0.0199693 0
-0.957216 0.137925 -1.08633 0
0.0731555 0.433192 -0.777919 0
-1.21865 -0.191564 -0.743771 0
0.65414 0.011252 1.31572 0
0.654315 -0.343536 0.0136284 0
0.419566 -0.171395 -0.33847 0
0.725958 0.470579 0.59245 1
1.22602 0.407425 0.168304 0
-0.540619 -0.331732 1.21906 0
1.24529 0.24454 0.637873 0
-1.1884 0.273814 0.706173 0
0.109829 -0.463088 -1.11665 0
-0.564771 -0.250665 -0.113942 0
0.917294 0.469075 0.564408 0
0.143373 0.260903 1.38145 1
1.40695 0.227875 -0.101417 0
-1.04901 -0.167184 -0.979701 0
-0.941975 0.471591 0.503252 1
0.998672 0.476337 0.0255909 0
-0.19855 0.27615 -1.36737 0
-0.941517 0.306306 0.970665 0
-1.0624 0.467733 -0.288392 1
-0.897873 0.478671 -0.439147 1
0.912996 0.474651 -0.143445 0
0.25081 -0.0785138 1.43721 0
-0.609908 -0.233467 -1.27012 0
-0.589327 0.472735 -0.859029 1
-0.893102 -0.259722 -1.06329 0
-0.245817 0.473208 -1.01837 1
-1.44977 0.12938 -0.0316306 0
1.27058 0.375934 -0.147765 0
0.899092 0.473396 0.210337 0
-0.030504 -0.353007 1.30984 0
0.50985 0.174496 1.34254 1
0.826153 0.473528 -0.631851 1
0.919733 0.474079 -0.479611 1
-0.390372 0.439501 1.109 0
-0.684194 0.335579 -1.13757 0
-0.287604 0.362135 -0.611227 0
-0.200593 0.473028 1.02445 0
0.301473 -0.150147 -0.433851 0
-0.221504 -0.377866 0.660933 0
-0.759049 0.348795 1.07707 0
1.01803 -0.465711 -0.417495 0
0.621971 0.419718 0.441863 0
-1.15948 0.306779 -0.698974 0
0.081383 -0.102743 1.45533 0
0.695766 0.405022 0.236022 0
-0.188643 0.458796 0.824054 1
-0.129101 0.211218 -0.537995 0
-1.27386 -0.383445 -0.100718 1
0.11612 0.0689004 1.4577 0
-0.123898 -0.229182 -1.4047 0
-0.397262 0.164606 1.38096 1
-0.803134 0.446782 0.199968 1
-0.426684 -0.305138 -1.28868 0
-0.829421 0.455016 -0.00242215 1
0.241864 0.0393147 -0.448243 0
0.695108 -0.434575 0.365281 0
-1.01684 0.36894 0.791148 0
0.451293 -0.379785 1.20191 0
-0.26225 0.455225 -0.807659 0
-0.532947 0.230317 1.30269 0
0.0258471 -0.368975 -1.29657 0
0.591165 -0.316053 0.196756 0
0.827291 0.466263 -0.309431 0
0.26291 0.469231 -0.85152 1
-0.0856345 0.470414 -0.899181 0
-0.712064 -0.397576 -0.107235 0
1.11464 0.320688 0.755609 1
-0.105279 0.383835 -0.697274 0
1.18829 -0.355868 0.548276 0
0.807346 0.471185 0.403353 0
1.42559 0.19165 0.120804 0
0.618084 0.285026 -1.22429 1
0.2895 0.444408 0.764404 0
1.40649 -0.0326425 0.419577 1
-1.16602 -0.422624 0.356198 0
-0.0993951 -0.449172 -0.81914 0
-0.449683 0.26969 0.383117 0
0.469543 -0.0207789 -1.38909 0
-0.912723 -0.460696 0.66306 0
-1.43936 -0.0294911 0.295897 0
-0.246842 0.0471588 -0.441516 0
0.296711 -0.446808 -1.13036 0
0.465816 -0.147346 0.243991 0
-0.793256 -0.435558 0.880155 0
-0.567729 -0.477338 0.873672 0
0.623949 -0.277006 -1.23008 0
-1.35325 0.295914 -0.157429 0
-1.4203 -0.0989163 -0.329371 1
0.984664 0.0854933 1.07772 1
-0.0332513 0.353197 1.31229 0
-1.26682 -0.236045 -0.607053 0
0.941434 -0.273729 -1.00849 1
-0.0161291 -0.448699 1.15539 0
-0.153221 -0.414736 1.22298 0
-0.402476 -0.0365753 1.40768 0
0.228422 0.380305 -0.657282 0
-0.17581 -0.470897 1.05851 0
-0.368145 -0.457025 0.764367 0
0.786052 -0.288925 -1.12145 0
1.1541 -0.171378 0.852475 1
0.121969 -0.430519 0.768999 0
-0.358768 -0.477904 0.972511 0
-0.571864 -0.374085 -0.385035 0
0.611231 -0.470472 -0.892431 0
0.678813 -0.38321 -0.171881 0
0.959036 -0.383878 -0.842125 0
-1.40249 -0.238839 -0.015599 1
-0.327644 0.318145 0.540755 0
0.400475 0.448057 -0.715791 0
0.544341 0.420891 -1.086 0
-0.56854 0.353133 1.18295 0
1.09899 -0.345715 -0.730811 0
-0.531494 0.239787 0.2018 0
-0.0150243 0.412892 0.745875 0
1.18981 -0.431262 0.0240472 0
0.0818373 -0.307902 -0.612974 0
-0.884741 0.42423 -0.826933 0
1.32556 0.316631 0.246542 1
0.91019 0.293007 1.02186 0
0.0561374 -0.426883 -0.776056 0
-0.565733 0.0635675 1.34795 0
0.729723 0.341033 1.1042 1
0.538432 0.344611 1.20437 1
0.742473 0.463262 -0.470264 0
-1.04334 0.200979 -0.968516 0
0.922487 -0.388929 0.864804 0
-1.37011 -0.0946207 -0.51074 1
0.326497 0.476756 0.924541 0
-0.194437 -0.46443 0.848872 0
-0.551198 0.325051 -1.22164 0
-0.325966 0.22269 -0.456898 1
0.152799 -0.463853 1.10032 0
0.598428 -0.218159 1.2844 0
-0.0175471 0.476341 0.934097 0
0.5723 0.257519 -0.134803 0
-0.718169 -0.236931 1.20459 0
-0.538101 -0.249246 0.199143 0
-1.27484 0.269175 -0.540331 1
0.358581 0.166566 -0.394504 1
0.163523 0.356685 0.649527 0
-0.676437 -0.481702 -0.712465 0
0.572553 0.411048 -0.478312 0
1.29276 0.295064 0.449193 0
-1.02089 -0.471024 -0.300999 1
0.659531 0.46866 -0.61804 0
0.484581 0.0192241 0.145615 1
1.32117 0.343192 0.0501334 0
0.405409 0.0341728 0.301262 1
0.173692 -0.0692815 0.473889 1
1.04255 -0.12818 1.00453 0
1.45198 -0.00457872 0.205639 0
0.11563 -0.116101 -0.506638 0
-0.378621 0.474126 0.902727 0
0.882167 0.336886 -0.984957 1
-0.090115 0.118146 0.515128 1
-0.341595 -0.0610438 0.376004 1
0.334096 -0.460544 1.07193 0
0.221416 0.225163 -0.5205 0
0.468857 -0.101017 -0.213736 0
0.795889 -0.40137 -0.965508 0
-0.969996 0.475826 0.295923 0
-1.01271 -0.164709 1.01925 1
-0.35587 -0.479461 -0.970366 0
1.05683 0.322619 -0.827221 1
0.996781 -0.479152 0.0850657 0
0.604335 -0.127698 -1.31671 0
0.528538 -0.169505 0.0745832 0
0.465667 -0.384418 -1.18691 1
-0.439224 0.456758 -0.722569 0
0.529962 -0.298283 -0.30514 0
0.496842 0.288146 -0.343687 0
0.233261 -0.414061 -0.705764 0
-0.0298681 0.2795 0.60128 0
1.24872 -0.0272131 0.770149 0
0.224787 -0.475798 0.906564 0
1.43998 0.0667343 -0.252952 0
0.375043 -0.0217674 -0.340895 1
0.902036 -0.11293 1.13892 0
0.101691 -0.39979 1.24901 1
-0.565646 0.475494 0.764929 0
0.291952 0.262888 0.507309 0
-0.974589 0.0241252 1.09943 0
0.488906 -0.449711 1.04988 0
-1.29284 -0.36614 0.092489 0
-0.224486 -0.374991 -1.26215 1
0.732414 0.413177 -0.134002 0
-1.37144 0.205292 -0.380987 0
-1.35215 0.0864114 -0.548415 0
-0.754013 0.478092 0.622908 0
-0.0155696 0.238136 -1.40172 0
0.419535 -0.479363 0.895666 0
0.516415 0.437934 -0.619602 0
0.775406 -0.262271 1.14868 0
1.34677 0.264148 -0.330234 0
0.761258 -0.110842 1.23803 0
-1.26141 0.126175 -0.71162 1
-0.520118 -0.119376 0.0404799 1
1.40298 -0.107154 -0.374908 0
1.37832 0.0880166 -0.480715 0
-1.13179 -0.452096 0.00604968 0
-0.542125 0.417897 0.527494 0
-0.494077 -0.243854 -0.291529 1
0.412116 -0.292419 -0.44759 0
0.812252 0.445931 0.0385912 0
0.575258 0.471664 -0.757502 0
-1.07621 0.0361454 -0.996539 0
-1.04087 0.32167 -0.845969 1
1.40174 0.158163 0.336116 0
0.252965 -0.291277 -0.546485 0
-0.75394 0.411043 -0.982209 0
-0.929923 0.307493 -0.987662 1
-0.392826 0.331359 1.28031 1
-1.3734 -0.190516 0.390023 1
0.717003 -0.475156 0.596326 0
0.459967 -0.0409013 1.394 0
0.538816 0.313715 0.326876 0
0.759456 -0.138018 -1.22938 0
0.0849831 0.0432708 -1.46278 1
-0.22915 -0.141577 -0.467456 0
0.492139 -0.298657 0.367019 0
-0.824029 -0.383393 -0.969708 1
1.39222 -0.199937 0.286485 0
1.03576 0.141042 -1.00863 0
0.894785 -0.477691 0.482744 0
-0.4174 0.477024 -0.933292 0
0.750176 -0.468733 0.803864 0
0.604302 -0.460429 0.9359 0
-1.11703 -0.412281 -0.524982 1
-0.579244 0.450974 0.990053 0
0.823403 0.211498 -1.15451 0
-0.767612 0.462594 0.407505 0
0.905318 -0.452447 0.678352 0
-0.18001 0.366372 0.656794 0
0.551657 0.456865 0.988008 0
-0.390369 0.0729307 -0.323354 0
0.894063 -0.165787 -1.12695 0
-0.382568 0.304176 -1.30263 1
-0.565463 -0.358782 0.351981 0
-0.470278 -0.0619901 -0.187767 0
-1.01759 0.15855 1.01615 0
-0.613862 -0.440917 0.512731 0
-0.820018 0.253386 -1.1259 0
-0.831323 0.0599355 -1.20933 1
1.13931 -0.449906 0.217415 0
-1.2289 -0.0647337 0.794557 1
-1.01812 -0.474535 0.30568 1
0.553484 -0.40622 -0.491886 1
-1.40093 -0.214748 0.190004 0
-0.230388 0.0795502 1.44249 0
0.680412 0.0636367 -1.29672 0
-0.997295 0.433605 -0.66633 0
-0.987359 0.475512 0.0960084 0
1.00529 0.471934 0.378323 0
-0.226373 -0.127509 1.4338 0
0.272579 0.283738 -1.34293 0
-0.0230136 0.458814 1.13486 0
-1.44035 0.0896525 -0.244641 0
0.314045 -0.412745 0.676313 1
-1.15492 -0.444499 0.19273 1
-0.567524 -0.148932 1.33064 0
0.454831 0.348331 0.483426 0
-0.724972 -0.0353357 1.27664 0
1.32923 -0.214213 0.492322 1
0.519049 -0.412321 0.532956 0
-0.623771 -0.31415 0.0477182 0
-1.4095 0.0403158 -0.409107 1
-0.716731 -0.445861 0.377767 1
-0.838598 -0.463901 0.249214 1
-0.178816 -0.479772 -0.951724 0
-0.867492 -0.117857 1.16399 0
1.0301 -0.100321 -1.034 0
-0.767766 -0.450445 -0.304019 1
-1.12204 -0.350138 0.688872 0
-0.710149 -0.466949 -0.517251 1
0.360952 0.401357 0.6301 0
-0.499442 -0.480963 -0.833405 1
-1.01206 0.475758 -0.0904548 0
0.289085 0.107347 -1.425 0
0.781118 -0.437207 0.142243 0
0.541856 0.190565 0.0714889 0
-0.847393 -0.44094 -0.817808 0
0.930674 -0.47858 0.281596 0
-0.694344 -0.482099 0.686007 0
-0.844348 0.0533291 1.20085 0
0.0878223 -0.18901 0.534461 0
0.698332 -0.428951 -0.366467 1
0.230426 -0.245905 0.52725 0
-0.134372 0.0978754 -1.44896 0
-0.374707 -0.0934699 -0.348695 0
-1.1248 0.0115181 0.942407 0
1.09643 -0.235681 -0.881587 0
0.365809 -0.243585 1.34625 0
0.551787 -0.472522 0.736742 1
-0.670505 -0.385377 0.210796 0
-0.0750087 -0.240625 0.565036 0
1.09916 0.462791 -0.155235 1
0.0110572 -0.474323 0.936378 1
-0.0496894 -0.2044 1.42349 0
1.0091 0.473224 -0.322183 1
-0.0688841 -0.0669731 -1.45994 0
0.623286 -0.381719 1.11571 0
1.08116 0.438454 -0.48418 1
-0.763826 -0.475606 0.535827 1
0.78229 0.426514 0.926142 0
0.333397 0.461753 -1.0587 1
-1.1224 -0.455978 -0.158778 1
0.401998 -0.404874 -0.616039 0
-0.901713 -0.480411 -0.441247 1
-0.878685 -0.473379 -0.6216 1
0.0526272 0.428267 -1.19364 1
-0.68343 -0.451388 -0.915366 1
-0.531621 -0.44587 -1.02878 1
-0.248612 -0.460986 -1.09317 1
1.43416 -0.173671 0.0670421 0
0.220722 -0.477282 -0.925091 1
1.34518 -0.31648 -0.0615453 0
-1.46135 -0.0495681 0.0836039 1
-1.38028 -0.0184048 0.48833 1
-0.233237 0.409569 -1.21341 0
0.105814 -0.326266 0.626929 0
-0.0406778 -0.402688 0.724025 0
0.852986 -0.463952 -0.282942 1
0.862609 -0.461422 -0.0716462 0
-0.804398 0.476484 -0.643187 1
-0.510381 -0.453265 0.656843 0
1.17686 -0.0328203 -0.875826 0
0.450807 0.470962 0.783283 0
-1.2959 -0.0633024 -0.674209 0
-1.31558 0.139966 0.599962 0
-0.611612 -0.350127 -0.239091 0
0.395542 0.342384 -0.527013 0
0.922674 -0.274586 1.02327 0
-0.0719618 -0.212936 -0.545783 0
-1.1369 0.429203 0.399573 0
0.580429 -0.472763 -0.692596 0
1.46733 0.0309371 -0.0220216 0
1.18758 0.414491 0.334683 0
-1.38247 0.154724 0.402418 0
-0.332061 0.121511 -1.41178 0
0.0750518 0.107539 -0.511743 0
-0.0927363 -0.367337 -0.674825 0
1.212 -0.415854 -0.163708 0
-0.179125 0.247314 0.549845 0
-0.0867908 -0.463895 -1.11891 0
-1.37215 -0.258204 -0.220098 0
1.22826 0.300392 -0.596451 1
0.539771 0.445484 0.617355 0
-0.621134 0.374917 0.302412 0
-0.684326 0.451178 -0.471555 0
0.413812 -0.473227 -0.804211 0
1.43863 -0.139408 -0.158254 0
0.442678 -0.467737 -1.00935 0
-1.12725 0.457121 0.00257091 0
1.06603 -0.469266 -0.0723671 0
0.953074 -0.454479 -0.626443 1
1.25912 -0.356868 0.354754 0
1.08631 0.465456 0.189536 1
0.00258408 -0.479809 -0.94949 0
-0.859676 -0.301261 1.05274 1
-1.14326 -0.197008 0.851518 1
-0.798055 0.444225 0.851429 0
-0.457307 -0.0899646 -1.38666 0
-0.290258 -0.251511 0.493364 0
-1.23488 0.0984735 0.779008 1
-0.73229 0.468862 -0.795972 0
0.341689 -0.139558 0.399036 0
-0.866777 0.467852 -0.205705 0
0.159236 0.409191 1.23132 1
0.847204 -0.475078 -0.452093 0
0.690214 0.447738 -0.92216 1
0.547804 -0.219423 -0.0942128 0
-0.970035 -0.335905 -0.91386 0
-0.358507 0.435766 0.698316 0
0.410894 0.364709 -1.23133 1
0.211503 0.414629 -1.20801 1
-0.0657495 0.377982 -1.28164 1
-0.370939 -0.391133 0.6054 0
-1.06936 -0.443443 0.494075 0
0.0562582 0.295354 -0.60774 0
-0.674672 -0.39659 1.06556 0
1.24195 -0.198245 -0.698237 0
-0.459592 -0.358152 0.486237 0
-1.02497 -0.392836 -0.743916 1
3 401 232 410 1957
3 216 65 394 0
3 202 436 277 2089
3 399 519 57 0
3 468 164 395 0
3 153 133 205 1856
3 259 388 35 551
3 116 32 47 0
3 272 217 471 1110
3 187 105 282 2090
3 264 502 220 1864
3 360 189 186 1604
3 81 179 274 0
3 250 236 304 13
3 122 79 6 121
3 453 527 372 0
3 481 501 149 552
3 20 29 69 260
3 195 204 356 0
3 467 86 466 0
3 315 36 279 1861
3 522 219 51 0
3 461 98 224 0
3 507 85 526 1319
3 315 279 104 259
3 25 76 300 25
3 192 94 489 2088
3 85 300 76 553
3 341 154 409 17
3 151 39 20 0
3 86 498 486 1648
3 405 491 419 0
3 463 381 161 2243
3 417 522 51 0
3 22 208 449 0
3 354 261 355 0
3 320 342 495 751
3 280 503 414 0
3 69 10 211 1648
3 361 394 310 1601
3 518 449 519 554
3 519 28 454 257
3 271 472 332 1939
3 118 150 112 43
3 132 246 229 776
3 376 358 370 0
3 466 86 185 0
3 341 281 76 47
3 138 14 493 2277
3 16 306 503 49
3 520 334 57 256
3 323 237 174 51
3 420 115 82 0
3 416 32 210 547
3 17 496 248 256
3 205 79 122 0
3 490 338 126 556
3 252 345 221 1278
3 392 251 461 1387
3 113 231 89 59
3 421 130 163 1650
3 345 333 375 0
3 174 134 323 3
3 45 46 234 63
3 68 201 152 2092
3 42 267 266 0
3 288 416 452 0
3 283 302 475 67
3 258 317 284 0
3 116 210 32 351
3 463 520 19 1985
3 56 495 342 273
3 68 478 159 0
3 263 233 41 0
3 298 514 66 253
3 288 372 94 75
3 371 335 327 0
3 284 217 74 0
3 234 512 156 2209
3 139 144 87 1311
3 2 371 445 559
3 142 8 387 251
3 475 253 336 251
3 197 91 329 83
3 64 399 57 1956
3 460 458 495 0
3 237 441 241 0
3 226 312 88 1833
3 504 16 417 0
3 500 3 213 0
3 325 405 419 2301
3 200 368 426 0
3 152 508 473 0
3 328 55 403 1100
3 42 54 145 0
3 167 197 506 0
3 242 521 469 2069
3 95 513 499 0
3 375 492 345 0
3 386 179 354 386
3 303 104 135 0
3 195 46 393 0
3 338 320 157 0
3 329 488 205 103
3 121 448 84 2196
3 418 452 416 0
3 278 74 108 2164
3 294 233 29 1652
3 510 364 227 313
3 153 459 226 531
3 351 395 187 1098
3 243 230 17 0
3 197 329 11 1821
3 387 386 142 791
3 273 441 465 0
3 77 167 53 115
3 525 435 256 0
3 486 4 86 709
3 308 117 109 2007
3 349 253 22 0
3 277 359 145 2060
3 368 358 376 2173
3 192 251 328 0
3 69 29 233 123
3 258 74 278 0
3 202 277 445 1198
3 24 305 478 0
3 472 144 140 2242
3 113 89 24 464
3 320 495 480 248
3 469 229 242 0
3 168 81 369 0
3 360 92 127 1281
3 142 350 8 1653
3 138 125 313 247
3 422 64 362 267
3 377 317 258 0
3 216 254 518 2261
3 107 512 96 795
3 446 117 490 724
3 48 115 73 795
3 434 306 504 1520
3 238 128 174 563
3 414 503 306 0
3 470 435 525 0
3 374 66 216 0
3 266 41 42 0
3 189 21 30 564
3 231 72 130 0
3 87 144 235 1093
3 265 404 406 0
3 270 476 83 2197
3 241 441 273 1090
3 439 464 429 153
3 78 232 401 0
3 436 166 359 2032
3 303 147 321 387
3 333 324 505 1796
3 16 228 223 1471
3 326 428 414 0
3 178 26 356 486
3 178 297 181 161
3 190 517 377 323
3 127 292 290 1193
3 226 133 153 1987
3 82 115 48 1739
3 193 9 45 2058
3 84 448 378 0
3 219 390 403 799
3 163 164 511 1089
3 363 18 477 0
3 332 331 410 1521
3 222 111 310 0
3 511 12 198 0
3 467 423 309 0
3 271 410 232 2097
3 284 74 258 1470
3 38 39 151 2085
3 364 408 200 568
3 243 304 236 0
3 442 398 9 25
3 15 408 364 0
3 289 176 268 0
3 208 253 240 1714
3 105 395 164 519
3 406 404 280 347
3 164 493 31 352
3 440 443 126 187
3 229 228 524 1780
3 392 224 357 485
3 418 416 247 0
3 302 484 523 0
3 275 180 191 0
3 102 349 514 658
3 148 491 186 1887
3 464 245 402 1771
3 516 158 139 0
3 75 270 83 1860
3 157 480 215 670
3 236 435 415 536
3 194 99 11 0
3 506 53 167 0
3 188 134 442 0
3 492 375 196 2099
3 87 527 139 2099
3 341 383 154 0
3 12 131 198 0
3 100 317 299 1080
3 359 44 175 2168
3 320 480 157 0
3 19 170 463 1984
3 282 332 340 0
3 281 438 382 1767
3 119 98 113 213
3 209 170 19 571
3 373 255 184 0
3 285 418 115 0
3 106 271 232 89
3 206 227 364 0
3 155 214 397 1078
3 381 483 161 235
3 378 471 84 1600
3 319 402 245 0
3 372 87 235 495
3 53 61 60 0
3 119 113 24 225
3 357 55 392 0
3 306 16 504 227
3 27 505 201 0
3 355 261 351 229
3 370 358 437 0
3 266 448 263 0
3 45 156 193 0
3 489 251 192 233
3 514 298 109 1941
3 294 83 476 1319
3 49 384 162 0
3 361 380 67 1413
3 187 23 351 1117
3 276 237 323 428
3 257 131 114 1660
3 477 260 485 2268
3 5 341 43 0
3 110 34 343 1757
3 55 328 392 2210
3 334 520 161 0
3 175 44 107 0
3 495 56 460 1862
3 312 230 111 2281
3 158 516 169 249
3 148 214 155 280
3 366 407 218 0
3 96 267 107 1242
3 447 427 385 1501
3 333 505 27 0
3 84 148 121 1074
3 261 354 509 232
3 332 472 340 2248
3 106 94 372 1929
3 470 123 367 1981
3 494 248 496 1963
3 509 125 468 231
3 279 30 424 0
3 390 219 522 2102
3 402 408 15 0
3 172 141 440 265
3 175 267 42 1632
3 512 234 400 313
3 517 190 297 2056
3 466 185 513 1463
3 437 358 408 0
3 85 76 281 271
3 496 226 459 2229
3 99 506 11 0
3 28 449 208 0
3 250 435 236 429
3 523 240 302 0
3 267 96 378 427
3 8 169 77 275
3 82 307 420 2241
3 229 427 228 484
3 438 116 412 1239
3 196 396 198 2193
3 209 203 170 545
3 437 371 370 0
3 93 376 75 1271
3 23 140 350 1664
3 398 239 393 1288
3 366 458 35 287
3 63 71 4 289
3 397 501 481 576
3 468 493 164 0
3 244 58 75 0
3 207 443 165 293
3 211 10 40 577
3 186 405 360 1731
3 486 259 460 810
3 121 148 155 307
3 182 147 347 1461
3 289 102 176 292
3 72 282 105 227
3 172 338 157 301
3 322 54 233 0
3 270 2 476 1731
3 67 415 367 0
3 484 302 199 1120
3 456 91 59 714
3 343 342 320 811
3 485 220 82 0
3 248 479 62 2003
3 440 160 165 1103
3 444 99 194 2105
3 464 439 465 811
3 416 210 474 0
3 515 135 311 2036
3 34 63 342 267
3 475 240 253 0
3 262 352 287 578
3 498 309 259 1602
3 44 193 156 1238
3 161 483 432 0
3 431 510 293 321
3 312 17 230 0
3 353 260 296 2019
3 257 25 221 520
3 242 246 273 0
3 517 252 377 0
3 149 262 481 295
3 349 289 336 225
3 293 429 431 33
3 515 146 249 1459
3 124 204 265 1061
3 122 194 205 0
3 352 218 38 1988
3 354 179 81 0
3 368 93 3 1864
3 124 255 204 1717
3 0 1 5 814
3 310 111 230 815
3 205 133 79 815
3 303 321 104 1981
3 422 399 64 33
3 171 461 78 224
3 117 177 176 1999
3 518 254 449 546
3 353 347 451 345
3 382 411 385 1931
3 304 62 250 1707
3 177 207 268 2267
3 324 297 373 2086
3 51 219 55 221
3 449 254 22 1056
3 274 381 13 1547
3 105 164 163 353
3 370 2 270 0
3 364 510 15 435
3 336 286 475 1978
3 355 142 386 389
3 81 13 369 1550
3 96 108 272 0
3 32 288 450 1899
3 467 146 423 1877
3 459 316 494 2252
3 526 85 382 1054
3 166 436 134 511
3 235 472 271 355
3 325 100 120 436
3 233 294 322 35
3 412 101 411 1695
3 311 146 515 1617
3 482 224 98 0
3 52 462 473 2245
3 395 105 187 85
3 288 94 450 373
3 367 123 308 1134
3 482 137 473 217
3 75 58 213 0
3 249 146 467 1690
3 206 200 423 1866
3 150 524 280 0
3 434 389 508 0
3 136 1 0 1176
3 524 132 229 0
3 197 59 91 451
3 46 195 356 375
3 158 350 140 385
3 387 77 53 0
3 444 122 362 387
3 229 246 242 0
3 142 269 350 381
3 437 402 335 1644
3 365 7 169 531
3 65 399 422 1989
3 280 404 150 1511
3 196 375 305 1989
3 4 486 56 395
3 61 506 483 1982
3 220 485 264 1682
3 427 447 223 0
3 116 438 409 1048
3 322 337 339 472
3 177 446 443 401
3 354 355 386 213
3 511 421 163 2213
3 291 149 141 2025
3 317 377 487 0
3 22 514 349 0
3 251 392 328 212
3 99 483 506 0
3 274 13 81 1829
3 212 523 191 2111
3 424 135 279 1893
3 277 145 339 467
3 434 70 384 1675
3 460 56 486 0
3 126 446 490 824
3 292 127 92 1631
3 524 228 503 1671
3 18 191 484 1670
3 183 521 242 0
3 207 36 268 1452
3 215 291 157 1451
3 393 9 398 0
3 314 147 303 0
3 103 439 429 582
3 114 131 12 0
3 30 348 189 1154
3 502 488 413 2113
3 313 203 180 356
3 120 92 325 0
3 30 330 348 0
3 367 415 470 0
3 454 57 519 1040
3 491 405 186 2178
3 453 372 452 1666
3 259 309 388 424
3 171 113 98 0
3 67 367 374 93
3 350 269 23 1824
3 10 263 448 1189
3 307 413 457 0
3 459 502 264 1868
3 187 340 23 1662
3 43 76 25 0
3 174 237 238 0
3 431 464 402 0
3 295 366 218 2275
3 323 134 80 447
3 128 238 118 1226
3 430 466 513 423
3 325 92 405 450
3 63 525 71 1891
3 210 154 474 0
3 12 0 114 1036
3 302 283 199 1658
3 319 276 301 472
3 181 278 400 0
3 193 44 166 1903
3 132 150 118 458
3 89 231 130 1651
3 411 101 447 324
3 124 406 428 207
3 478 305 159 462
3 46 26 234 463
3 80 276 323 1649
3 491 84 471 207
3 389 504 50 1647
3 245 465 441 0
3 109 298 308 1408
3 60 61 274 1645
3 290 135 424 728
3 165 330 207 1841
3 63 4 56 0
3 52 508 389 1618
3 519 399 518 2161
3 136 138 275 542
3 338 172 126 0
3 439 507 183 1032
3 223 228 427 1643
3 108 96 512 479
3 70 162 384 205
3 315 475 286 288
3 242 273 183 1642
3 42 145 175 0
3 300 33 25 204
3 362 64 334 2116
3 182 347 353 0
3 297 324 517 1905
3 171 78 401 204
3 386 60 179 2117
3 150 404 112 0
3 124 184 255 1916
3 407 58 90 0
3 6 222 422 545
3 73 346 433 1204
3 61 381 274 2248
3 133 226 88 0
3 394 374 216 397
3 123 490 308 2189
3 181 400 26 499
3 301 202 327 0
3 468 261 509 0
3 313 168 369 201
3 429 293 103 0
3 249 466 430 2036
3 351 23 269 538
3 240 523 143 506
3 505 373 184 45
3 390 101 412 1262
3 383 433 346 45
3 9 193 188 2205
3 213 93 75 0
3 65 222 394 511
3 52 50 37 325
3 489 106 232 514
3 474 154 346 199
3 329 205 194 0
3 396 305 24 2238
3 97 300 507 46
3 403 55 219 519
3 289 349 102 2280
3 388 426 3 759
3 324 345 517 1636
3 59 167 7 523
3 248 62 304 285
3 301 276 80 1728
3 71 499 185 1845
3 241 246 118 1614
3 60 387 53 197
3 451 479 494 2283
3 225 379 275 530
3 92 120 292 531
3 433 383 379 1969
3 262 291 215 1613
3 423 426 309 440
3 348 173 189 1842
3 513 185 499 835
3 372 288 452 372
3 99 432 483 2119
3 435 250 256 2127
3 191 180 212 375
3 165 160 348 0
3 186 189 214 1572
3 124 428 49 1510
3 273 246 241 1606
3 312 226 496 545
3 465 183 273 2293
3 221 25 33 1230
3 480 458 295 1603
3 502 459 153 549
3 33 97 299 1907
3 26 178 181 1597
3 2 337 476 756
3 310 394 222 372
3 175 145 359 193
3 115 247 73 440
3 258 278 190 460
3 374 394 67 557
3 211 20 69 292
3 455 365 425 662
3 491 471 419 1599
3 30 279 330 0
3 409 438 281 2199
3 298 374 367 1228
3 51 50 417 2087
3 11 329 194 565
3 494 479 248 1349
3 37 357 462 0
3 19 28 209 1442
3 485 48 477 1212
3 499 71 256 1596
3 66 254 216 453
3 103 97 439 0
3 38 151 287 1017
3 434 508 70 191
3 104 321 283 1872
3 244 83 294 1872
3 340 140 23 371
3 337 445 277 191
3 321 147 182 1589
3 42 41 54 13
3 15 431 402 189
3 398 112 239 0
3 3 500 388 0
3 263 41 266 1307
3 48 73 363 2239
3 93 213 3 0
3 11 506 197 49
3 437 408 402 776
3 517 345 252 0
3 199 182 296 2156
3 184 49 162 467
3 308 298 367 1924
3 3 426 368 0
3 268 36 286 0
3 527 87 372 107
3 501 141 149 2026
3 306 434 326 1672
3 497 130 421 1014
3 447 101 223 1915
3 487 299 317 1496
3 88 312 111 1248
3 169 7 77 1208
3 121 40 10 0
3 391 479 451 1967
3 243 380 361 0
3 86 467 498 0
3 430 513 95 0
3 419 217 284 188
3 88 111 79 399
3 200 408 358 2288
3 494 316 451 0
3 157 291 172 595
3 489 94 106 742
3 352 215 295 444
3 469 385 427 0
3 29 20 318 1729
3 459 494 496 1821
3 522 101 390 2250
3 347 147 314 694
3 456 307 91 842
3 493 14 31 0
3 265 195 239 1518
3 378 96 272 2165
3 499 62 95 1223
3 35 388 500 2288
3 62 479 95 1012
3 509 168 125 1673
3 17 304 243 0
3 32 416 288 1509
3 344 328 403 379
3 423 146 206 299
3 203 209 212 0
3 101 522 223 2193
3 165 443 440 2285
3 122 444 194 1561
3 503 228 16 53
3 373 505 324 1816
3 150 132 524 2209
3 45 9 393 0
3 503 280 524 0
3 300 97 33 480
3 431 15 510 480
3 432 444 362 0
3 480 295 215 183
3 459 264 316 2289
3 107 156 512 602
3 159 305 375 1814
3 69 233 263 1873
3 318 90 58 0
3 359 277 436 53
3 489 78 251 1676
3 116 409 210 602
3 213 58 407 0
3 478 137 119 181
3 500 407 366 693
3 363 225 18 2125
3 425 527 453 1278
3 103 100 299 844
3 311 206 146 1977
3 224 392 461 1549
3 299 97 103 603
3 335 319 301 0
3 108 400 278 1933
3 453 285 425 537
3 474 247 416 0
3 308 490 117 0
3 463 170 13 1965
3 272 471 378 2053
3 296 477 18 1809
3 492 196 131 0
3 357 37 51 1809
3 391 430 95 1002
3 493 468 125 2237
3 456 455 420 1961
3 353 296 182 177
3 158 140 139 676
3 358 368 200 177
3 413 220 502 1825
3 473 508 52 499
3 138 180 275 0
3 170 203 369 2127
3 362 334 432 2127
3 230 361 310 2279
3 418 285 453 176
3 341 5 383 2107
3 31 14 12 1806
3 366 295 458 264
3 173 214 189 688
3 261 395 351 1805
3 346 247 474 0
3 207 330 36 392
3 215 352 262 692
3 245 441 319 0
3 397 214 173 1567
3 241 238 237 1637
3 271 106 235 1941
3 224 462 357 1804
3 383 1 379 1514
3 280 414 406 452
3 166 44 359 321
3 252 33 487 1804
3 260 316 264 2187
3 450 94 192 1533
3 390 47 403 775
3 223 417 16 328
3 70 508 152 1610
3 275 379 136 1528
3 34 342 343 304
3 389 434 504 1503
3 144 139 140 610
3 328 344 192 0
3 343 338 490 1202
3 69 263 10 301
3 410 331 401 0
3 113 171 231 1802
3 156 107 44 316
3 311 135 290 1892
3 126 443 446 741
3 114 43 257 0
3 139 527 516 1513
3 212 209 143 2111
3 375 333 159 1951
3 111 222 6 2129
3 452 418 453 1684
3 500 366 35 725
3 332 410 271 524
3 468 395 261 1800
3 8 350 158 691
3 135 515 303 1993
3 7 365 455 1965
3 254 66 514 2129
3 201 68 27 60
3 393 46 45 2189
3 161 520 463 0
3 57 334 64 2292
3 211 129 151 61
3 376 93 368 737
3 285 420 455 1435
3 339 337 277 0
3 436 80 134 1343
3 240 475 302 0
3 442 134 174 1488
3 322 476 337 459
3 438 412 411 1796
3 211 40 129 745
3 123 470 110 1993
3 293 120 100 1796
3 227 292 510 339
3 497 396 24 756
3 110 490 123 115
3 340 187 282 1686
3 1 383 5 0
3 417 50 504 1931
3 158 169 8 653
3 379 1 136 614
3 469 526 385 2063
3 151 129 287 165
3 192 344 450 1260
3 65 216 518 63
3 314 249 430 1586
3 47 412 116 1688
3 455 456 7 2131
3 129 397 481 2045
3 160 173 348 2179
3 401 331 231 2225
3 406 124 265 768
3 191 225 275 988
3 9 188 442 2059
3 155 40 121 850
3 451 316 353 2132
3 184 162 505 2035
3 260 477 296 1184
3 137 478 68 1959
3 99 444 432 1877
3 425 516 527 0
3 188 193 166 2186
3 477 48 363 1494
3 403 47 344 1407
3 319 441 276 618
3 73 247 346 0
3 296 484 199 781
3 34 110 525 2133
3 327 202 445 161
3 65 518 399 1790
3 235 106 372 785
3 67 394 361 0
3 131 257 492 1881
3 370 270 376 1192
3 160 440 141 764
3 268 176 177 0
3 244 318 58 160
3 512 400 108 1788
3 412 47 390 0
3 258 190 377 0
3 197 167 59 415
3 450 344 32 2236
3 439 183 465 0
3 143 208 240 0
3 393 239 195 65
3 320 338 343 2294
3 309 498 467 801
3 520 454 19 2236
3 521 183 507 2135
3 130 497 89 1347
3 68 152 137 1165
3 525 110 470 1354
3 272 74 217 2170
3 462 224 482 1785
3 82 220 413 2271
3 317 100 284 619
3 443 207 177 1878
3 225 191 18 1490
3 409 281 341 538
3 451 347 391 1431
3 406 414 428 2187
3 223 522 417 480
3 81 168 354 817
3 255 178 356 771
3 154 210 409 1487
3 339 54 322 1214
3 414 306 326 0
3 356 204 255 1483
3 411 447 385 1348
3 348 330 165 446
3 336 253 349 0
3 111 6 79 976
3 476 322 294 1482
3 433 225 363 1337
3 77 387 8 829
3 221 492 257 0
3 198 396 421 264
3 458 480 495 2160
3 148 84 491 1602
3 21 189 360 0
3 313 125 168 377
3 162 70 201 1783
3 5 43 114 1164
3 205 488 153 2259
3 118 238 241 319
3 28 19 454 1692
3 127 21 360 0
3 112 404 239 454
3 7 456 59 1693
3 364 200 206 2176
3 109 176 102 2245
3 413 307 82 413
3 163 72 105 284
3 407 500 213 1470
3 31 511 164 0
3 117 176 109 1598
3 107 267 175 2214
3 335 402 319 2024
3 282 72 331 500
3 355 269 142 679
3 419 284 325 1152
3 61 483 381 0
3 153 488 502 0
3 177 117 446 0
3 264 485 260 0
3 282 331 332 69
3 66 374 298 678
3 128 118 112 1881
3 507 300 85 751
3 159 27 68 109
3 198 131 196 515
3 246 132 118 768
3 230 243 361 1997
3 83 244 75 2177
3 4 185 86 152
3 276 441 237 870
3 324 333 345 2234
3 422 222 65 1254
3 49 428 326 1779
3 343 490 110 1486
3 20 211 151 1779
3 95 479 391 1188
3 501 160 141 2295
3 182 199 321 1427
3 24 478 119 1889
3 239 404 265 880
3 186 214 148 2003
3 5 114 0 0
3 415 67 380 1170
3 353 316 260 1895
3 38 218 90 2013
3 163 130 72 0
3 256 71 525 861
3 2 370 371 1446
3 143 209 28 301
3 279 36 330 2176
3 457 488 329 284
3 286 36 315 2023
3 397 129 155 1112
3 448 266 378 149
3 405 92 360 149
3 56 342 63 1592
3 362 6 422 2287
3 385 526 382 1380
3 190 181 297 899
3 471 217 419 1187
3 424 127 290 737
3 510 120 293 1771
3 445 337 2 2001
3 221 33 252 459
3 141 172 291 2012
3 507 439 97 863
3 76 43 341 2177
3 378 266 267 1628
3 55 357 51 1359
3 227 290 292 331
3 389 50 52 1921
3 473 137 152 327
3 311 290 227 1769
3 27 159 333 1768
3 51 37 50 2066
3 202 80 436 916
3 156 45 234 1603
3 421 511 198 630
3 469 427 229 448
3 79 133 88 2151
3 303 515 314 2145
3 369 13 170 395
3 232 78 489 505
3 457 91 307 1547
3 315 104 283 2297
3 373 297 178 1183
3 299 487 33 0
3 112 398 128 335
3 482 119 137 1765
3 391 314 430 2183
3 314 515 249 144
3 61 53 506 1921
3 128 398 442 475
3 90 218 407 1763
3 218 352 295 2040
3 466 249 467 144
3 126 172 440 0
3 35 460 259 2177
3 433 363 73 939
3 356 26 46 0
3 519 449 28 2012
3 129 40 155 303
3 484 191 523 943
3 514 22 254 1698
3 231 331 72 952
3 418 247 115 2208
3 221 345 492 947
3 470 415 435 1111
3 387 60 386 0
3 90 39 38 2147
3 429 464 431 2044
3 179 60 274 75
3 144 472 235 1118
3 339 145 54 141
3 21 424 30 1420
3 301 327 335 0
3 313 180 138 1116
3 125 138 493 75
3 293 100 103 2040
3 265 204 195 0
3 309 426 388 1757
3 514 109 102 1703
3 13 381 463 1180
3 304 17 248 964
3 37 462 52 2216
3 57 454 520 551
3 39 90 318 1406
3 0 14 136 1555
3 287 129 481 409
3 98 119 482 2222
3 80 202 301 2075
3 285 115 420 1135
3 335 371 437 2299
3 227 206 311 474
3 120 510 292 1264
3 365 169 516 870
3 448 121 10 0
3 382 438 411 978
3 420 307 456 329
3 424 21 127 0
3 108 74 272 138
3 465 245 464 0
3 34 525 63 2028
3 24 89 497 984
3 173 501 397 368
3 496 17 312 0
3 326 384 49 2201
3 284 100 325 1595
3 377 252 487 0
3 152 201 70 1828
3 426 423 200 2065
3 162 201 505 77
3 135 104 279 2181
3 174 128 442 1588
3 98 461 171 78
3 262 149 291 996
3 236 380 243 408
3 49 184 124 0
3 140 340 472 1706
3 32 344 47 0
3 39 318 20 1294
3 509 354 168 2249
3 497 421 396 79
3 369 203 313 2084
3 499 256 250 1385
3 18 484 296 1708
3 12 14 0 0
3 287 352 38 1747
3 41 233 54 1396
3 199 283 321 1884
3 253 208 22 2277
3 511 31 12 726
3 268 286 289 2025
3 432 334 161 1537
3 29 244 294 0
3 433 379 225 396
3 461 251 78 642
3 286 336 289 2152
3 475 315 283 2259
3 29 318 244 1314
3 259 486 498 1891
3 281 382 85 0
3 212 180 203 289
3 190 278 181 0
3 473 462 482 488
3 457 413 488 2153
3 143 523 212 384
3 178 255 373 0
3 166 134 188 2179
3 445 371 327 1370
3 185 4 71 1031
3 384 326 434 367
3 351 269 355 722
3 346 154 383 1034
3 458 460 35 1035
3 526 469 521 0
3 305 396 196 0
3 136 14 138 1113
3 501 173 160 1737
3 234 26 400 743
3 329 91 457 127
3 314 391 347 0
3 25 257 43 83
3 415 380 236 1743
3 6 362 122 1174
3 82 48 485 1551
3 167 77 7 0
3 401 231 171 83
3 507 526 521 2232
3 516 425 365 1050
3 287 481 262 1357
3 28 208 143 0
3 250 62 499 125
3 425 285 455 1712
3 75 376 270 1712
