ply
format ascii 1.0
element vertex 678
property float x
property float y
property float z
element face 1352
property list uchar int vertex_indices
end_header
-216.507 -143.637 52.1085
-202.55 -156.194 33.8565
-210.624 -148.456 43.1231
-171.538 -185.674 18.3111
-106.101 -209.866 50.4654
-122.383 -143.634 151.639
-106.969 -164.14 135.554
-162.334 -121.367 163.556
-97.224 -198.904 83.1414
-392.052 -294.151 131.956
-391.809 -283.361 148.549
-390.718 -272.746 132.782
-390.314 -301.33 148.943
-388.413 -281.455 115.905
-388.3 -265.597 146.931
-386.679 -316.025 132.689
-386.041 -296.258 167.547
-385.875 -302.66 109.667
-384.889 -258.842 120.376
-384.362 -275.32 167.976
-384.243 -316 156.92
-381.868 -247.767 132.786
-381.713 -320.169 112.87
-381.342 -266.476 104.464
-380.443 -250.809 110.058
-378.239 -251.105 155.586
-377.902 -238.242 121.028
-377.132 -333.362 144.309
-376.59 -282.591 89.7439
-376.185 -314.319 96.1954
-376.144 -333.547 124.068
-376.11 -242.98 107.434
-375.369 -313.12 179.563
-374.683 -299.424 88.0423
-374.499 -238.118 141.641
-374.181 -331.125 162.982
-374 -276.175 184.254
-373.918 -290.682 187.538
-373.748 -259.205 89.2119
-372.564 -235.783 116.827
-371.656 -261.431 176.86
-371.07 -330.317 103.622
-370.964 -229.973 132.321
-370.136 -239.496 109.404
-368.109 -245.03 93.3494
-367.992 -241.474 102.491
-367.496 -230.167 123.841
-367.149 -263.424 77.7501
-366.664 -235.635 152.457
-366.363 -273.851 72.3401
-366.24 -234.695 117.334
-365.874 -254.278 82.8683
-365.411 -345.343 152.488
-365.086 -229.867 77.5554
-365.072 -227.582 143.351
-364.923 -229.655 120.055
-364.445 -220.609 66.6365
-364.26 -333.264 179.333
-364.026 -238.453 88.2728
-363.922 -226.243 129.529
-363.769 -210.005 68.976
-363.607 -324.022 88.4121
-363.55 -240.955 97.0802
-363.407 -290.075 72.8771
-363.397 -245.277 83.4584
-363.248 -232.228 116.22
-362.87 -308.835 78.5532
-362.687 -238.299 112.832
-362.507 -270.035 70.8864
-362.487 -208.42 59.0732
-362.047 -241.523 105.505
-361.57 -220.514 79.4704
-361.551 -224.54 126.473
-361.528 -263.353 77.0872
-361.328 -349.931 135.542
-361.314 -242.179 168.043
-360.819 -239.382 77.308
-360.687 -226.223 122.074
-360.575 -231.516 115.784
-360.508 -308.417 199.06
-360.383 -255.977 81.3046
-360.258 -217.105 59.07
-359.884 -201.655 64.8285
-358.954 -236.117 110.786
-358.8 -234.659 92.0367
-358.774 -274.802 196.809
-358.615 -275.203 66.5226
-358.282 -345.768 111.094
-357.995 -223.28 126.957
-357.877 -250.411 81.7415
-357.78 -240.128 108.899
-357.7 -202.862 58.0989
-357.489 -240.702 99.2634
-357.463 -222.566 134.489
-357.009 -226.847 115.536
-356.387 -209.863 54.4108
-356.384 -347.515 170.037
-356.375 -282.502 64.0858
-356.36 -227.554 65.6864
-356.173 -222.259 123.013
-355.497 -270.093 69.8776
-355.458 -223.69 114.353
-355.156 -240.517 103.941
-355.064 -254.64 185.506
-355.005 -234.348 109.793
-354.772 -219.793 120.083
-354.757 -255.208 82.8264
-354.388 -236.933 107.159
-354.155 -326.295 197.443
-353.944 -337.592 94.3741
-353.804 -220.321 87.2625
-353.582 -230.281 108.963
-353.526 -237.405 98.8367
-353.204 -201.134 63.9943
-352.933 -235.769 107.39
-352.684 -218.513 127.034
-352.592 -265.632 71.7626
-352.484 -263.828 77.6525
-352.466 -200.256 71.1436
-352.433 -220.48 132.759
-352.348 -236.815 72.2237
-352.223 -227.897 95.6344
-352.054 -258.59 82.0516
-351.96 -217.757 55.6017
-351.863 -269.785 65.5106
-351.492 -200.788 77.0098
-351.478 -205.25 57.1385
-351.394 -276.354 63.142
-351.36 -219.996 113.031
-351.179 -246.047 77.8688
-351.041 -263.55 74.7251
-350.788 -232.448 103.253
-350.717 -294.53 207.845
-350.711 -224.202 107.856
-350.327 -295.117 65.585
-349.975 -214.927 120.507
-349.815 -253.559 81.8596
-349.66 -216.664 142.196
-349.31 -215.868 129.803
-349.182 -222.413 155.907
-349.075 -263.986 72.3456
-348.986 -219.258 103.853
-348.632 -259.673 79.0863
-348.448 -308.024 69.9427
-348.396 -267.797 66.4419
-348.131 -216.118 135.897
-348.104 -212.876 93.7281
-348.097 -208.412 84.7152
-347.138 -213.155 53.9992
-346.799 -260.447 76.2985
-346.689 -323.018 78.0387
-346.476 -273.084 61.0316
-346.369 -201.331 62.1202
-346.278 -277.58 60.3531
-346.013 -256.512 77.337
-345.955 -198.894 75.7291
-345.579 -262.727 69.0274
-345.548 -203.008 71.0732
-345.209 -207.05 129.897
-344.93 -250.248 76.181
-344.279 -205.93 58.3801
-344.108 -285.185 59.8421
-343.767 -271.326 62.1239
-343.454 -362.619 143.613
-343.173 -234.126 65.2938
-343.14 -260.714 66.078
-343.138 -346.215 191.551
-342.987 -361.664 158.509
-342.908 -212.459 59.7407
-342.212 -267.409 62.2347
-341.703 -220.349 54.4238
-341.027 -198.52 110.629
-341.007 -199.034 81.7471
-340.903 -200.636 91.1333
-340.878 -251.35 68.992
-340.734 -235.756 176.653
-340.313 -277.478 59.1584
-339.765 -197.581 74.8373
-339.715 -210.73 59.6192
-339.643 -361.841 126.533
-339.063 -263.6 60.4591
-338.724 -215.326 54.5172
-338.354 -315.732 214.673
-338.114 -191.7 64.6768
-337.423 -225.454 57.7984
-336.892 -201.34 53.9495
-336.476 -255.521 61.0974
-336.381 -274.45 59.506
-336.208 -268.699 58.5507
-335.895 -339.194 88.7184
-335.531 -261.626 202.918
-334.895 -214.301 56.3793
-334.679 -208.844 54.7322
-334.387 -354.698 105.811
-334.373 -186.468 58.0396
-333.93 -278.526 214.121
-333.774 -220.015 55.0629
-333.666 -235.044 57.7587
-333.462 -203.963 147.323
-332.786 -190.302 51.9958
-332.241 -261.969 56.1717
-332.197 -304.33 64.1878
-331.832 -193.545 130.594
-331.782 -337.31 210.019
-331.46 -182.911 65.2764
-330.385 -280.582 57.0741
-329.89 -362.192 182.841
-329.091 -183.83 59.1464
-328.858 -180.952 57.9181
-328.801 -271.631 55.2438
-328.181 -185.699 89.8038
-327.905 -186.735 52.3416
-326.912 -180.155 75.4704
-326.906 -289.767 57.0222
-326.847 -296.441 221.839
-326.812 -180.582 66.8407
-326.496 -244.613 50.7624
-326.044 -193.28 47.5399
-325.462 -177.113 55.2099
-325.426 -201.277 45.3479
-324.683 -175.385 61.3753
-324.357 -176.378 67.7784
-324.31 -190.446 44.2496
-323.898 -181.526 48.7592
-321.992 -221.045 49.026
-321.676 -177.859 75.612
-321.592 -373.234 154.369
-321.575 -367.166 121.903
-320.984 -213.475 167.103
-320.946 -259.8 47.4196
-320.707 -371.129 173.896
-320.697 -325.747 76.7098
-320.343 -198.454 44.1657
-320.192 -277.361 51.2148
-319.087 -327.002 222.743
-318.915 -350.567 97.8359
-318.706 -311.969 225.998
-318.648 -187.685 41.2472
-318.045 -174.392 85.4427
-317.617 -172.823 77.5266
-317.094 -195.048 40.6893
-316.89 -354.789 204.843
-316.068 -170.047 58.595
-315.482 -187.444 138.68
-314.954 -341.212 217.867
-314.639 -173.602 49.7367
-313.98 -168.18 71.9182
-313.146 -291.952 54.4708
-312.048 -374.364 136.204
-311.966 -207.918 41.3057
-311.911 -172.712 103.952
-311.55 -180.841 41.88
-311.223 -204.4 41.686
-310.225 -283.24 225.576
-309.925 -266.913 218.869
-309.783 -243.223 42.1214
-308.72 -194.475 152.859
-308.075 -200.547 39.2354
-307.097 -367.577 117.529
-306.937 -221.67 41.3693
-306.508 -318.126 229.609
-306.443 -247.139 204.446
-306.331 -162.834 82.7892
-306.191 -370.252 189.555
-306.026 -264.357 44.1513
-305.423 -158.66 50.9162
-304.146 -156.69 64.7439
-303.946 -377.987 170.671
-303.904 -190.365 37.2219
-302.961 -331.305 226.749
-302.904 -230.156 191.552
-302.753 -165.186 40.2635
-302.718 -301.732 231.101
-301.01 -173.073 124.016
-300.992 -210.1 38.4794
-299.697 -222.176 188.566
-298.697 -226.956 193.687
-298.643 -380.038 153.948
-298.572 -221.973 194.795
-298.448 -345.508 220.017
-298.269 -215.506 181.088
-296.477 -281.252 48.6842
-296.312 -226.017 200.472
-295.675 -302.848 60.9136
-295.166 -150.579 58.6517
-294.881 -350.761 99.283
-294.534 -174.733 32.3732
-294.341 -152.809 80.2051
-294.279 -217.503 188.762
-293.864 -230.242 38.4126
-293.862 -155.243 45.3197
-293.778 -377.957 137.301
-293.229 -358.887 208.812
-292.923 -231.334 199.04
-292.384 -223.121 203.322
-292.232 -202.136 168.041
-291.98 -159.633 105.132
-291.286 -317.21 232.7
-290.87 -220.707 192.321
-290.705 -163.554 35.2778
-290.128 -376.584 182.43
-289.983 -287.917 231.526
-289.536 -229.116 205.783
-289.475 -236.951 202.427
-289.238 -179.027 142.05
-288.918 -272.811 226.9
-288.626 -212.444 181.517
-288.451 -242.46 39.3745
-287.967 -219.068 194.415
-287.457 -220.175 201.634
-287.034 -207.212 177.5
-286.788 -196.882 31.8554
-286.383 -369.907 195.637
-286.342 -217.064 186.889
-285.891 -225.73 209.495
-285.131 -232.503 202.824
-285.024 -215.787 189.842
-284.52 -330.669 229.188
-284.247 -201.822 173.177
-283.987 -192.585 161.231
-283.465 -370.917 122.088
-283.153 -153.242 57.2215
-282.628 -184.947 29.4981
-282.583 -212.648 195.663
-282.543 -222.142 204.873
-282.413 -208.874 177.753
-281.904 -229.772 208.339
-281.734 -380.599 150.76
-281.646 -195.692 169.804
-281.468 -216.555 33.9234
-281.404 -212.846 181.339
-281.304 -150.401 74.9304
-280.643 -300.626 62.1823
-280.633 -162.269 42.3016
-280.541 -214.834 201.562
-280.351 -250.838 214.73
-280.211 -174.898 31.5808
-280.096 -212.94 186.731
-279.921 -286.177 54.0117
-279.832 -258.456 43.356
-279.754 -151.937 93.912
-279.379 -159.743 116.92
-278.995 -301.722 234.009
-278.782 -198.162 177.5
-278.729 -225.509 210.664
-278.549 -205.683 177.107
-278.26 -319.439 77.0204
-277.986 -191.516 169.367
-277.607 -221.306 208.111
-276.974 -379.621 166.46
-276.59 -232.562 202.7
-276.422 -208.345 182.356
-276.24 -346.223 220.215
-276.221 -206.333 192.555
-275.618 -189.679 166.745
-275.112 -202.122 183.5
-275.076 -218.15 203.068
-274.838 -376.608 135.687
-274.788 -227.906 208.429
-274.598 -210.207 198.509
-274.464 -194.077 175.556
-273.357 -190.263 158.599
-272.562 -190.657 172.931
-271.725 -316.636 232.444
-271.619 -171.05 135.476
-270.837 -359.869 206.661
-270.683 -200.514 30.4033
-270.581 -284.824 230.592
-270.477 -371.754 189.357
-270.437 -222.295 208.201
-270.282 -202.535 189.077
-270.123 -155.537 104.711
-269.867 -192.257 169.289
-269.825 -211.374 197.608
-269.62 -225.958 204.578
-269.535 -226.432 34.784
-268.858 -161.82 58.1951
-268.731 -175.611 38.5678
-268.118 -305.396 68.9552
-268.041 -195.714 179.608
-267.781 -225.215 197.093
-267.749 -214.757 202.972
-267.609 -161.203 119.06
-267.348 -200.473 168.942
-267.12 -351.191 103.682
-266.752 -232.677 199.934
-266.531 -367.443 121.57
-265.476 -197.291 175.045
-265.152 -158.374 72.1502
-264.973 -218.371 187.822
-264.773 -205.342 192.702
-264.642 -210.725 180.997
-264.632 -266.634 223.189
-264.481 -318.972 78.0164
-264.373 -376.895 147.656
-263.982 -219.119 201.81
-263.495 -331.249 226.277
-263.141 -224.399 191.628
-262.612 -209.329 174.129
-262.491 -260.956 48.4803
-262.312 -215.835 192.881
-261.93 -171.086 50.4477
-261.855 -205.397 186.114
-261.773 -296.198 65.6961
-261.67 -313.662 70.8059
-261.426 -211.87 196.667
-261.058 -193.296 34.4807
-259.968 -300.866 230.909
-259.616 -218.412 183.778
-259.574 -157.576 91.5215
-259.498 -307.171 69.6169
-259.04 -322.371 77.1062
-258.76 -170.395 129.016
-258.718 -321.828 73.3616
-258.17 -313.703 72.1329
-257.832 -198.264 162.847
-257.684 -161.974 111.765
-257.216 -369.586 131.812
-256.639 -307.294 74.5575
-256.303 -325.802 84.3199
-256 -302.106 70.3114
-255.895 -235.308 38.5697
-255.251 -215.547 34.1197
-254.769 -277.516 59.2138
-254.722 -165.982 62.9022
-254.675 -320.092 72.9256
-254.59 -183.283 147.655
-254.553 -345.024 214.892
-254.418 -247.086 208.746
-254.409 -373.835 160.859
-254.331 -370.859 178.6
-254.258 -325.584 76.6207
-254.255 -296.064 67.3083
-253.676 -311.592 75.7961
-253.246 -316.053 227.139
-253.105 -360.158 198.383
-252.349 -160.811 75.4728
-252.175 -282.474 225.383
-252.006 -303.32 75.1197
-251.542 -285.825 63.2775
-251.171 -186.548 45.2757
-250.682 -295.1 71.616
-250.055 -290.83 65.0011
-250.032 -357.481 117.78
-249.906 -166.123 121.452
-249.629 -297.221 73.9654
-249.443 -174.552 137.02
-249.304 -324.922 74.6059
-248.618 -292.788 68.0923
-248.035 -317.433 73.832
-247.759 -341.16 102.439
-247.437 -245.234 46.8987
-247.33 -326.346 79.0822
-247.302 -265.576 58.6653
-247.137 -286.327 67.3103
-246.903 -292.826 74.1192
-246.825 -369.014 147.41
-246.203 -174.467 54.8802
-246.182 -229.008 191.376
-246.169 -308.188 72.8689
-246.127 -281.675 60.2252
-245.979 -208.047 41.2473
-245.678 -324.195 87.5222
-245.553 -262.871 215.056
-245.356 -285.344 65.1148
-244.794 -227.432 41.6993
-244.643 -299.541 224.422
-244.511 -158.587 104.598
-243.378 -327.655 218.371
-243.171 -289.431 70.9315
-242.944 -286.071 60.7752
-242.943 -320.684 75.1473
-242.915 -298.815 74.2016
-242.532 -156.56 82.6537
-242.43 -214.238 177.823
-242.252 -162.531 65.0523
-241.753 -274.999 57.2437
-241.46 -271.009 60.0604
-241.363 -159.842 118.907
-241.322 -359.137 187.593
-241.265 -269.467 65.9362
-240.373 -359.768 132.228
-240.369 -324.527 81.6967
-240.212 -166.337 134.021
-239.615 -294.152 70.038
-239.096 -314.788 71.0059
-238.865 -324.463 76.9393
-238.713 -191.543 160.789
-238.71 -186.095 50.789
-238.524 -290.346 63.699
-238.176 -312.224 219.632
-238.129 -219.989 47.4507
-237.889 -307.275 68.0769
-237.683 -200.568 48.739
-237.675 -318.545 88.2526
-237.555 -275.382 64.9448
-237.395 -262.378 66.9426
-236.998 -341.833 204.231
-236.998 -282.472 58.7876
-235.953 -279.703 72.2611
-235.701 -242.56 56.1157
-235.567 -361.665 166.568
-235.319 -271.188 72.0027
-234.944 -315.831 73.8375
-234.782 -277.27 59.3988
-234.588 -297.176 65.5556
-234.144 -327.749 101.119
-233.772 -168.459 54.1443
-233.751 -344.6 117.872
-233.744 -359.094 146.36
-233.694 -147.854 104.744
-233.629 -320.815 80.8034
-233.475 -308.77 68.5147
-233.436 -172.911 147.261
-233.236 -302.614 65.6998
-233.147 -287.328 72.9017
-233.059 -310.049 85.143
-232.973 -147.128 89.2485
-232.876 -275.907 212.524
-231.868 -319.613 76.0063
-231.46 -298.419 79.3515
-230.79 -283.044 64.9181
-230.654 -296.175 83.9318
-230.619 -156.737 57.9737
-230.583 -149.141 119.978
-230.452 -288.156 62.6108
-230.282 -302.978 68.0098
-230.189 -282.607 78.8152
-228.708 -348.344 184.558
-228.502 -314.568 78.3894
-228.24 -299.948 213.143
-227.707 -144.992 70.9655
-227.579 -181.255 50.3177
-227.168 -309.727 72.7624
-227.134 -320.06 208.32
-226.981 -292.739 70.4387
-226.784 -243.221 193.633
-226.674 -222.794 54.0967
-226.572 -298.841 68.2782
-226.098 -303.579 75.856
-225.569 -254.252 66.6252
-225.532 -201.65 51.6095
-225.122 -311.175 98.6758
-225.086 -199.566 168.493
-224.65 -238.679 59.2811
-224.048 -349.748 152.465
-223.45 -287.969 86.2841
-223.425 -343.197 134.216
-223.146 -222.914 180.965
-222.873 -152.984 134.737
-222.276 -332.214 194.291
-222.111 -157.475 49.9061
-222.001 -346.783 167.872
-220.757 -326.375 116.712
-220.522 -129.28 102.591
-219.879 -274.63 80.8412
-218.559 -281.413 201.192
-218.218 -174.318 154.688
-216.867 -135.065 120.801
-216.717 -316.355 197.273
-216.354 -301.84 200.715
-216.25 -334.862 176.244
-216.047 -127.288 67.3649
-215.196 -220.878 53.8736
-213.887 -288.837 95.9946
-213.754 -165.962 42.8689
-212.611 -321.639 185.32
-212.297 -157.276 145.259
-212.063 -120.78 111.856
-211.953 -330.215 152.212
-211.338 -320.979 130.386
-211.19 -181.001 43.6009
-209.91 -286.067 190.037
-209.636 -198.999 46.968
-209.608 -249.148 182.901
-209.564 -185.713 162.441
-208.786 -206.348 170.581
-208.745 -300.775 113.592
-208.327 -235.467 59.4197
-208.264 -227.558 176.943
-208.223 -141.58 136.501
-207.417 -252.673 70.4925
-207.02 -303.03 182.652
-206.593 -264.801 181.191
-205.559 -314.041 165.48
-205.442 -125.791 128.337
-203.001 -272.477 91.8106
-202.408 -281.697 173.849
-202.275 -113.217 126.04
-201.888 -164.169 153.557
-201.647 -174.051 35.2495
-201.192 -217.45 50.4623
-200.642 -298.117 134.322
-199.237 -291.927 157.614
-198.721 -265.388 167.881
-198.705 -279.311 106.947
-198.121 -148.876 147.615
-197.456 -134.598 141.678
-197.365 -188.409 37.736
-196.979 -251.698 167.877
-196.586 -257.537 81.2676
-195.397 -180.878 161.385
-195.164 -275.102 155.3
-194.674 -213.979 168.082
-194.051 -281.587 140.193
-193.142 -203.146 42.1068
-192.879 -121.73 142.548
-192.331 -227.802 166.778
-191.122 -225.66 55.9463
-190.917 -168.498 25.4891
-189.442 -272.824 121.325
-189.159 -257.841 153.422
-188.767 -158.41 155.191
-187.529 -110.096 147.194
-186.927 -195.343 163.623
-186.669 -214.804 47.5865
-186.598 -182.468 26.5413
-185.9 -236.838 67.9375
-185.779 -240.045 157.514
-185.751 -265.049 136.463
-185.159 -139.195 151.766
-184.786 -258.839 98.3167
-184.421 -194.333 32.338
-180.694 -122.767 154.034
-178.808 -174.007 159.699
-178.545 -208.585 159.908
-178.529 -104.402 150.593
-176.919 -223.512 56.9634
-176.073 -155.052 157.345
-174.681 -253.13 117.858
-174.674 -246.33 136.575
-174.118 -241.17 82.4883
-173.449 -113.361 158.986
-172.085 -207.034 36.1435
-170.773 -221.458 149.921
-170.625 -189.636 158.635
-170.517 -137.436 158.877
-169.602 -195.432 21.7734
-169.238 -217.335 49.2526
-167.081 -243.41 100.365
-163.172 -230.846 135.002
-161.615 -238.801 118.211
-161.152 -165.946 157.993
-160.566 -201.8 150.385
-160.298 -227.824 71.1279
-159.805 -221.363 56.7374
-158.806 -214.097 41.7226
-157.976 -232.73 86.7788
-156.241 -141.636 161.198
-151.719 -184.098 151.892
-150.625 -230.647 103.861
-149.195 -212.583 135.053
-149.168 -224.811 120.895
-145.36 -213.696 31.1116
-144.835 -151.872 158.2
-144.519 -224.849 82.6226
-143 -217.827 46.1794
-142.884 -220.836 61.9016
-140.412 -193.468 141.748
-138.753 -166.038 152.579
-138.669 -220.718 108.038
-134.54 -220.277 92.5901
-134.073 -216.175 24.619
-132.807 -211.094 118.137
-129.866 -178.93 143.706
-129.683 -218.546 52.8179
-129.295 -150.463 154.886
-126.056 -217.642 70.1211
-124.768 -196.022 127.994
-121.321 -218.203 38.8223
-119.004 -214.934 30.4161
-118.386 -162.453 145.769
-118.337 -211.151 93.6066
-113.759 -200.679 111.07
-113.206 -178.389 133.717
-111.465 -215.354 57.1636
-103.582 -209.355 71.6794
-101.937 -201.78 93.9058
3 662 4 670
3 662 8 4
3 662 6 8
3 662 5 6
3 662 7 5
3 662 632 7
3 662 626 632
3 662 3 626
3 3 609 626
3 609 1 626
3 1 562 626
3 1 2 562
3 562 588 626
3 588 613 626
3 562 568 588
3 662 637 3
3 2 0 562
3 662 653 637
3 6 677 8
3 562 554 568
3 6 674 677
3 674 673 677
3 7 666 5
3 7 648 666
3 648 654 666
3 5 671 6
3 562 531 554
3 531 517 554
3 674 668 673
3 653 633 637
3 517 510 554
3 1 565 2
3 2 551 0
3 572 560 582
3 559 566 582
3 584 582 566
3 556 560 572
3 559 582 560
3 587 572 582
3 530 560 556
3 550 559 534
3 550 561 566
3 566 559 550
3 584 566 561
3 550 534 497
3 593 587 582
3 530 490 534
3 534 468 497
3 561 569 584
3 593 582 584
3 593 602 587
3 587 602 594
3 518 556 574
3 583 572 587
3 468 534 490
3 550 528 561
3 530 556 518
3 490 530 466
3 569 561 552
3 552 561 528
3 466 530 518
3 468 490 434
3 528 550 497
3 593 604 602
3 599 594 611
3 536 518 574
3 594 599 583
3 547 569 545
3 552 545 569
3 611 594 602
3 427 435 497
3 618 599 611
3 437 466 518
3 592 569 570
3 501 552 528
3 619 602 604
3 611 602 619
3 435 427 365
3 463 518 536
3 434 490 466
3 583 599 574
3 570 569 547
3 604 593 592
3 501 528 479
3 427 468 396
3 365 427 352
3 611 630 618
3 407 466 437
3 434 466 407
3 352 427 396
3 547 553 570
3 577 570 553
3 592 570 577
3 545 552 501
3 392 437 463
3 553 547 508
3 619 604 610
3 574 579 536
3 592 610 604
3 630 611 619
3 619 629 630
3 367 437 392
3 407 437 367
3 363 434 407
3 579 574 607
3 501 479 430
3 335 428 385
3 428 335 392
3 428 463 536
3 396 434 363
3 607 618 634
3 545 509 547
3 368 435 365
3 342 407 367
3 363 407 342
3 607 603 579
3 634 625 607
3 456 481 509
3 430 435 368
3 579 548 536
3 625 603 607
3 450 506 508
3 553 506 542
3 456 509 501
3 456 501 429
3 367 392 305
3 363 317 396
3 317 352 396
3 450 462 506
3 564 577 542
3 305 392 335
3 458 385 428
3 342 367 301
3 458 536 548
3 603 576 579
3 279 352 317
3 508 443 450
3 595 577 564
3 429 394 456
3 429 430 349
3 610 621 629
3 630 629 641
3 261 335 303
3 301 367 305
3 576 548 579
3 317 363 297
3 625 634 643
3 621 610 595
3 629 639 641
3 651 640 652
3 303 335 350
3 350 315 303
3 350 358 326
3 297 363 342
3 614 625 635
3 668 658 651
3 368 349 430
3 650 641 639
3 652 640 641
3 292 263 312
3 293 303 315
3 315 350 326
3 326 302 315
3 344 326 358
3 358 350 374
3 374 369 358
3 380 385 397
3 350 385 380
3 301 272 342
3 297 342 272
3 643 634 651
3 241 292 279
3 417 443 481
3 417 481 456
3 429 349 394
3 312 300 368
3 652 641 650
3 652 663 651
3 668 651 663
3 293 315 302
3 369 348 344
3 369 344 358
3 374 350 380
3 408 458 474
3 614 576 603
3 651 658 643
3 494 506 462
3 586 595 564
3 282 293 302
3 270 261 303
3 314 344 348
3 324 348 356
3 381 348 369
3 356 348 381
3 374 380 395
3 253 301 305
3 389 397 408
3 269 244 279
3 462 452 482
3 516 522 542
3 564 546 555
3 327 394 349
3 349 368 300
3 300 312 263
3 650 660 652
3 282 302 294
3 294 314 348
3 309 294 324
3 373 356 381
3 369 374 395
3 395 380 400
3 400 405 395
3 400 389 391
3 452 462 419
3 419 431 452
3 494 462 482
3 511 494 482
3 516 494 511
3 520 516 539
3 384 450 443
3 386 443 417
3 522 516 520
3 267 300 263
3 294 278 282
3 276 282 278
3 278 275 276
3 324 294 348
3 334 323 309
3 359 356 373
3 334 356 359
3 369 395 381
3 390 373 381
3 402 405 400
3 398 408 474
3 576 575 543
3 260 272 236
3 601 576 614
3 635 642 624
3 649 643 658
3 203 241 244
3 411 419 393
3 431 419 411
3 411 413 431
3 447 452 431
3 486 452 447
3 394 417 456
3 357 417 394
3 386 417 357
3 357 394 327
3 631 639 621
3 650 661 660
3 206 241 166
3 275 278 288
3 288 278 294
3 294 298 288
3 308 294 309
3 370 373 390
3 359 373 370
3 390 405 402
3 402 400 391
3 269 260 234
3 642 635 649
3 166 241 203
3 413 393 404
3 413 411 393
3 471 486 447
3 447 449 471
3 503 486 471
3 471 485 503
3 503 533 519
3 529 516 511
3 539 516 529
3 320 386 357
3 586 564 555
3 647 650 639
3 673 668 663
3 276 275 270
3 298 294 308
3 288 280 275
3 313 288 298
3 308 309 323
3 323 316 308
3 370 353 359
3 398 383 391
3 487 474 543
3 236 234 260
3 649 658 664
3 414 433 425
3 449 447 425
3 485 471 449
3 533 539 529
3 527 546 522
3 600 621 586
3 327 349 277
3 277 349 267
3 267 263 230
3 663 660 672
3 230 263 206
3 402 383 387
3 254 190 195
3 254 195 253
3 398 415 383
3 415 474 487
3 398 474 415
3 182 203 234
3 203 244 234
3 449 425 433
3 433 414 418
3 512 503 485
3 503 526 533
3 538 539 533
3 535 539 538
3 384 386 320
3 520 535 515
3 527 522 499
3 499 502 527
3 555 546 527
3 600 586 555
3 660 661 672
3 280 270 275
3 280 288 306
3 316 323 337
3 402 379 390
3 214 253 195
3 214 272 253
3 236 272 214
3 236 182 234
3 601 614 624
3 346 285 283
3 403 420 410
3 410 404 378
3 378 403 410
3 433 459 449
3 438 433 418
3 512 485 492
3 526 503 512
3 538 533 526
3 515 521 495
3 515 495 499
3 515 499 522
3 515 522 520
3 555 527 502
3 647 639 631
3 277 291 327
3 673 663 672
3 206 166 96
3 310 280 306
3 313 316 337
3 306 325 310
3 355 353 370
3 415 361 383
3 659 649 664
3 285 231 283
3 332 346 283
3 332 378 346
3 414 404 410
3 410 420 418
3 459 433 438
3 459 472 492
3 538 526 505
3 505 526 514
3 538 525 535
3 521 515 535
3 617 600 581
3 667 661 655
3 270 280 228
3 330 313 337
3 330 325 306
3 318 310 325
3 325 345 318
3 330 337 351
3 659 654 642
3 420 403 432
3 472 459 438
3 441 432 448
3 445 432 441
3 505 492 472
3 514 492 505
3 285 384 320
3 525 538 505
3 521 535 525
3 320 258 285
3 226 277 267
3 267 230 226
3 206 167 230
3 295 310 318
3 345 325 330
3 330 351 345
3 343 318 345
3 379 362 360
3 379 387 372
3 132 214 195
3 182 214 132
3 612 601 624
3 182 108 203
3 671 664 674
3 472 438 445
3 505 472 484
3 455 445 441
3 484 469 489
3 489 505 484
3 525 505 489
3 495 521 504
3 480 499 495
3 502 499 480
3 258 320 291
3 248 291 277
3 248 277 226
3 226 230 167
3 96 167 206
3 261 228 175
3 328 318 343
3 295 318 328
3 343 360 328
3 379 372 362
3 361 354 372
3 601 589 575
3 624 628 612
3 628 624 642
3 654 648 642
3 448 432 442
3 472 445 455
3 489 469 464
3 525 489 498
3 504 521 525
3 495 477 480
3 496 500 540
3 581 555 540
3 644 631 617
3 354 362 372
3 347 362 354
3 354 361 319
3 557 575 589
3 589 601 612
3 231 285 235
3 460 439 423
3 454 464 469
3 489 464 470
3 489 470 498
3 477 495 504
3 504 476 477
3 480 477 453
3 248 258 291
3 578 617 581
3 627 644 617
3 347 354 319
3 347 319 328
3 361 415 426
3 132 79 182
3 108 57 166
3 403 423 439
3 464 439 460
3 460 470 464
3 460 423 476
3 476 504 498
3 453 477 476
3 667 672 661
3 295 328 319
3 426 487 513
3 513 557 567
3 557 589 567
3 108 182 79
3 666 654 659
3 666 659 671
3 96 57 35
3 283 281 338
3 454 439 464
3 498 460 476
3 470 460 498
3 423 453 476
3 235 285 258
3 179 248 226
3 677 673 672
3 96 52 167
3 361 304 319
3 364 361 426
3 589 596 567
3 612 596 589
3 671 674 6
3 423 399 453
3 235 258 193
3 453 451 500
3 578 540 544
3 608 617 578
3 227 193 258
3 228 198 139
3 175 75 103
3 132 195 85
3 567 596 580
3 612 628 620
3 32 108 79
3 5 666 671
3 247 201 213
3 281 283 247
3 235 189 231
3 627 638 645
3 665 657 656
3 677 672 676
3 676 8 677
3 75 40 103
3 304 361 364
3 426 446 412
3 567 549 513
3 596 612 620
3 233 247 213
3 193 227 179
3 656 657 645
3 137 54 139
3 75 139 48
3 256 198 228
3 256 304 243
3 412 364 426
3 444 412 446
3 597 596 620
3 580 596 597
3 35 57 32
3 52 96 35
3 213 161 205
3 189 150 231
3 338 281 339
3 399 338 339
3 544 500 537
3 591 578 563
3 646 656 645
3 167 52 74
3 74 52 27
3 25 75 48
3 40 75 25
3 198 256 243
3 37 132 85
3 243 304 273
3 446 483 444
3 444 483 478
3 483 513 549
3 549 567 580
3 79 132 37
3 37 32 79
3 52 35 27
3 233 213 205
3 451 453 399
3 578 591 608
3 193 179 87
3 665 656 669
3 163 74 179
3 675 4 676
3 74 27 30
3 48 139 54
3 36 40 19
3 37 85 36
3 549 524 483
3 35 32 20
3 27 35 20
3 176 205 161
3 134 161 201
3 233 205 209
3 189 235 193
3 500 451 465
3 451 421 465
3 615 627 608
3 646 645 638
3 74 163 167
3 341 364 382
3 412 382 364
3 444 416 412
3 549 580 558
3 597 620 606
3 16 32 37
3 187 205 176
3 231 150 201
3 591 615 608
3 87 179 74
3 87 74 30
3 4 675 669
3 48 54 34
3 36 19 37
3 382 412 416
3 580 585 558
3 597 585 580
3 606 620 623
3 623 620 636
3 27 20 15
3 187 209 205
3 134 201 143
3 281 264 339
3 307 339 264
3 563 537 541
3 591 605 615
3 633 646 638
3 670 4 669
3 59 93 72
3 119 99 88
3 119 88 72
3 119 72 93
3 25 48 34
3 145 138 119
3 158 138 145
3 158 145 137
3 202 198 243
3 341 296 273
3 12 20 16
3 15 20 12
3 151 187 176
3 176 161 153
3 153 151 176
3 127 161 97
3 229 233 209
3 143 201 150
3 189 193 109
3 537 500 491
3 605 591 573
3 633 615 605
3 42 59 46
3 46 59 72
3 72 55 46
3 115 119 138
3 99 119 115
3 202 243 273
3 478 483 524
3 554 524 558
3 597 606 585
3 124 151 127
3 162 187 151
3 188 200 209
3 264 233 229
3 66 150 61
3 375 421 339
3 465 421 422
3 493 537 491
3 541 537 493
3 653 656 646
3 662 669 653
3 670 669 662
3 46 50 39
3 77 78 65
3 77 72 88
3 88 99 77
3 105 99 115
3 115 135 105
3 115 138 135
3 138 158 135
3 19 16 37
3 100 124 127
3 116 124 100
3 144 151 124
3 162 151 144
3 134 63 97
3 169 187 162
3 180 188 169
3 200 188 180
3 189 109 150
3 307 375 339
3 422 421 375
3 461 465 422
3 491 465 461
3 491 461 493
3 605 622 633
3 50 46 55
3 55 65 50
3 94 77 99
3 78 77 94
3 135 128 105
3 34 54 42
3 42 21 34
3 158 202 171
3 25 19 40
3 250 202 273
3 273 296 250
3 613 632 626
3 12 9 15
3 100 127 86
3 144 124 116
3 116 140 144
3 97 49 86
3 127 97 86
3 169 162 144
3 61 150 109
3 605 598 622
3 50 43 39
3 104 78 94
3 94 111 104
3 101 105 128
3 25 34 21
3 14 19 25
3 171 202 250
3 16 19 10
3 382 371 341
3 467 416 444
3 467 444 478
3 510 478 524
3 68 86 49
3 100 86 68
3 156 144 140
3 169 144 156
3 49 97 63
3 165 180 169
3 186 180 165
3 200 180 186
3 307 264 255
3 307 255 289
3 598 605 573
3 653 646 633
3 45 43 70
3 31 39 43
3 26 39 31
3 107 102 90
3 107 104 111
3 111 114 107
3 111 94 101
3 101 133 111
3 510 524 554
3 568 585 588
3 588 585 606
3 130 116 117
3 63 28 49
3 156 165 169
3 165 154 174
3 174 186 165
3 41 109 87
3 598 573 571
3 17 22 15
3 62 45 70
3 102 70 90
3 21 42 26
3 21 14 25
3 131 107 114
3 102 107 131
3 131 111 133
3 114 111 131
3 133 101 128
3 568 554 558
3 17 15 9
3 73 100 68
3 142 130 117
3 149 130 142
3 216 200 186
3 61 109 41
3 255 259 289
3 366 375 329
3 616 637 622
3 616 3 637
3 41 30 22
3 87 30 41
3 92 70 102
3 131 112 102
3 133 141 131
3 128 141 133
3 141 128 135
3 296 341 340
3 340 341 371
3 16 10 12
3 9 12 10
3 17 9 13
3 51 73 47
3 106 122 80
3 136 122 106
3 142 117 122
3 154 149 142
3 186 174 197
3 216 186 197
3 259 255 224
3 366 406 422
3 440 461 406
3 461 440 493
3 488 541 493
3 616 622 598
3 41 22 29
3 92 102 112
3 121 131 141
3 210 173 171
3 89 106 80
3 136 159 154
3 159 129 164
3 66 61 29
3 311 329 274
3 616 598 590
3 38 31 44
3 31 38 24
3 84 92 112
3 62 92 84
3 121 112 131
3 10 14 11
3 129 159 136
3 129 120 164
3 289 259 274
3 366 329 311
3 493 440 488
3 532 541 488
3 51 38 44
3 44 62 58
3 58 62 84
3 21 11 14
3 171 146 141
3 171 141 135
3 129 89 76
3 120 129 76
3 255 229 216
3 609 3 616
3 64 44 58
3 51 44 64
3 121 141 146
3 146 171 173
3 238 239 225
3 340 287 296
3 331 409 388
3 76 89 64
3 216 224 255
3 64 58 53
3 53 76 64
3 71 58 84
3 53 58 71
3 23 24 38
3 110 84 121
3 110 121 146
3 147 146 173
3 212 238 225
3 28 23 38
3 224 216 197
3 274 259 249
3 17 33 29
3 11 18 13
3 147 110 146
3 212 210 238
3 436 388 409
3 436 409 473
3 473 475 436
3 184 197 164
3 406 366 336
3 183 210 212
3 212 204 183
3 340 331 287
3 13 23 28
3 274 249 252
3 457 488 440
3 532 507 565
3 590 571 565
3 147 173 172
3 204 212 215
3 215 212 225
3 262 266 246
3 388 436 424
3 98 76 56
3 164 120 98
3 170 164 98
3 184 164 170
3 197 184 196
3 252 249 232
3 257 274 252
3 274 257 268
3 336 366 322
3 406 336 377
3 406 377 440
3 76 53 56
3 110 147 71
3 125 71 147
3 125 147 172
3 155 172 177
3 177 157 155
3 221 239 246
3 424 436 475
3 196 184 170
3 240 252 232
3 268 286 311
3 311 286 322
3 457 440 401
3 475 507 457
3 118 155 157
3 125 155 118
3 204 194 183
3 208 215 221
3 475 531 523
3 81 98 56
3 181 196 170
3 191 196 181
3 178 192 191
3 192 160 185
3 424 457 401
3 457 424 475
3 523 507 475
3 2 565 551
3 118 157 113
3 194 204 207
3 220 208 221
3 523 531 0
3 123 98 81
3 123 148 170
3 160 192 178
3 336 322 286
3 0 551 523
3 185 152 183
3 160 152 185
3 113 157 152
3 220 218 208
3 287 284 266
3 376 388 424
3 81 56 69
3 81 95 123
3 148 168 181
3 148 181 170
3 185 199 219
3 237 222 223
3 237 223 251
3 286 268 251
3 60 69 56
3 126 152 160
3 113 152 126
3 113 91 82
3 217 219 199
3 208 223 211
3 284 287 331
3 376 333 321
3 376 424 401
3 95 81 69
3 148 123 95
3 148 126 168
3 237 240 222
3 377 336 333
3 401 440 377
3 377 333 401
3 69 60 82
3 82 60 125
3 160 178 168
3 160 168 126
3 91 113 126
3 217 199 211
3 211 222 217
3 245 251 223
3 242 265 245
3 266 284 265
3 331 321 284
3 333 376 401
3 126 148 95
3 336 286 299
3 299 333 336
3 91 126 95
3 222 211 223
3 242 266 265
3 290 284 321
3 271 251 245
3 69 82 91
3 69 91 95
3 271 245 265
3 290 265 284
3 290 321 333
3 271 299 286
3 286 251 271
3 549 558 524
3 500 544 540
3 321 388 376
3 409 416 467
3 467 473 409
3 380 397 389
3 389 400 380
3 663 652 660
3 172 155 125
3 207 208 211
3 218 220 242
3 17 13 28
3 241 263 292
3 170 98 123
3 633 622 637
3 345 351 355
3 355 343 345
3 511 482 486
3 96 166 57
3 337 323 353
3 422 375 366
3 313 298 308
3 308 316 313
3 297 260 269
3 266 262 287
3 317 269 279
3 179 227 248
3 267 349 300
3 571 532 565
3 481 508 547
3 547 509 481
3 33 66 29
3 327 291 357
3 324 356 334
3 334 309 324
3 498 504 525
3 482 452 486
3 473 531 475
3 279 244 241
3 290 299 271
3 271 265 290
3 631 644 647
3 491 500 465
3 479 435 430
3 583 587 594
3 268 237 251
3 422 406 461
3 553 542 577
3 402 391 383
3 112 121 84
3 529 511 519
3 519 533 529
3 437 518 463
3 304 256 319
3 246 266 242
3 16 20 32
3 10 19 14
3 153 161 127
3 127 151 153
3 619 610 629
3 98 120 76
3 508 506 553
3 49 28 38
3 257 252 240
3 223 208 218
3 333 299 290
3 500 496 453
3 598 571 590
3 468 427 497
3 428 392 463
3 225 239 221
3 221 215 225
3 311 274 268
3 32 57 108
3 659 664 671
3 379 402 387
3 293 282 276
3 97 161 134
3 540 578 581
3 501 430 429
3 575 576 601
3 512 492 514
3 514 526 512
3 11 21 18
3 187 188 209
3 659 642 649
3 581 600 555
3 18 24 23
3 23 13 18
3 191 181 168
3 168 178 191
3 510 467 478
3 283 338 332
3 260 297 272
3 517 531 473
3 187 169 188
3 38 51 47
3 595 586 621
3 641 640 630
3 158 171 135
3 636 620 628
3 49 38 47
3 410 418 414
3 542 506 494
3 494 516 542
3 254 253 305
3 17 28 33
3 378 404 393
3 269 317 297
3 539 535 520
3 289 274 329
3 24 26 31
3 43 50 67
3 244 269 234
3 30 27 15
3 80 122 73
3 73 51 80
3 372 387 383
3 383 361 372
3 609 616 590
3 263 241 206
3 448 454 469
3 22 30 15
3 314 294 302
3 214 182 236
3 640 651 634
3 346 378 393
3 519 511 486
3 486 503 519
3 137 139 198
3 210 177 172
3 665 667 657
3 177 210 183
3 67 50 65
3 65 83 67
3 603 625 614
3 442 439 454
3 454 448 442
3 617 608 627
3 311 322 366
3 207 204 215
3 215 208 207
3 635 625 643
3 365 352 292
3 653 669 656
3 117 116 100
3 156 140 149
3 314 302 326
3 326 344 314
3 613 606 623
3 623 632 613
3 175 139 75
3 443 508 481
3 474 458 548
3 108 166 203
3 648 7 636
3 408 397 458
3 29 22 17
3 190 254 261
3 61 41 29
3 568 558 585
3 635 624 614
3 320 357 291
3 386 384 443
3 396 468 434
3 592 593 584
3 70 43 67
3 67 90 70
3 224 196 191
3 191 192 224
3 501 509 545
3 66 143 150
3 174 159 164
3 164 197 174
3 415 487 426
3 458 428 536
3 655 647 644
3 312 368 365
3 365 292 312
3 85 195 190
3 190 103 85
3 210 171 250
3 397 385 458
3 83 104 107
3 629 621 639
3 645 644 627
3 60 71 125
3 222 240 232
3 232 217 222
3 381 395 405
3 405 390 381
3 264 281 247
3 247 233 264
3 645 657 644
3 161 213 201
3 352 279 292
3 26 42 46
3 46 39 26
3 335 385 350
3 183 194 199
3 199 185 183
3 87 109 193
3 70 92 62
3 301 253 272
3 592 584 569
3 90 67 83
3 83 107 90
3 438 418 420
3 360 362 347
3 347 328 360
3 232 249 219
3 219 217 232
3 643 649 635
3 229 255 264
3 258 248 227
3 71 84 110
3 154 159 174
3 0 531 562
3 270 228 261
3 479 528 497
3 497 435 479
3 446 426 513
3 513 483 446
3 229 209 200
3 200 216 229
3 631 621 600
3 600 617 631
3 588 606 613
3 371 382 416
3 416 409 371
3 492 485 449
3 449 459 492
3 469 484 472
3 472 455 469
3 351 337 353
3 353 355 351
3 99 105 101
3 101 94 99
3 45 62 44
3 551 565 507
3 507 523 551
3 384 285 346
3 256 228 295
3 295 319 256
3 63 66 33
3 33 28 63
3 388 321 331
3 9 10 11
3 11 13 9
3 136 106 89
3 89 129 136
3 119 93 137
3 137 145 119
3 238 210 250
3 250 262 238
3 557 513 487
3 228 139 175
3 199 194 207
3 207 211 199
3 564 542 522
3 522 546 564
3 467 510 517
3 517 473 467
3 172 173 210
3 340 371 409
3 409 331 340
3 270 303 293
3 293 276 270
3 156 149 154
3 154 165 156
3 18 21 26
3 26 24 18
3 445 438 420
3 420 432 445
3 370 390 379
3 389 408 398
3 398 391 389
3 85 103 40
3 40 36 85
3 288 313 330
3 330 306 288
3 618 630 640
3 640 634 618
3 642 648 636
3 636 628 642
3 224 197 196
3 573 591 563
3 563 541 573
3 304 364 341
3 341 273 304
3 80 51 64
3 64 89 80
3 220 221 246
3 246 242 220
3 421 451 399
3 399 339 421
3 353 323 334
3 334 359 353
3 250 296 287
3 287 262 250
3 93 59 42
3 573 541 532
3 532 571 573
3 254 305 335
3 335 261 254
3 268 257 240
3 240 237 268
3 157 177 183
3 183 152 157
3 295 228 280
3 280 310 295
3 82 125 118
3 118 113 82
3 140 116 130
3 609 590 565
3 432 403 439
3 439 442 432
3 68 49 47
3 47 73 68
3 140 130 149
3 375 307 289
3 289 329 375
3 65 55 72
3 72 77 65
3 474 548 576
3 576 543 474
3 226 167 163
3 163 179 226
3 53 71 60
3 60 56 53
3 117 100 73
3 73 122 117
3 650 647 655
3 655 661 650
3 658 668 674
3 674 664 658
3 259 224 219
3 219 249 259
3 137 198 202
3 202 158 137
3 190 261 175
3 175 103 190
3 496 502 480
3 480 453 496
3 447 431 413
3 413 425 447
3 425 413 404
3 404 414 425
3 455 441 448
3 448 469 455
3 636 7 632
3 632 623 636
3 419 462 450
3 450 384 419
3 423 403 338
3 338 399 423
3 534 559 560
3 560 530 534
3 543 575 557
3 557 487 543
3 667 655 644
3 644 657 667
3 532 488 457
3 457 507 532
3 578 544 537
3 537 563 578
3 592 577 595
3 595 610 592
3 134 143 66
3 66 63 134
3 224 192 185
3 185 219 224
3 43 45 44
3 44 31 43
3 393 419 384
3 384 346 393
3 83 65 78
3 78 104 83
3 378 332 338
3 338 403 378
3 239 238 262
3 262 246 239
3 343 355 370
3 223 218 242
3 242 245 223
3 343 370 379
3 379 360 343
3 247 283 231
3 231 201 247
3 633 638 627
3 627 615 633
3 556 572 583
3 583 574 556
3 555 502 496
3 496 540 555
3 669 675 667
3 667 665 669
3 42 54 137
3 137 93 42
3 672 667 675
3 675 676 672
3 154 142 122
3 122 136 154
3 574 599 618
3 618 607 574
3 676 4 8
3 565 1 609
