ply
format ascii 1.0
element vertex 710
property float x
property float y
property float z
element face 1416
property list uchar int vertex_indices
end_header
0.01 0.82 -4.09
-2.84 0.4 3.47
-2.83 0.57 2.87
-2.81 0.08 3.04
-2.8 0.76 3.23
-2.71 0.92 3.64
-2.67 1.06 2.92
-2.66 -0.07 3.01
-2.66 0.58 3.98
-2.63 1.21 3.28
-2.62 0.03 3.7
-2.55 1.05 2.73
-2.55 1.05 4.09
-2.51 0.23 4.06
-2.5 1.32 3.13
-2.5 1.42 3.9
-2.49 -0.17 2.93
-2.49 0.08 2.72
-2.42 -0.19 3.16
-2.42 1.56 3.64
-2.39 0.63 4.28
-2.39 1.14 2.67
-2.38 1.44 4.2
-2.36 1.38 3.11
-2.35 1.57 3.46
-2.33 -0.21 3.41
-2.33 -0.02 3.88
-2.32 -0.07 2.64
-2.32 0.43 -2.56
-2.31 0.78 -2.27
-2.3 0.25 -2.27
-2.3 1.07 4.38
-2.27 -0.22 2.79
-2.26 0.14 -2.27
-2.25 0.44 -1.65
-2.23 0.61 -3.02
-2.23 0.97 -1.67
-2.22 0.48 -1.46
-2.22 1.11 2.55
-2.22 1.74 3.98
-2.21 0.51 2.39
-2.21 1.28 2.87
-2.2 -0.22 2.97
-2.2 0.04 -2.94
-2.2 1.3 -2.27
-2.2 1.42 4.43
-2.18 0.23 -1.6
-2.16 0.06 2.43
-2.16 1.21 -2.71
-2.14 0.55 -3.54
-2.14 1.06 -1.23
-2.14 1.43 -1.78
-2.13 -0.19 3.14
-2.13 -0.02 -3.42
-2.13 1.46 3.14
-2.12 0.31 2.25
-2.12 0.59 -0.87
-2.12 1.79 3.46
-2.11 1.52 -2.27
-2.1 -0.23 3.59
-2.09 1.14 -3.11
-2.06 -0.2 2.63
-2.06 1.16 -0.75
-2.05 0.68 4.51
-2.04 0.36 4.4
-2.03 0.34 -0.85
-2.03 1.03 4.59
-2.03 1.65 -1.92
-2.01 -0.19 2.68
-2 0.42 -4.37
-2 0.74 -0.39
-2 1.54 -2.75
-1.99 -0.22 -4.23
-1.97 1.35 4.65
-1.96 -0.02 2.38
-1.96 1.05 -3.65
-1.96 1.86 3.12
-1.95 -0.18 3.16
-1.95 -0.13 -1.92
-1.94 1.35 -3.19
-1.94 1.77 -1.01
-1.93 -0.04 -1.55
-1.93 0.24 2.14
-1.92 -0.32 -2.54
-1.92 0.85 2.3
-1.91 0.58 2.12
-1.91 1.84 -1.69
-1.9 2.01 3.93
-1.89 1.9 -2.17
-1.88 1.73 2.66
-1.87 0.48 -0.26
-1.87 1.87 -2.68
-1.87 2.05 3.41
-1.86 -0.3 3.64
-1.85 -0.47 -3.27
-1.84 -0.36 3.45
-1.84 0.9 -4.41
-1.84 1.78 -0.49
-1.83 1.72 4.65
-1.82 1.24 0.06
-1.81 0.1 -0.86
-1.81 2.02 -1.37
-1.79 -0.36 3.14
-1.79 1 2.4
-1.79 2 -0.96
-1.78 -0.16 2.76
-1.78 -0.1 2.48
-1.77 -0.04 4.14
-1.75 2.16 -2.4
-1.71 1.51 -3.31
-1.7 -0.68 -4.12
-1.69 0.14 -0.43
-1.69 0.64 2.03
-1.69 1.75 2.45
-1.69 1.98 -2.88
-1.69 2.25 -2.15
-1.68 0.18 2.13
-1.68 2.22 -1.83
-1.67 0.94 0.31
-1.65 -0.47 3.34
-1.64 1.36 -3.73
-1.63 -0.5 2.44
-1.63 -0.39 3.66
-1.63 -0.15 2.16
-1.62 0.99 4.96
-1.62 1.64 0.41
-1.62 1.76 0.14
-1.62 2.16 -0.97
-1.62 2.22 3.13
-1.62 2.26 -2.59
-1.61 -0.55 2.59
-1.61 1.28 4.98
-1.61 2.02 -0.33
-1.59 0.91 1.93
-1.57 -0.51 2.23
-1.57 1.83 -3.17
-1.57 2.31 -1.52
-1.57 2.37 -2.37
-1.56 -0.5 3.02
-1.56 2.35 -1.71
-1.54 0.18 -0.1
-1.54 2.4 -2.11
-1.52 0.23 1.65
-1.51 2.22 4.11
-1.51 2.31 -2.71
-1.5 -0.68 2.75
-1.5 1.27 0.71
-1.49 1.22 -4.47
-1.48 -0.81 2.52
-1.48 -0.8 2.43
-1.48 -0.32 -1.73
-1.47 -0.04 -0.55
-1.47 1.11 1.23
-1.47 2.32 3.74
-1.46 -0.79 2.34
-1.46 1.61 -3.39
-1.45 2.25 2.68
-1.44 -0.51 3.49
-1.44 -0.19 -1.18
-1.43 -0.84 2.59
-1.42 0.31 1.34
-1.42 0.53 0.54
-1.41 -0.56 -2.26
-1.41 -0.07 1.83
-1.41 0.54 5.04
-1.4 1.7 1.58
-1.4 1.92 -3.19
-1.39 -0.41 1.95
-1.39 1.14 5.15
-1.39 1.97 0.18
-1.37 2.06 4.64
-1.37 2.11 2.06
-1.36 -0.94 2.44
-1.36 -0.74 -2.77
-1.35 -0.38 3.86
-1.35 0.45 1
-1.35 1.49 -3.8
-1.34 -0.9 2.64
-1.32 -0.19 -1.01
-1.32 2.34 2.27
-1.31 -0.89 2.28
-1.31 -0.84 -3.14
-1.31 1.75 0.85
-1.29 -0.22 4.22
-1.29 2.27 -2.92
-1.27 2.4 3.63
-1.26 -0.8 2.87
-1.26 -0.78 2.12
-1.26 2.03 -3.17
-1.25 0.08 1.18
-1.24 -0.05 1.49
-1.24 0.06 4.74
-1.22 -1.01 -4
-1.22 -0.63 3.19
-1.22 1.45 5.21
-1.2 0.37 5.33
-1.2 2.19 -0.18
-1.19 2.27 -0.63
-1.18 2.01 0.53
-1.18 2.38 -1.11
-1.17 2.47 -1.54
-1.16 -0.96 2.59
-1.16 -0.63 1.92
-1.16 -0.26 -1.22
-1.16 0.18 0.83
-1.16 2.52 -2.43
-1.16 2.57 -2.05
-1.15 -0.97 2.35
-1.15 2.27 1.73
-1.15 2.32 4.18
-1.13 0.2 0.63
-1.11 -0.35 -1.85
-1.11 1.82 -3.31
-1.11 2.1 0.9
-1.11 2.43 2.87
-1.09 1.61 -3.6
-1.08 0.13 5.8
-1.08 0.19 0.31
-1.08 1.63 -3.38
-1.07 -0.89 2.17
-1.07 0.89 5.45
-1.05 -0.13 5.11
-1.05 2.46 -2.69
-1.04 0 -0.08
-1.03 1.38 -4.51
-1.02 0.04 5.82
-1.02 2.12 0.22
-1 -0.56 -2.22
-1 -0.37 1.71
-0.99 2.15 -0.06
-0.99 2.49 2.4
-0.98 2.56 -2.27
-0.97 -0.37 4.08
-0.97 -0.15 1.14
-0.97 1.52 -3.86
-0.97 2.26 -0.49
-0.97 2.29 4.21
-0.96 2.03 4.72
-0.96 2.4 3.64
-0.95 -0.84 2.88
-0.95 -0.53 5.61
-0.94 -0.31 -0.75
-0.94 1.09 5.53
-0.94 2.36 -2.91
-0.91 -0.28 1.41
-0.9 2.59 -2.04
-0.88 -0.53 3.7
-0.88 0.04 0.45
-0.88 2.25 0.56
-0.87 -0.36 -1.65
-0.87 0.03 0.22
-0.87 2.49 1.85
-0.86 -0.95 2.62
-0.86 2.43 -1.34
-0.86 2.47 -1.51
-0.85 0.23 5.86
-0.85 0.61 5.93
-0.85 2.2 -3.07
-0.83 -0.94 2.28
-0.81 1.78 5.09
-0.8 2.18 -0.1
-0.78 1.59 -3.35
-0.77 -0.69 3.18
-0.76 2.36 -0.71
-0.76 2.4 1.07
-0.76 2.43 3.21
-0.75 1.53 5.31
-0.75 2.07 -3.15
-0.74 -0.82 2.88
-0.74 -0.45 1.74
-0.74 -0.25 4.49
-0.74 -0.06 0.68
-0.74 2.18 0.28
-0.74 2.39 -0.99
-0.73 -0.85 -3.1
-0.73 -0.37 -2.09
-0.72 1.37 -4.54
-0.72 2.46 -2.56
-0.71 -0.33 -0.41
-0.7 2.26 -0.45
-0.69 -0.34 1.19
-0.68 -0.75 2.06
-0.67 -0.9 2.7
-0.66 2.41 -1.51
-0.65 1.12 5.6
-0.63 1.41 -3.88
-0.63 2.51 2.55
-0.62 -0.41 -1.94
-0.61 -0.23 -0.02
-0.61 2.48 1.94
-0.6 -0.49 4.9
-0.6 1.95 -3.1
-0.59 -0.16 5.66
-0.58 2.19 -0.15
-0.57 -1.01 -3.89
-0.57 -0.87 2.51
-0.57 -0.16 0.22
-0.57 2.14 -2.96
-0.57 2.35 -1.25
-0.57 2.4 -2.57
-0.57 2.43 -2.06
-0.56 2.24 -2.85
-0.55 -0.75 5.35
-0.55 2.16 0.23
-0.54 -0.38 4.14
-0.54 2.33 1.13
-0.539998 0.709911 5.95947
-0.53 2.31 -0.66
-0.51 -0.64 5.46
-0.51 1.41 -3.27
-0.51 2.17 4.3
-0.49 -0.76 2.29
-0.48 0.29 5.74
-0.47 -0.5 1.89
-0.47 2.2 0.51
-0.45 2.32 3.72
-0.43 -0.36 1.01
-0.42 -0.42 -1.27
-0.41 -0.71 2.99
-0.4 -0.45 1.36
-0.4 -0.44 -0.88
-0.39 1.91 4.91
-0.39 2.39 3.32
-0.38 -0.43 -1.8
-0.38 -0.2 0.74
-0.38 0.74 5.91
-0.38 2.16 4.33
-0.38 2.22 -1.74
-0.38 2.29 -1.34
-0.37 -0.41 -0.46
-0.37 -0.28 -0.07
-0.37 -0.2 0.55
-0.37 2.09 -2.79
-0.37 2.22 -2.5
-0.36 -0.21 0.13
-0.36 1.22 -4.48
-0.35 1.81 -3
-0.35 2.18 -0.19
-0.35 2.23 -2.12
-0.35 2.34 -1.08
-0.34 -0.54 -2.79
-0.33 1.48 -3.1
-0.32 -0.5 2.05
-0.32 1.05 5.63
-0.31 -0.29 -2.42
-0.3 1.15 -3.85
-0.29 -0.61 5.33
-0.29 2.45 2.76
-0.28 2.2 4.3
-0.27 -0.41 -2.31
-0.26 2.33 3.78
-0.26 2.5 2.07
-0.25 -0.41 4.98
-0.25 -0.2 4.58
-0.24 -0.68 -3.39
-0.24 -0.46 5.47
-0.24 -0.1 5.62
-0.24 2.37 1.23
-0.23 -0.46 3.9
-0.23 0.61 5.89
-0.21 2.42 -2.45
-0.2 -0.32 -0.23
-0.2 1.08 -3.29
-0.19 -0.63 3.38
-0.19 -0.52 2.25
-0.19 1.93 -3.16
-0.19 2.27 -2.88
-0.18 -0.44 -2.18
-0.18 -0.23 -0.05
-0.18 2.1 0.27
-0.18 2.24 -0.52
-0.18 2.42 -2.02
-0.18 2.42 3.33
-0.17 1.25 5.47
-0.17 2.08 4.67
-0.16 -0.77 -3.81
-0.16 -0.62 2.62
-0.16 2.31 -1.5
-0.15 -0.15 0.05
-0.13 -0.64 3.07
-0.13 1.63 -3.27
-0.13 2.47 2.79
-0.11 -0.2 0.56
-0.11 2.53 2.04
-0.1 2.01 -3.23
-0.09 -0.21 0.81
-0.09 0.88 -3.8
-0.09 2.09 0.51
-0.07 -0.37 -2.4
-0.05 -0.12 0.2
-0.05 2.15 -0.21
-0.04 -0.43 -1.79
-0.03 -0.58 -3.75
-0.03 0.74 5.52
-0.03 2.34 1.24
-0.03 2.51 -2.59
-0.02 -0.35 5.48
-0.02 -0.04 -2.68
-0.01 -0.45 2.12
-0.01 -0.32 -3.26
-0.01 -0.2 -0.15
-0.01 2.39 -2.9
-0.01 2.56 -2.37
0 -0.19 5.2
0 1.24 -3.39
0.01 0 0.03
0.01 0.15 5.72
0.01 1.54 5.29
0.01 1.69 -3.39
0.02 2.54 -1.88
0.03 -0.05 4.78
0.03 0.22 5.45
0.05 -0.62 2.65
0.05 -0.37 -0.47
0.05 2.17 4.63
0.07 2.33 4.32
0.08 -0.43 1.59
0.08 0.95 5.43
0.08 2.15 -3.23
0.09 -0.06 0.16
0.09 2.12 0.27
0.1 -0.42 -2.22
0.1 2.27 -0.66
0.1 2.43 3.94
0.11 -0.51 2.3
0.11 -0.42 -0.9
0.11 1.13 -3.86
0.11 1.34 5.34
0.11 2.36 -1.2
0.12 1.78 5.09
0.12 2.02 -3.33
0.12 2.41 1.21
0.13 -0.33 1.17
0.13 2.52 2.82
0.15 1.08 -4.02
0.15 1.39 -3.51
0.16 -0.14 0.28
0.16 -0.08 0.12
0.16 2.57 2.04
0.17 -0.14 -0.04
0.18 0.31 5.12
0.19 -0.41 -1.24
0.19 2.64 -2.28
0.2 -0.63 3.16
0.2 -0.35 -2.35
0.22 2.43 3.96
0.22 2.49 3.44
0.24 -0.17 0.49
0.24 1.82 -3.44
0.26 -0.74 -3.36
0.26 -0.23 -0.1
0.26 2.61 -2.56
0.27 -0.89 -3.83
0.27 -0.55 3.55
0.27 -0.52 -2.85
0.27 -0.45 2.15
0.28 2.36 4.3
0.29 -0.26 -2.48
0.3 -0.38 -1.72
0.3 -0.14 0.17
0.32 -0.69 2.84
0.33 2.18 0
0.33 2.2 0.28
0.34 0.83 5.26
0.34 1.51 -3.6
0.34 2.37 1.04
0.35 -0.37 3.95
0.35 -0.34 -0.36
0.36 1.34 -3.91
0.36 2.2 4.6
0.37 2.56 -2.74
0.39 -0.65 2.54
0.39 -0.36 -2.16
0.39 1.56 5.19
0.4 2.31 -0.85
0.4 2.52 1.91
0.41 1.15 -4.42
0.42 -0.19 4.3
0.42 1.19 5.27
0.44 -0.21 0.81
0.45 -0.7 3.05
0.45 -0.14 0.44
0.45 2.46 -2.92
0.45 2.47 2.73
0.47 -0.36 -0.62
0.48 -0.33 -1.18
0.49 2.56 -1.65
0.5 -0.26 -2.29
0.51 -0.56 -2.66
0.51 2.18 0.15
0.52 -0.11 0.23
0.53 2.62 -2.15
0.54 -0.95 -3.48
0.54 -0.82 -3.14
0.55 2.28 -3.16
0.55 2.47 3.35
0.56 -1.09 -3.87
0.56 -0.35 1.3
0.56 -0.29 -1.51
0.56 -0.27 -0.25
0.58 -0.16 0.03
0.6 2.22 0.71
0.61 2 -3.39
0.62 2.36 3.9
0.63 -0.76 2.87
0.63 2.56 -2.46
0.65 -0.36 2.06
0.66 -0.26 -1.68
0.67 1.76 -3.54
0.68 -0.75 2.7
0.69 -0.74 3.06
0.69 -0.23 -0.38
0.69 1.64 -3.64
0.69 2.39 -1.04
0.7 -0.52 2.28
0.71 -0.08 0.83
0.71 1.71 5.01
0.72 -0.48 3.5
0.72 2.26 4.19
0.72 2.37 1.75
0.73 -0.04 0.61
0.75 -0.25 1.35
0.75 0.04 0.27
0.76 2.11 -3.24
0.76 2.4 2.08
0.77 -0.25 3.97
0.78 -0.07 -0.08
0.78 2.29 -0.67
0.79 1.88 -3.42
0.79 2.11 -0.16
0.8 2.48 -1.98
0.81 -0.19 -0.58
0.81 1.46 -3.91
0.82 2.32 2.63
0.83 -0.16 -1.09
0.84 -0.69 2.56
0.85 2.07 0.5
0.89 1.23 -4.53
0.9 -0.62 3.27
0.92 -0.78 -2.89
0.92 -0.14 -1.29
0.92 2.27 -2.88
0.93 -0.25 2.1
0.94 -0.2 -1.94
0.95 -0.79 2.91
0.95 2.35 -1.4
0.96 -1.1 -3.6
0.96 -0.14 1.68
0.96 0.25 0.35
0.96 2.35 3.25
0.97 -0.42 -2.29
0.98 -0.75 3.01
0.98 0.07 4.35
0.98 0.2 0.68
0.98 0.36 4.73
0.98 1.89 -3.29
1 -0.17 -1.63
1 0.06 1.08
1.02 2.3 -2.11
1.03 -0.75 2.85
1.03 -0.03 -0.78
1.04 0.67 4.94
1.05 1.6 -3.61
1.05 1.76 -3.4
1.05 1.9 4.67
1.05 2.01 0.1
1.06 0 1.39
1.06 2.21 -0.81
1.08 2.18 3.78
1.09 0.14 -0.26
1.1 2.05 -0.34
1.1098 -0.229449 3.77974
1.11 -0.32 2.36
1.11 1.81 0.73
1.12 0 -1.02
1.12 1.88 1.3
1.12 2.2 -1.63
1.14 -0.44 3.34
1.14 1.96 1.82
1.14 2.01 2.07
1.15 -0.3 3.49
1.15 1.04 5
1.15 2 2.54
1.16 -0.6 3.15
1.17 -0.7 3.01
1.17 -0.53 2.64
1.17 -0.05 2.2
1.19 -0.64 2.83
1.19 2.05 4.13
1.2 1.92 -2.93
1.23 0.09 1.9
1.23 2.02 3.24
1.24 1.4 4.92
1.25 0.19 1.42
1.27 -0.5 3.13
1.27 0.14 -0.63
1.27 1.51 -3.56
1.27 2.08 -1.2
1.28 -0.04 -1.43
1.28 1.86 -0.16
1.29 -0.55 2.91
1.29 -0.32 3.23
1.29 -0.22 2.5
1.3 -0.03 4.09
1.3 0.07 2.32
1.3 0.52 0.92
1.3 1.89 -0.52
1.31 1.92 3.65
1.32 0.46 0.05
1.32 2 -0.88
1.34 -0.1 3.36
1.35 1.49 2.88
1.36 -0.33 2.83
1.36 0.79 0.68
1.36 1.22 0.87
1.37 -1.03 -3.52
1.37 -0.86 -3.17
1.37 -0.26 3.08
1.37 -0.06 -1.69
1.37 0.19 3.38
1.37 1.67 4.68
1.38 0.18 2.92
1.39 0.18 2.65
1.39 1.65 -0.04
1.4072 1.58544 3.17893
1.41 -0.1 -1.91
1.41 0.35 2.96
1.41 0.43 4.77
1.41 1.1 2.54
1.41844 0.414119 2.73151
1.42 -0.46 -2.52
1.42 -0.04 2.89
1.42 0.73 1.1
1.42 1.22 1.29
1.42 1.66 3.56
1.43 0.37 -0.41
1.44 0.02 3.64
1.44 0.4 2.03
1.44 0.53 1.51
1.44 1.32 -3.79
1.44 1.74 -0.62
1.45 1.17 2.12
1.45 1.19 1.63
1.46 -0.02 3.86
1.46 1.54 -2.97
1.47 0.23 -0.95
1.47 1.73 3.8
1.48 1.82 4.06
1.49 0.81 1.55
1.49 0.93 2.1
1.49 1.75 -0.98
1.5 0.19 4.52
1.5 0.64 2.08
1.5 1.06 -4.53
1.52 0.79 4.87
1.52 1.24 0.17
1.55 0.75 -0.06
1.57 0.14 -1.4
1.58 1.64 3.15
1.6 1.52 -0.8
1.60877 0.553524 2.61076
1.61 1.56 -1.63
1.62 0.5 4.74
1.62 1.3 -2.98
1.63 1.43 -2.4
1.64 0.64 -0.53
1.64 1.09 4.79
1.64 1.2 -3.33
1.67 1.17 -0.48
1.7 1.08 -3.64
1.7 1.32 2.92
1.71 0.58 -0.94
1.71 1.71 3.73
1.72 0.16 -1.76
1.73 -0.29 -2.7
1.73 1.35 4.58
1.74 0.16 3.66
1.75 0.85 -4.43
1.75 1.69 3.34
1.76 0.18 4.18
1.76 0.28 3.32
1.77 1.05 -1.01
1.77 1.67 4.02
1.82 0.53 4.59
1.83 0.43 -1.59
1.83 0.74 4.66
1.85 0.25 -2.22
1.86 0.93 -1.55
1.87 0.65 2.84
1.89 -0.06 -2.9
1.92 0.6 -2.88
1.92 0.7 -2.45
1.93 0.93 2.92
1.94 0.24 3.85
1.97 -0.51 -3.72
1.97 0.44 -3.26
1.99857 0.413047 2.99289
2.01 0.85 4.36
2.01 1.53 3.68
2.04 0.58 4.21
2.06 1.48 3.4
2.08 0.08 -4.09
2.1 0.4 3.62
2.2 0.98 3.86
2.21 0.58 3.73
2.23 0.74 3.8
2.24 0.62 3.2
2.25 1.14 3.37
2.26 1.12 3.51
2.31 0.9 3.37
3 0 335 386
3 335 345 386
3 0 392 335
3 174 246 232
3 246 304 232
3 304 246 358
3 174 122 157
3 174 107 122
3 174 183 107
3 174 232 183
3 270 183 232
3 183 270 191
3 191 107 183
3 191 64 107
3 64 191 164
3 164 63 64
3 63 164 124
3 440 411 403
3 410 440 403
3 353 410 403
3 352 353 403
3 73 66 124
3 73 124 131
3 124 168 131
3 131 168 194
3 98 131 194
3 636 610 619
3 610 636 580
3 98 73 131
3 98 194 170
3 194 259 170
3 259 194 266
3 259 237 170
3 237 259 321
3 407 259 266
3 259 407 321
3 407 429 321
3 429 407 473
3 473 516 429
3 516 473 592
3 592 473 581
3 581 666 592
3 666 581 654
3 561 654 581
3 654 561 627
3 554 627 561
3 554 651 627
3 554 552 651
3 603 651 552
3 603 552 571
3 662 685 654
3 654 627 662
3 662 627 651
3 651 683 662
3 683 651 679
3 603 679 651
3 603 643 679
3 603 571 643
3 265 286 214
3 286 230 214
3 549 582 533
3 549 533 483
3 549 483 495
3 483 446 495
3 446 483 433
3 326 321 374
3 348 326 374
3 415 348 374
3 156 179 113
3 113 89 156
3 128 156 89
3 128 214 156
3 185 214 128
3 214 185 265
3 238 265 185
3 209 238 185
3 209 236 238
3 209 237 236
3 517 580 571
3 290 302 240
3 302 290 352
3 352 346 302
3 346 352 403
3 396 346 403
3 406 396 403
3 411 406 403
3 411 359 406
3 359 411 393
3 359 393 343
3 325 359 343
3 440 393 411
3 372 322 315
3 350 372 315
3 195 256 220
3 164 195 220
3 220 168 164
3 220 256 242
3 242 168 220
3 242 194 168
3 194 242 266
3 525 477 466
3 453 517 466
3 466 358 453
3 358 466 353
3 619 626 680
3 621 626 619
3 626 621 622
3 610 621 619
3 221 240 216
3 216 195 221
3 221 290 240
3 256 284 242
3 284 256 306
3 242 284 266
3 284 343 266
3 284 306 325
3 284 325 343
3 343 373 266
3 373 343 417
3 393 417 343
3 393 463 417
3 373 407 266
3 407 373 427
3 417 427 373
3 463 427 417
3 407 427 473
3 232 304 270
3 363 453 358
3 473 427 478
3 427 463 478
3 463 393 440
3 478 581 473
3 463 581 478
3 463 561 581
3 554 561 463
3 554 463 440
3 554 440 410
3 554 410 477
3 554 477 552
3 410 353 477
3 353 466 477
3 525 552 477
3 525 571 552
3 66 63 124
3 168 124 164
3 525 517 571
3 525 466 517
3 643 571 580
3 676 643 636
3 676 693 643
3 676 702 693
3 676 680 702
3 348 415 350
3 423 350 415
3 446 350 423
3 350 446 372
3 372 446 433
3 372 433 381
3 347 372 381
3 372 347 322
3 230 156 214
3 353 352 290
3 270 353 290
3 156 230 179
3 363 358 246
3 363 246 262
3 193 262 246
3 193 246 157
3 174 157 246
3 315 326 350
3 348 350 326
3 310 326 315
3 310 321 326
3 310 237 321
3 310 236 237
3 676 619 680
3 676 636 619
3 304 358 353
3 270 304 353
3 270 290 221
3 221 191 270
3 221 195 191
3 195 164 191
3 216 256 195
3 636 643 580
3 679 643 693
3 622 629 626
3 696 626 629
3 626 696 680
3 696 702 680
3 702 696 706
3 629 622 660
3 660 696 629
3 706 709 704
3 702 706 704
3 693 702 704
3 699 693 704
3 693 699 679
3 699 683 679
3 697 683 699
3 685 662 683
3 654 685 666
3 685 675 666
3 675 685 697
3 683 697 685
3 675 592 666
3 592 675 620
3 592 620 564
3 564 516 592
3 705 699 704
3 699 705 697
3 705 703 697
3 698 697 703
3 697 698 675
3 703 708 698
3 708 703 705
3 705 709 708
3 709 705 704
3 675 698 682
3 647 675 682
3 675 647 620
3 647 588 620
3 588 564 620
3 588 518 564
3 708 700 698
3 611 624 658
3 678 658 624
3 624 634 678
3 634 672 678
3 698 678 672
3 678 698 700
3 698 672 682
3 672 647 682
3 646 647 672
3 646 607 588
3 646 588 647
3 588 607 568
3 588 568 503
3 518 588 503
3 469 564 518
3 564 469 516
3 469 429 516
3 429 469 414
3 414 374 429
3 321 429 374
3 414 415 374
3 415 414 469
3 415 469 456
3 469 518 456
3 518 503 456
3 445 456 503
3 423 456 445
3 456 423 415
3 646 634 607
3 646 672 634
3 591 634 624
3 591 624 611
3 591 607 634
3 549 607 591
3 549 568 607
3 549 503 568
3 549 495 503
3 446 503 495
3 446 445 503
3 445 446 423
3 628 582 611
3 582 591 611
3 549 591 582
3 159 172 177
3 201 177 172
3 201 172 207
3 207 172 180
3 363 379 443
3 412 443 379
3 376 412 379
3 424 412 376
3 376 398 424
3 398 455 424
3 398 416 455
3 416 398 342
3 313 416 342
3 319 313 269
3 228 167 163
3 228 163 190
3 142 190 163
3 142 112 160
3 160 112 133
3 416 506 455
3 514 455 506
3 471 455 514
3 471 424 455
3 471 412 424
3 471 460 412
3 443 412 460
3 480 443 460
3 480 517 443
3 517 453 443
3 363 443 453
3 517 510 538
3 480 510 517
3 480 504 510
3 480 460 504
3 471 504 460
3 471 509 504
3 471 535 509
3 471 514 535
3 572 535 514
3 542 572 514
3 542 514 506
3 585 559 535
3 535 572 585
3 559 585 587
3 535 559 544
3 509 535 544
3 504 509 544
3 544 551 504
3 551 510 504
3 551 538 510
3 538 551 583
3 310 315 238
3 310 238 236
3 265 238 315
3 265 315 322
3 322 347 265
3 286 265 347
3 584 594 583
3 584 600 594
3 584 587 600
3 585 600 587
3 506 416 497
3 521 506 497
3 521 547 506
3 542 506 547
3 542 547 586
3 542 586 572
3 590 586 547
3 590 604 586
3 602 586 604
3 602 572 586
3 602 585 572
3 602 612 585
3 600 585 612
3 617 600 612
3 617 594 600
3 617 601 594
3 617 610 601
3 617 612 631
3 602 631 612
3 602 604 622
3 602 622 631
3 621 631 622
3 621 610 631
3 617 631 610
3 209 170 237
3 209 143 170
3 209 153 143
3 209 185 153
3 185 128 153
3 89 76 128
3 76 92 128
3 153 128 92
3 143 153 92
3 92 87 143
3 170 143 87
3 87 98 170
3 113 103 89
3 179 171 113
3 165 113 171
3 165 133 113
3 113 133 103
3 112 103 133
3 89 103 54
3 76 89 54
3 57 76 54
3 54 24 57
3 92 76 57
3 92 57 87
3 57 39 87
3 39 98 87
3 98 39 22
3 22 45 98
3 45 73 98
3 31 73 45
3 45 22 31
3 12 31 22
3 22 15 12
3 15 22 39
3 19 15 39
3 39 24 19
3 24 39 57
3 73 31 66
3 31 20 66
3 20 31 12
3 8 20 12
3 5 8 12
3 5 12 15
3 9 5 15
3 19 9 15
3 19 14 9
3 19 24 14
3 23 14 24
3 54 23 24
3 41 23 54
3 103 41 54
3 84 103 112
3 103 84 38
3 103 38 41
3 38 21 41
3 21 23 41
3 23 21 11
3 14 23 11
3 11 6 14
3 6 9 14
3 9 6 4
3 9 4 5
3 4 1 5
3 5 1 8
3 1 10 8
3 13 8 10
3 13 20 8
3 20 63 66
3 2 1 4
3 2 4 6
3 6 11 2
3 1 2 3
3 10 1 3
3 7 10 3
3 18 10 7
3 18 7 16
3 16 32 18
3 32 42 18
3 68 42 32
3 61 106 68
3 52 18 42
3 18 52 25
3 10 18 25
3 68 32 61
3 105 42 68
3 105 52 42
3 105 77 52
3 59 52 77
3 59 25 52
3 59 26 25
3 26 10 25
3 63 20 64
3 20 13 64
3 64 13 26
3 10 26 13
3 64 26 107
3 59 107 26
3 59 93 107
3 107 93 122
3 95 122 93
3 59 95 93
3 59 77 95
3 122 95 157
3 157 95 119
3 102 119 95
3 95 77 102
3 193 157 119
3 193 119 138
3 102 138 119
3 105 138 102
3 105 102 77
3 105 68 106
3 105 106 121
3 105 121 130
3 105 130 145
3 105 145 138
3 145 186 138
3 193 138 186
3 193 186 239
3 193 239 262
3 268 262 239
3 268 318 262
3 123 121 106
3 123 106 116
3 142 116 112
3 142 163 116
3 123 116 163
3 123 163 167
3 123 167 134
3 123 134 121
3 134 167 187
3 154 134 187
3 134 154 149
3 121 134 149
3 149 130 121
3 130 149 148
3 148 145 130
3 145 148 159
3 145 159 177
3 186 145 177
3 201 186 177
3 201 239 186
3 201 252 239
3 268 239 252
3 268 252 282
3 268 282 318
3 318 282 295
3 318 295 376
3 311 376 295
3 311 364 376
3 318 376 379
3 363 318 379
3 363 262 318
3 398 376 364
3 364 342 398
3 311 342 364
3 311 281 342
3 313 342 281
3 269 313 281
3 202 269 281
3 269 202 228
3 167 228 202
3 187 167 202
3 219 187 202
3 219 202 281
3 219 281 258
3 311 258 281
3 311 295 258
3 258 295 252
3 295 282 252
3 252 207 258
3 201 207 252
3 219 258 207
3 219 207 187
3 180 187 207
3 187 180 154
3 172 154 180
3 149 154 172
3 148 149 172
3 172 159 148
3 37 46 65
3 56 37 65
3 70 56 65
3 70 65 90
3 100 90 65
3 111 140 90
3 90 100 111
3 151 140 111
3 151 111 100
3 151 100 178
3 158 178 100
3 178 158 203
3 151 178 241
3 151 241 223
3 151 223 140
3 34 46 37
3 34 33 46
3 46 33 78
3 78 81 46
3 150 81 78
3 150 78 162
3 78 83 162
3 78 33 83
3 83 33 43
3 150 162 227
3 150 227 211
3 211 227 275
3 340 275 227
3 340 344 275
3 340 397 344
3 340 399 397
3 340 354 399
3 340 274 354
3 340 227 274
3 287 349 367
3 287 367 323
3 287 323 249
3 317 249 323
3 317 203 249
3 317 241 203
3 317 320 241
3 241 320 329
3 329 278 241
3 288 223 278
3 223 241 278
3 203 241 178
3 173 274 227
3 173 227 162
3 173 162 83
3 173 83 94
3 43 94 83
3 53 94 43
3 454 397 399
3 454 457 397
3 454 399 449
3 454 493 488
3 454 449 493
3 454 488 457
3 457 488 487
3 550 487 488
3 550 543 487
3 550 625 543
3 550 630 625
3 550 539 630
3 550 488 539
3 488 493 539
3 625 674 686
3 173 181 274
3 173 94 181
3 181 94 192
3 94 110 192
3 110 94 72
3 94 53 72
3 49 69 72
3 49 72 53
3 49 96 69
3 49 75 96
3 49 53 43
3 49 43 35
3 28 35 43
3 584 583 551
3 584 551 544
3 584 544 559
3 584 559 587
3 577 580 517
3 577 517 538
3 577 538 583
3 577 610 580
3 577 601 610
3 577 594 601
3 577 583 594
3 674 625 630
3 616 674 630
3 616 694 674
3 616 615 694
3 616 630 539
3 616 539 546
3 616 546 615
3 539 493 546
3 492 546 493
3 492 496 546
3 492 452 496
3 492 449 452
3 492 493 449
3 449 392 452
3 392 449 399
3 392 399 354
3 354 375 392
3 375 354 294
3 354 274 294
3 274 192 294
3 192 274 181
3 622 637 660
3 637 622 604
3 590 637 604
3 521 566 547
3 590 547 566
3 590 566 593
3 590 593 637
3 638 637 593
3 652 637 638
3 637 652 660
3 652 649 660
3 649 628 660
3 641 628 649
3 628 641 582
3 641 579 582
3 579 641 578
3 641 642 578
3 641 649 642
3 649 648 642
3 648 649 652
3 652 638 648
3 432 497 416
3 432 416 319
3 313 319 416
3 432 319 316
3 280 316 319
3 280 319 269
3 280 269 244
3 244 269 228
3 228 190 244
3 648 633 642
3 642 633 578
3 633 575 578
3 633 614 575
3 614 573 575
3 575 573 501
3 501 519 575
3 578 575 519
3 524 578 519
3 524 579 578
3 524 582 579
3 524 533 582
3 524 483 533
3 524 475 483
3 524 519 475
3 475 519 465
3 465 519 501
3 536 501 573
3 573 565 536
3 565 573 599
3 573 623 599
3 623 573 655
3 573 614 655
3 433 483 438
3 483 475 438
3 475 431 438
3 431 475 465
3 383 381 433
3 383 433 438
3 383 438 431
3 431 394 383
3 394 357 383
3 357 351 383
3 347 383 351
3 383 347 381
3 286 347 351
3 286 351 289
3 351 357 289
3 357 305 289
3 305 264 289
3 264 251 289
3 251 286 289
3 230 286 251
3 179 230 251
3 179 251 208
3 251 264 208
3 213 208 264
3 165 208 213
3 165 171 208
3 171 179 208
3 633 648 632
3 614 633 632
3 632 613 614
3 599 570 565
3 529 565 570
3 565 529 536
3 529 489 536
3 501 536 489
3 461 489 529
3 461 462 489
3 462 501 489
3 462 465 501
3 420 465 462
3 461 420 462
3 420 431 465
3 431 420 394
3 420 387 394
3 387 357 394
3 387 314 357
3 357 314 305
3 264 305 314
3 248 264 314
3 248 213 264
3 198 213 248
3 226 198 248
3 248 272 226
3 272 248 314
3 314 303 272
3 303 314 369
3 314 387 369
3 387 420 369
3 420 390 369
3 390 420 461
3 369 390 337
3 303 369 337
3 293 303 337
3 260 303 293
3 303 260 272
3 260 229 272
3 229 226 272
3 226 229 196
3 169 226 196
3 132 169 196
3 198 226 169
3 198 169 126
3 132 126 169
3 165 152 133
3 165 182 152
3 165 213 182
3 198 182 213
3 198 126 182
3 182 126 125
3 146 152 182
3 125 146 182
3 142 160 190
3 175 160 133
3 175 133 152
3 175 204 160
3 189 160 204
3 204 233 189
3 233 190 189
3 190 233 244
3 280 244 233
3 280 233 271
3 233 204 271
3 280 271 316
3 316 271 324
3 331 324 271
3 296 331 271
3 247 296 271
3 247 250 296
3 247 217 250
3 247 210 217
3 247 204 210
3 247 271 204
3 175 210 204
3 175 161 210
3 210 161 217
3 175 146 161
3 175 152 146
3 331 296 334
3 382 331 334
3 382 334 389
3 378 389 334
3 382 324 331
3 382 385 324
3 316 324 385
3 432 316 385
3 432 385 479
3 432 479 497
3 382 479 385
3 382 447 479
3 382 436 447
3 382 389 436
3 405 437 419
3 405 419 389
3 419 436 389
3 436 419 437
3 459 436 437
3 459 481 436
3 459 490 481
3 447 436 481
3 481 479 447
3 405 389 378
3 520 490 522
3 520 481 490
3 520 479 481
3 520 515 479
3 497 479 515
3 521 497 515
3 521 557 566
3 521 515 557
3 520 557 515
3 520 553 557
3 520 548 553
3 520 522 548
3 548 613 553
3 613 605 553
3 605 557 553
3 557 605 593
3 566 557 593
3 605 638 593
3 613 655 614
3 655 613 656
3 608 656 613
3 608 613 548
3 613 632 605
3 638 605 632
3 648 638 632
3 160 189 190
3 125 99 146
3 99 125 126
3 126 97 99
3 62 99 97
3 70 99 62
3 99 70 90
3 118 99 90
3 118 146 99
3 118 161 146
3 118 90 161
3 140 161 90
3 161 140 217
3 140 223 217
3 223 250 217
3 288 250 223
3 288 296 250
3 288 334 296
3 288 330 334
3 368 334 330
3 368 378 334
3 368 400 378
3 405 378 400
3 405 400 439
3 405 439 437
3 459 437 439
3 450 439 400
3 459 439 450
3 459 450 500
3 459 500 490
3 499 500 450
3 80 62 97
3 126 132 97
3 132 104 97
3 80 97 104
3 104 132 127
3 197 127 132
3 197 132 196
3 127 197 199
3 229 197 196
3 235 197 229
3 235 229 260
3 235 260 279
3 235 263 197
3 197 273 199
3 263 273 197
3 273 263 307
3 307 263 279
3 235 279 263
3 279 260 293
3 293 307 279
3 307 293 337
3 370 307 337
3 370 339 307
3 273 307 339
3 339 370 422
3 390 370 337
3 370 390 461
3 422 370 461
3 474 339 422
3 461 474 422
3 474 461 529
3 527 474 529
3 339 474 428
3 474 513 428
3 474 527 513
3 513 486 428
3 570 527 529
3 513 527 567
3 567 545 513
3 527 570 567
3 570 609 567
3 567 609 597
3 545 567 597
3 650 597 609
3 661 597 650
3 650 609 640
3 609 606 640
3 609 570 606
3 570 599 606
3 599 640 606
3 640 599 623
3 640 623 668
3 623 655 668
3 668 659 640
3 659 650 640
3 659 681 650
3 659 668 681
3 681 661 650
3 661 681 687
3 513 545 486
3 486 545 530
3 576 530 545
3 545 597 576
3 558 530 576
3 576 664 558
3 664 576 661
3 597 661 576
3 691 664 661
3 687 691 661
3 691 687 686
3 686 687 684
3 687 671 684
3 671 687 681
3 668 671 681
3 671 668 665
3 668 656 665
3 656 668 655
3 608 635 656
3 635 665 656
3 635 645 665
3 645 671 665
3 657 671 645
3 657 684 671
3 657 673 684
3 673 686 684
3 499 526 500
3 500 526 522
3 526 569 522
3 569 548 522
3 608 548 569
3 608 569 635
3 595 635 569
3 595 569 560
3 531 560 569
3 531 569 511
3 569 526 511
3 499 511 526
3 531 534 560
3 574 560 534
3 595 560 574
3 595 574 645
3 595 645 635
3 657 645 574
3 657 574 598
3 657 598 618
3 657 618 673
3 625 673 618
3 673 625 686
3 543 625 618
3 556 543 618
3 556 618 598
3 556 598 540
3 540 598 574
3 534 540 574
3 490 500 522
3 543 507 472
3 556 507 543
3 556 540 507
3 498 507 540
3 540 534 498
3 485 498 534
3 485 534 484
3 531 484 534
3 531 511 484
3 499 484 511
3 499 467 484
3 499 450 467
3 413 467 450
3 413 484 467
3 413 425 484
3 485 484 425
3 485 425 441
3 485 441 498
3 458 498 441
3 458 507 498
3 458 472 507
3 458 421 472
3 458 391 421
3 391 367 421
3 367 391 323
3 317 323 391
3 317 391 441
3 458 441 391
3 317 441 425
3 317 425 320
3 413 320 425
3 413 329 320
3 413 361 329
3 413 400 361
3 413 450 400
3 368 361 400
3 368 330 361
3 329 361 330
3 288 278 329
3 288 329 330
3 472 487 543
3 487 472 444
3 457 487 444
3 444 397 457
3 388 397 444
3 388 344 397
3 388 444 421
3 472 421 444
3 388 421 367
3 388 367 349
3 388 349 344
3 287 344 349
3 344 287 275
3 287 211 275
3 287 249 211
3 203 211 249
3 150 211 203
3 150 203 158
3 150 158 100
3 150 100 81
3 81 100 46
3 100 65 46
3 43 30 28
3 30 43 33
3 33 34 30
3 29 30 34
3 29 28 30
3 29 35 28
3 49 35 75
3 60 75 35
3 48 60 35
3 29 48 35
3 29 44 48
3 29 51 44
3 29 36 51
3 29 34 36
3 34 37 36
3 37 50 36
3 37 56 50
3 50 51 36
3 80 51 50
3 96 75 147
3 75 120 147
3 120 75 79
3 75 60 79
3 60 48 79
3 79 48 71
3 58 71 48
3 58 48 44
3 67 58 44
3 67 44 51
3 51 86 67
3 80 86 51
3 147 176 224
3 176 147 120
3 120 155 176
3 155 120 109
3 120 79 109
3 79 114 109
3 114 79 71
3 91 114 71
3 88 91 71
3 88 71 58
3 88 58 67
3 88 67 86
3 88 86 117
3 117 86 101
3 80 101 86
3 56 70 62
3 62 50 56
3 80 50 62
3 80 104 101
3 136 101 127
3 101 104 127
3 117 101 136
3 136 127 199
3 136 199 200
3 200 139 136
3 139 117 136
3 88 117 115
3 141 115 117
3 141 117 139
3 206 141 139
3 139 200 206
3 88 115 108
3 88 108 91
3 129 91 108
3 137 129 108
3 108 115 137
3 91 129 114
3 135 109 114
3 155 109 135
3 285 345 335
3 285 335 276
3 285 276 234
3 224 234 276
3 234 224 176
3 386 345 309
3 362 386 309
3 345 285 309
3 285 261 309
3 261 285 215
3 285 234 215
3 215 234 176
3 155 215 176
3 215 155 218
3 215 218 261
3 309 341 362
3 341 309 336
3 336 309 291
3 291 309 261
3 291 261 267
3 261 212 267
3 212 261 218
3 218 155 212
3 188 212 155
3 188 155 166
3 166 155 135
3 188 267 212
3 297 336 291
3 332 336 297
3 332 297 301
3 301 333 332
3 333 301 299
3 300 333 299
3 333 300 338
3 300 327 338
3 231 245 300
3 277 231 300
3 277 300 299
3 301 277 299
3 301 243 277
3 243 301 257
3 301 297 257
3 297 267 257
3 267 297 291
3 188 257 267
3 188 243 257
3 188 184 243
3 188 166 184
3 166 135 184
3 135 114 184
3 114 129 144
3 184 114 144
3 144 205 184
3 222 184 205
3 222 243 184
3 222 277 243
3 222 205 277
3 231 277 205
3 245 231 206
3 205 206 231
3 141 206 205
3 205 137 141
3 137 205 144
3 129 137 144
3 115 141 137
3 200 245 206
3 200 254 245
3 283 245 254
3 283 300 245
3 283 327 300
3 283 298 327
3 283 273 298
3 283 253 273
3 283 254 253
3 253 254 200
3 199 253 200
3 273 253 199
3 339 298 273
3 328 298 339
3 298 328 327
3 328 377 327
3 339 377 328
3 377 339 428
3 377 428 409
3 486 409 428
3 409 486 442
3 402 409 442
3 442 486 491
3 486 530 491
3 409 402 371
3 371 402 360
3 338 371 360
3 338 327 371
3 327 377 371
3 409 371 377
3 333 338 360
3 360 366 333
3 366 332 333
3 366 384 332
3 332 384 365
3 365 336 332
3 365 380 336
3 365 384 380
3 380 341 336
3 380 362 341
3 380 404 362
3 362 404 386
3 404 426 386
3 435 426 404
3 380 435 404
3 408 435 380
3 384 408 380
3 384 448 408
3 418 430 384
3 448 384 430
3 384 366 418
3 366 360 395
3 402 395 360
3 401 366 395
3 366 401 418
3 395 402 442
3 395 442 451
3 451 401 395
3 401 451 470
3 491 451 442
3 451 491 505
3 530 505 491
3 530 558 505
3 505 558 541
3 482 505 541
3 505 482 470
3 470 451 505
3 401 470 482
3 418 401 482
3 494 418 482
3 430 418 502
3 502 448 430
3 418 494 502
3 448 464 408
3 408 464 435
3 464 448 502
3 508 464 502
3 502 528 508
3 528 502 523
3 494 523 502
3 523 494 541
3 541 555 523
3 523 555 528
3 494 482 541
3 589 555 541
3 558 589 541
3 664 589 558
3 386 426 0
3 434 476 0
3 426 434 0
3 468 434 426
3 476 434 468
3 426 435 468
3 468 435 464
3 464 508 512
3 512 532 464
3 532 468 464
3 532 476 468
3 476 532 537
3 532 653 537
3 653 532 639
3 532 562 639
3 562 532 512
3 563 512 528
3 512 508 528
3 555 563 528
3 512 563 562
3 596 562 563
3 596 639 562
3 667 639 596
3 667 596 644
3 644 596 563
3 563 589 644
3 589 563 555
3 589 664 644
3 664 663 644
3 664 690 663
3 664 691 690
3 667 663 690
3 663 667 644
3 653 639 669
3 677 653 669
3 701 677 669
3 695 701 669
3 669 690 695
3 690 669 667
3 639 667 669
3 694 701 695
3 689 694 695
3 686 689 695
3 695 690 686
3 690 691 686
3 689 686 674
3 694 689 674
3 709 707 708
3 708 707 700
3 72 69 110
3 96 110 69
3 110 96 192
3 96 147 192
3 147 224 192
3 192 224 294
3 224 276 294
3 276 335 294
3 294 335 375
3 375 335 392
3 452 392 0
3 476 452 0
3 452 476 496
3 496 476 546
3 537 546 476
3 615 546 537
3 615 537 653
3 653 694 615
3 694 653 701
3 677 701 653
3 40 38 84
3 38 40 21
3 40 11 21
3 11 40 2
3 17 2 40
3 17 3 2
3 17 7 3
3 17 27 16
3 17 16 7
3 32 16 27
3 61 32 27
3 47 61 27
3 74 61 47
3 74 47 82
3 55 82 47
3 82 55 85
3 40 85 55
3 27 40 47
3 17 40 27
3 47 40 55
3 85 40 84
3 112 85 84
3 112 82 85
3 82 112 116
3 74 82 116
3 74 116 106
3 74 106 61
3 670 628 611
3 628 670 692
3 688 628 692
3 688 660 628
3 688 696 660
3 688 706 696
3 688 692 706
3 692 709 706
3 709 692 707
3 670 707 692
3 707 670 700
3 700 670 678
3 678 670 658
3 670 611 658
3 308 302 346
3 308 240 302
3 240 308 292
3 225 240 292
3 225 216 240
3 256 216 225
3 256 225 255
3 255 225 292
3 312 255 292
3 312 292 356
3 312 256 255
3 312 306 256
3 312 325 306
3 312 359 325
3 312 406 359
3 312 356 406
3 356 396 406
3 396 356 355
3 355 346 396
3 355 308 346
3 308 355 292
3 355 356 292
